{
.appVersion = "3151";
.formatVersion = 3;
axes = (
{
name = Weight;
tag = wght;
},
{
name = Width;
tag = wdth;
},
{
name = Slant;
tag = slnt;
}
);
classes = (
{
code = "zero one two three four five six seven eight nine ";
name = Num;
},
{
code = "zero.canadian one.canadian two.canadian three.canadian four.canadian five.canadian six.canadian seven.canadian eight.canadian nine.canadian 
";
name = Num_can;
},
{

glyphs = (
{
glyphname = idotless;
lastChange = "2023-01-13 15:28:11 +0000";
layers = (
{
layerId = "7D3FB2DB-72C7-4646-AA25-FB3BBECA0225";
shapes = (
{
closed = 1;
nodes = (
(149,538,l),
(57,538,l),
(57,0,l),
(149,0,l)
);
}
);
width = 206;
}
);
note = dotlessi;
unicode = 305;
},
{
glyphname = "acuteFinal-canadian";
lastChange = "2023-01-13 15:28:11 +0000";
layers = (
{
layerId = "7D3FB2DB-72C7-4646-AA25-FB3BBECA0225";
shapes = (
{
closed = 1;
nodes = (
(98,357,l),
(233,714,l),
(162,714,l),
(27,357,l)
);
}
);
width = 260;
}
);
metricRight = "=|";
note = uni141F;
unicode = 5151;
},
{
glyphname = "graveFinal-canadian";
kernLeft = mwestleft;
kernRight = mwestright;
lastChange = "2023-01-13 15:28:11 +0000";
layers = (
{
layerId = "7D3FB2DB-72C7-4646-AA25-FB3BBECA0225";
shapes = (
{
closed = 1;
nodes = (
(233,357,l),
(98,714,l),
(27,714,l),
(162,357,l)
);
}
);
width = 260;
}
);
metricLeft = "=|acuteFinal-canadian";
metricRight = "=|acuteFinal-canadian";
note = uni1420;
unicode = 5152;
},
{
glyphname = "ringBottomhalfFinal-canadian";
kernLeft = mwestleft;
kernRight = mwestright;
lastChange = "2023-01-13 15:28:11 +0000";
layers = (
{
layerId = "7D3FB2DB-72C7-4646-AA25-FB3BBECA0225";
shapes = (
{
closed = 1;
nodes = (
(254,351,o),
(301,401,o),
(301,496,cs),
(301,714,l),
(238,714,l),
(238,492,ls),
(238,435,o),
(218,409,o),
(176,409,cs),
(135,409,o),
(115,436,o),
(115,492,cs),
(115,714,l),
(51,714,l),
(51,494,ls),
(51,401,o),
(99,351,o),
(176,351,cs)
);
}
);
width = 352;
}
);
metricLeft = "ai-canadian";
metricRight = "==|ai-canadian";
note = uni1421;
unicode = 5153;
},
{
glyphname = "ringTophalfFinal-canadian";
lastChange = "2023-01-13 15:28:11 +0000";
layers = (
{
layerId = "7D3FB2DB-72C7-4646-AA25-FB3BBECA0225";
shapes = (
{
closed = 1;
nodes = (
(115,357,l),
(115,580,ls),
(115,635,o),
(135,662,o),
(176,662,cs),
(218,662,o),
(238,636,o),
(238,579,cs),
(238,357,l),
(301,357,l),
(301,575,ls),
(301,670,o),
(254,720,o),
(176,720,cs),
(99,720,o),
(51,670,o),
(51,577,cs),
(51,357,l)
);
}
);
width = 352;
}
);
metricLeft = "ai-canadian";
metricRight = "==|ai-canadian";
note = uni1422;
unicode = 5154;
},
{
glyphname = "ringRighthalfFinal-canadian";
kernLeft = mwestleft;
kernRight = mwestright;
lastChange = "2023-01-13 15:31:28 +0000";
layers = (
{
layerId = "7D3FB2DB-72C7-4646-AA25-FB3BBECA0225";
shapes = (
{
closed = 1;
nodes = (
(89,357,ls),
(197,357,o),
(255,424,o),
(255,535,cs),
(255,646,o),
(197,714,o),
(90,714,cs),
(49,714,l),
(49,653,l),
(83,653,ls),
(155,653,o),
(190,611,o),
(190,535,cs),
(190,458,o),
(155,418,o),
(83,418,cs),
(49,418,l),
(49,357,l)
);
}
);
width = 303;
}
);
metricLeft = "=|t-canadian";
metricWidth = "t-canadian";
note = uni1423;
unicode = 5155;
},
{
glyphname = "ringFinal-canadian";
kernLeft = mwestleft;
kernRight = mwestright;
lastChange = "2023-01-13 15:28:11 +0000";
layers = (
{
layerId = "7D3FB2DB-72C7-4646-AA25-FB3BBECA0225";
shapes = (
{
closed = 1;
nodes = (
(304,403,o),
(370,471,o),
(370,562,cs),
(370,652,o),
(303,720,o),
(210,720,cs),
(115,720,o),
(49,652,o),
(49,562,cs),
(49,471,o),
(115,403,o),
(210,403,cs)
);
},
{
closed = 1;
nodes = (
(148,458,o),
(108,500,o),
(108,562,cs),
(108,622,o),
(148,665,o),
(210,665,cs),
(269,665,o),
(310,621,o),
(310,562,cs),
(310,500,o),
(269,458,o),
(210,458,cs)
);
}
);
width = 418;
}
);
note = uni1424;
unicode = 5156;
},
{
glyphname = "doubleacuteFinal-canadian";
lastChange = "2023-01-13 15:28:11 +0000";
layers = (
{
layerId = "7D3FB2DB-72C7-4646-AA25-FB3BBECA0225";
shapes = (
{
closed = 1;
nodes = (
(233,714,l),
(162,714,l),
(27,357,l),
(98,357,l)
);
},
{
closed = 1;
nodes = (
(363,714,l),
(291,714,l),
(157,357,l),
(229,357,l)
);
}
);
width = 390;
}
);
metricLeft = "acuteFinal-canadian";
metricRight = "=|";
note = uni1425;
unicode = 5157;
},
{
glyphname = "doubleshortverticalstrokesFinal-canadian";
kernLeft = mwestleft;
kernRight = mwestright;
lastChange = "2023-01-13 15:28:11 +0000";
layers = (
{
layerId = "7D3FB2DB-72C7-4646-AA25-FB3BBECA0225";
shapes = (
{
closed = 1;
nodes = (
(115,714,l),
(51,714,l),
(51,357,l),
(115,357,l)
);
},
{
closed = 1;
nodes = (
(230,714,l),
(166,714,l),
(166,357,l),
(230,357,l)
);
}
);
width = 281;
}
);
metricLeft = "pWestCree-canadian";
metricRight = "pWestCree-canadian";
note = uni1426;
unicode = 5158;
},
{
glyphname = "middledotFinal-canadian";
lastChange = "2023-01-13 15:28:11 +0000";
layers = (
{
layerId = "7D3FB2DB-72C7-4646-AA25-FB3BBECA0225";
shapes = (
{
closed = 1;
nodes = (
(125,315,o),
(148,338,o),
(148,367,cs),
(148,396,o),
(125,419,o),
(96,419,cs),
(67,419,o),
(44,396,o),
(44,367,cs),
(44,338,o),
(67,315,o),
(96,315,cs)
);
}
);
width = 191;
}
);
note = uni1427;
unicode = 5159;
},
{
glyphname = "shorthorizontalstrokeFinal-canadian";
kernLeft = mwestleft;
kernRight = mwestright;
lastChange = "2023-01-13 15:28:11 +0000";
layers = (
{
layerId = "7D3FB2DB-72C7-4646-AA25-FB3BBECA0225";
shapes = (
{
closed = 1;
nodes = (
(320,517,l),
(320,581,l),
(51,581,l),
(51,517,l)
);
}
);
width = 371;
}
);
metricRight = "=|";
note = uni1428;
unicode = 5160;
},
{
glyphname = "plusFinal-canadian";
kernLeft = mwestleft;
kernRight = mwestright;
lastChange = "2023-01-13 15:28:11 +0000";
layers = (
{
layerId = "7D3FB2DB-72C7-4646-AA25-FB3BBECA0225";
shapes = (
{
closed = 1;
nodes = (
(216,413,l),
(216,534,l),
(320,534,l),
(320,596,l),
(216,596,l),
(216,714,l),
(156,714,l),
(156,596,l),
(51,596,l),
(51,534,l),
(156,534,l),
(156,413,l)
);
}
);
width = 371;
}
);
metricLeft = "shorthorizontalstrokeFinal-canadian";
metricRight = "shorthorizontalstrokeFinal-canadian";
note = uni1429;
unicode = 5161;
},
{
glyphname = "downtackFinal-canadian";
kernLeft = mwestleft;
kernRight = mwestright;
lastChange = "2023-01-13 15:28:11 +0000";
layers = (
{
layerId = "7D3FB2DB-72C7-4646-AA25-FB3BBECA0225";
shapes = (
{
closed = 1;
nodes = (
(218,357,l),
(218,653,l),
(320,653,l),
(320,714,l),
(51,714,l),
(51,653,l),
(154,653,l),
(154,357,l)
);
}
);
width = 371;
}
);
metricLeft = "shorthorizontalstrokeFinal-canadian";
metricRight = "shorthorizontalstrokeFinal-canadian";
note = uni142A;
unicode = 5162;
},
{
glyphname = "thFinalWoodScree-canadian";
lastChange = "2023-01-13 15:31:28 +0000";
layers = (
{
layerId = "7D3FB2DB-72C7-4646-AA25-FB3BBECA0225";
shapes = (
{
closed = 1;
nodes = (
(218,357,l),
(218,435,l),
(320,435,l),
(320,491,l),
(218,491,l),
(218,580,l),
(320,580,l),
(320,636,l),
(218,636,l),
(218,714,l),
(154,714,l),
(154,636,l),
(51,636,l),
(51,580,l),
(154,580,l),
(154,491,l),
(51,491,l),
(51,435,l),
(154,435,l),
(154,357,l)
);
}
);
width = 371;
}
);
metricLeft = "hyphen-canadian";
metricRight = "hyphen-canadian";
note = uni167E;
unicode = 5758;
},
{
glyphname = "ringSmallFinal-canadian";
kernLeft = mwestleft;
kernRight = mwestright;
lastChange = "2023-01-13 15:28:11 +0000";
layers = (
{
layerId = "7D3FB2DB-72C7-4646-AA25-FB3BBECA0225";
shapes = (
{
closed = 1;
nodes = (
(198,539,o),
(241,579,o),
(241,633,cs),
(241,688,o),
(198,727,o),
(146,727,cs),
(94,727,o),
(51,688,o),
(51,633,cs),
(51,579,o),
(93,539,o),
(146,539,cs)
);
},
{
closed = 1;
nodes = (
(116,581,o),
(95,603,o),
(95,633,cs),
(95,663,o),
(116,685,o),
(146,685,cs),
(176,685,o),
(197,663,o),
(197,633,cs),
(197,603,o),
(176,581,o),
(146,581,cs)
);
}
);
width = 292;
}
);
note = g725;
unicode = 6366;
},
{
glyphname = "raiseddotFinal-canadian";
kernLeft = mwestleft;
kernRight = mwestright;
lastChange = "2023-01-13 15:28:11 +0000";
layers = (
{
layerId = "7D3FB2DB-72C7-4646-AA25-FB3BBECA0225";
shapes = (
{
closed = 1;
nodes = (
(127,623,o),
(150,646,o),
(150,675,cs),
(150,704,o),
(127,727,o),
(98,727,cs),
(70,727,o),
(46,704,o),
(46,675,cs),
(46,646,o),
(70,623,o),
(98,623,cs)
);
}
);
width = 197;
}
);
note = g725;
unicode = 6367;
},
{
glyphname = "plusFinal-canadian.base";
lastChange = "2023-01-13 15:28:11 +0000";
layers = (
{
layerId = "7D3FB2DB-72C7-4646-AA25-FB3BBECA0225";
shapes = (
{
closed = 1;
nodes = (
(216,0,l),
(216,121,l),
(320,121,l),
(320,183,l),
(216,183,l),
(216,301,l),
(156,301,l),
(156,183,l),
(51,183,l),
(51,121,l),
(156,121,l),
(156,0,l)
);
}
);
width = 371;
}
);
metricLeft = "shorthorizontalstrokeFinal-canadian";
metricRight = "shorthorizontalstrokeFinal-canadian";
note = uni1429;
},
{
glyphname = "e-canadian";
kernLeft = ecanleft;
kernRight = ecanright;
lastChange = "2023-01-13 15:28:11 +0000";
layers = (
{
anchors = (
{
name = middle_center_can;
pos = (297,470);
},
{
name = top_center_can;
pos = (297,714);
},
{
name = top_left_can;
pos = (110,714);
},
{
name = top_right_can;
pos = (485,714);
}
);
layerId = "7D3FB2DB-72C7-4646-AA25-FB3BBECA0225";
shapes = (
{
closed = 1;
nodes = (
(314,0,l),
(571,688,l),
(571,714,l),
(26,714,l),
(26,688,l),
(283,0,l)
);
},
{
closed = 1;
nodes = (
(320,110,l),
(123,659,l),
(107,638,l),
(487,638,l),
(475,659,l),
(277,110,l)
);
}
);
width = 597;
}
);
metricRight = "=|";
note = uni1401;
unicode = 5121;
},
{
glyphname = "i-canadian";
kernLeft = icanleft;
kernRight = icanright;
lastChange = "2023-01-13 15:28:11 +0000";
layers = (
{
anchors = (
{
name = middle_center_can;
pos = (296,376);
},
{
name = top_center_can;
pos = (298,714);
},
{
name = top_left_can;
pos = (111,714);
},
{
name = top_right_can;
pos = (485,714);
}
);
layerId = "7D3FB2DB-72C7-4646-AA25-FB3BBECA0225";
shapes = (
{
closed = 1;
nodes = (
(571,0,l),
(571,26,l),
(314,714,l),
(283,714,l),
(26,26,l),
(26,0,l)
);
},
{
closed = 1;
nodes = (
(319,604,l),
(276,604,l),
(474,55,l),
(486,76,l),
(107,76,l),
(122,55,l)
);
}
);
width = 597;
}
);
metricLeft = "e-canadian";
metricWidth = "e-canadian";
note = uni1403;
unicode = 5123;
},
{
glyphname = "o-canadian";
kernLeft = ocanleft;
kernRight = ocanright;
lastChange = "2023-01-13 15:28:11 +0000";
layers = (
{
anchors = (
{
name = middle_center_can;
pos = (235,357);
},
{
name = top_center_can;
pos = (296,714);
},
{
name = top_double;
pos = (383,714);
},
{
name = top_left_can;
pos = (99,714);
},
{
name = top_right_can;
pos = (495,714);
}
);
layerId = "7D3FB2DB-72C7-4646-AA25-FB3BBECA0225";
shapes = (
{
closed = 1;
nodes = (
(86,0,l),
(539,340,l),
(539,374,l),
(86,714,l),
(62,714,l),
(62,0,l)
);
},
{
closed = 1;
nodes = (
(139,609,l),
(118,599,l),
(462,337,l),
(462,378,l),
(118,116,l),
(139,105,l)
);
}
);
width = 569;
}
);
metricLeft = "nunavuth-canadian";
note = uni1405;
unicode = 5125;
},
{
glyphname = "eeCarrier-canadian";
lastChange = "2023-01-13 15:28:11 +0000";
layers = (
{
layerId = "7D3FB2DB-72C7-4646-AA25-FB3BBECA0225";
shapes = (
{
closed = 1;
nodes = (
(86,0,l),
(539,340,l),
(539,374,l),
(86,714,l),
(62,714,l),
(62,0,l)
);
},
{
closed = 1;
nodes = (
(133,609,l),
(118,605,l),
(462,343,l),
(462,372,l),
(118,110,l),
(133,105,l)
);
},
{
closed = 1;
nodes = (
(249,443,l),
(213,443,l),
(213,271,l),
(249,271,l)
);
}
);
width = 569;
}
);
metricLeft = "nunavuth-canadian";
metricRight = "o-canadian";
note = uni1408;
unicode = 5128;
},
{
glyphname = "a-canadian";
kernLeft = acanleft;
kernRight = acanright;
lastChange = "2023-01-13 15:28:11 +0000";
layers = (
{
anchors = (
{
name = middle_center_can;
pos = (331,357);
},
{
name = top_center_can;
pos = (253,714);
},
{
name = top_left_can;
pos = (75,714);
},
{
name = top_right_can;
pos = (467,714);
}
);
layerId = "7D3FB2DB-72C7-4646-AA25-FB3BBECA0225";
shapes = (
{
closed = 1;
nodes = (
(507,0,l),
(507,714,l),
(483,714,l),
(30,374,l),
(30,340,l),
(483,0,l)
);
},
{
closed = 1;
nodes = (
(451,115,l),
(107,377,l),
(107,336,l),
(451,598,l),
(430,609,l),
(430,105,l)
);
}
);
width = 569;
}
);
metricRight = "nunavuth-canadian";
note = uni140A;
unicode = 5130;
},
{
glyphname = "ai-canadian";
lastChange = "2023-01-13 15:28:11 +0000";
layers = (
{
layerId = "7D3FB2DB-72C7-4646-AA25-FB3BBECA0225";
shapes = (
{
closed = 1;
nodes = (
(218,351,o),
(250,380,o),
(268,435,c),
(249,435,l),
(267,378,o),
(302,351,o),
(351,351,cs),
(419,351,o),
(467,394,o),
(467,495,cs),
(467,714,l),
(407,714,l),
(407,496,ls),
(407,428,o),
(381,409,o),
(347,409,cs),
(313,409,o),
(288,429,o),
(288,496,cs),
(288,714,l),
(229,714,l),
(229,496,ls),
(229,428,o),
(203,409,o),
(169,409,cs),
(135,409,o),
(111,430,o),
(111,496,cs),
(111,714,l),
(51,714,l),
(51,494,ls),
(51,394,o),
(99,351,o),
(166,351,cs)
);
}
);
width = 518;
}
);
metricRight = "=|";
note = uni141C;
unicode = 5148;
},
{
glyphname = "ycreew-canadian";
lastChange = "2023-01-13 15:28:11 +0000";
layers = (
{
layerId = "7D3FB2DB-72C7-4646-AA25-FB3BBECA0225";
shapes = (
{
closed = 1;
nodes = (
(291,528,o),
(320,564,o),
(320,624,cs),
(320,684,o),
(290,720,o),
(249,720,cs),
(206,720,o),
(177,684,o),
(177,624,cs),
(177,564,o),
(206,528,o),
(248,528,cs)
);
},
{
closed = 1;
nodes = (
(165,351,o),
(194,387,o),
(194,447,cs),
(194,507,o),
(164,543,o),
(122,543,cs),
(80,543,o),
(51,507,o),
(51,447,cs),
(51,387,o),
(79,351,o),
(122,351,cs)
);
},
{
closed = 1;
nodes = (
(100,386,o),
(87,406,o),
(87,447,cs),
(87,489,o),
(100,508,o),
(122,508,cs),
(144,508,o),
(158,489,o),
(158,447,cs),
(158,406,o),
(144,386,o),
(122,386,cs)
);
},
{
closed = 1;
nodes = (
(226,563,o),
(213,583,o),
(213,624,cs),
(213,666,o),
(226,685,o),
(248,685,cs),
(271,685,o),
(284,666,o),
(284,624,cs),
(284,583,o),
(271,563,o),
(248,563,cs)
);
}
);
width = 371;
}
);
metricRight = "=|";
note = uni141D;
unicode = 5149;
},
{
glyphname = "glottalstop-canadian";
lastChange = "2023-01-13 15:31:28 +0000";
layers = (
{
layerId = "7D3FB2DB-72C7-4646-AA25-FB3BBECA0225";
shapes = (
{
closed = 1;
nodes = (
(319,357,l),
(319,372,l),
(191,714,l),
(174,714,l),
(46,372,l),
(46,357,l)
);
},
{
closed = 1;
nodes = (
(198,650,l),
(167,650,l),
(261,385,l),
(271,406,l),
(94,406,l),
(103,385,l)
);
}
);
width = 365;
}
);
metricRight = "=|";
note = uni141E;
unicode = 5150;
},
{
glyphname = "pe-canadian";
kernLeft = ecanleft;
kernRight = ecanright;
lastChange = "2023-01-13 15:28:11 +0000";
layers = (
{
anchors = (
{
name = middle_center_can;
pos = (297,470);
},
{
name = top_center_can;
pos = (297,714);
},
{
name = top_left_can;
pos = (110,714);
},
{
name = top_right_can;
pos = (485,714);
}
);
layerId = "7D3FB2DB-72C7-4646-AA25-FB3BBECA0225";
shapes = (
{
closed = 1;
nodes = (
(314,0,l),
(571,688,l),
(571,714,l),
(489,714,l),
(270,111,l),
(329,111,l),
(110,714,l),
(26,714,l),
(26,688,l),
(283,0,l)
);
}
);
width = 597;
}
);
metricLeft = "e-canadian";
metricRight = "e-canadian";
note = uni142F;
unicode = 5167;
},
{
glyphname = "pi-canadian";
kernLeft = icanleft;
kernRight = icanright;
lastChange = "2023-01-13 15:28:11 +0000";
layers = (
{
anchors = (
{
name = middle_center_can;
pos = (298,376);
},
{
name = top_center_can;
pos = (298,714);
},
{
name = top_left_can;
pos = (111,714);
},
{
name = top_right_can;
pos = (486,714);
}
);
layerId = "7D3FB2DB-72C7-4646-AA25-FB3BBECA0225";
shapes = (
{
closed = 1;
nodes = (
(109,0,l),
(327,603,l),
(268,603,l),
(488,0,l),
(571,0,l),
(571,26,l),
(314,714,l),
(283,714,l),
(26,26,l),
(26,0,l)
);
}
);
width = 597;
}
);
metricLeft = "e-canadian";
metricRight = "e-canadian";
note = uni1431;
unicode = 5169;
},
{
glyphname = "po-canadian";
kernLeft = ocanleft;
kernRight = ocanright;
lastChange = "2023-01-13 15:31:28 +0000";
layers = (
{
anchors = (
{
name = middle_center_can;
pos = (169,357);
},
{
name = top_center_can;
pos = (274,714);
},
{
name = top_double;
pos = (371,714);
},
{
name = top_left_can;
pos = (82,714);
},
{
name = top_right_can;
pos = (471,714);
}
);
layerId = "7D3FB2DB-72C7-4646-AA25-FB3BBECA0225";
shapes = (
{
closed = 1;
nodes = (
(66,0,l),
(514,340,l),
(514,374,l),
(66,714,l),
(42,714,l),
(42,628,l),
(425,336,l),
(425,379,l),
(42,87,l),
(42,0,l)
);
}
);
width = 544;
}
);
metricRight = "o-canadian";
note = uni1433;
unicode = 5171;
},
{
glyphname = "pa-canadian";
kernLeft = acanleft;
kernRight = acanright;
lastChange = "2023-01-13 15:28:11 +0000";
layers = (
{
anchors = (
{
name = middle_center_can;
pos = (294,357);
},
{
name = top_center_can;
pos = (272,714);
},
{
name = top_left_can;
pos = (75,714);
},
{
name = top_right_can;
pos = (463,714);
}
);
layerId = "7D3FB2DB-72C7-4646-AA25-FB3BBECA0225";
shapes = (
{
closed = 1;
nodes = (
(503,0,l),
(503,86,l),
(120,378,l),
(120,335,l),
(503,627,l),
(503,714,l),
(479,714,l),
(30,374,l),
(30,340,l),
(479,0,l)
);
}
);
width = 545;
}
);
metricRight = "=|po-canadian";
note = uni1438;
unicode = 5176;
},
{
glyphname = "p-canadian";
kernLeft = mwestleft;
kernRight = mwestright;
lastChange = "2023-01-13 15:28:11 +0000";
layers = (
{
layerId = "7D3FB2DB-72C7-4646-AA25-FB3BBECA0225";
shapes = (
{
closed = 1;
nodes = (
(284,357,l),
(284,417,l),
(100,559,l),
(100,513,l),
(284,654,l),
(284,714,l),
(271,714,l),
(51,546,l),
(51,526,l),
(271,357,l)
);
}
);
width = 335;
}
);
note = uni1449;
unicode = 5193;
},
{
glyphname = "pWestCree-canadian";
kernLeft = mwestleft;
kernRight = mwestright;
lastChange = "2023-01-13 15:28:11 +0000";
layers = (
{
layerId = "7D3FB2DB-72C7-4646-AA25-FB3BBECA0225";
shapes = (
{
closed = 1;
nodes = (
(115,357,l),
(115,714,l),
(51,714,l),
(51,357,l)
);
}
);
width = 166;
}
);
metricRight = "=|";
note = uni144A;
unicode = 5194;
},
{
color = 6;
glyphname = "hCarrier-canadian";
lastChange = "2023-01-13 15:28:11 +0000";
layers = (
{
layerId = "7D3FB2DB-72C7-4646-AA25-FB3BBECA0225";
shapes = (
{
closed = 1;
nodes = (
(115,189,l),
(115,334,ls),
(115,371,o),
(132,393,o),
(164,393,cs),
(194,393,o),
(207,373,o),
(207,334,cs),
(207,189,l),
(271,189,l),
(271,345,ls),
(271,419,o),
(227,450,o),
(180,450,cs),
(136,450,o),
(105,422,o),
(100,384,c),
(115,374,l),
(115,546,l),
(51,546,l),
(51,189,l)
);
}
);
width = 306;
}
);
metricLeft = "pWestCree-canadian";
note = uni144B;
unicode = 5195;
},
{
glyphname = "te-canadian";
lastChange = "2023-01-13 15:28:11 +0000";
layers = (
{
anchors = (
{
name = middle_center_can;
pos = (301,357);
},
{
name = top_center_can;
pos = (301,714);
},
{
name = top_left_can;
pos = (106,714);
},
{
name = top_right_can;
pos = (497,714);
}
);
layerId = "7D3FB2DB-72C7-4646-AA25-FB3BBECA0225";
shapes = (
{
closed = 1;
nodes = (
(455,-13,o),
(544,81,o),
(544,262,cs),
(544,714,l),
(450,714,l),
(450,262,ls),
(450,131,o),
(397,74,o),
(301,74,cs),
(207,74,o),
(152,134,o),
(152,262,cs),
(152,714,l),
(58,714,l),
(58,260,ls),
(58,81,o),
(150,-13,o),
(301,-13,cs)
);
}
);
width = 602;
}
);
metricRight = "=|";
note = uni144C;
unicode = 5196;
},
{
glyphname = "ti-canadian";
lastChange = "2023-01-13 15:28:11 +0000";
layers = (
{
anchors = (
{
name = middle_center_can;
pos = (301,357);
},
{
name = middle_right_can;
pos = (655,357);
},
{
name = top_center_can;
pos = (301,714);
},
{
name = top_left_can;
pos = (106,714);
},
{
name = top_right_can;
pos = (497,714);
}
);
layerId = "7D3FB2DB-72C7-4646-AA25-FB3BBECA0225";
shapes = (
{
closed = 1;
nodes = (
(152,0,l),
(152,452,ls),
(152,582,o),
(205,640,o),
(301,640,cs),
(395,640,o),
(450,580,o),
(450,452,cs),
(450,0,l),
(544,0,l),
(544,454,ls),
(544,633,o),
(453,727,o),
(301,727,cs),
(151,727,o),
(58,633,o),
(58,452,cs),
(58,0,l)
);
}
);
width = 602;
}
);
metricLeft = "te-canadian";
metricRight = "te-canadian";
note = uni144E;
unicode = 5198;
},
{
glyphname = "to-canadian";
kernLeft = toleft;
lastChange = "2023-01-13 15:28:11 +0000";
layers = (
{
anchors = (
{
name = middle_center_can;
pos = (202,357);
},
{
name = middle_right_can;
pos = (564,357);
},
{
name = top_center_can;
pos = (227,714);
},
{
name = top_double;
pos = (284,714);
},
{
name = top_left_can;
pos = (83,714);
},
{
name = top_right_can;
pos = (413,714);
}
);
layerId = "7D3FB2DB-72C7-4646-AA25-FB3BBECA0225";
shapes = (
{
closed = 1;
nodes = (
(141,0,ls),
(347,0,o),
(453,124,o),
(453,358,cs),
(453,592,o),
(347,714,o),
(138,714,cs),
(43,714,l),
(43,628,l),
(139,628,ls),
(289,628,o),
(360,542,o),
(360,358,cs),
(360,175,o),
(289,86,o),
(142,86,cs),
(43,86,l),
(43,0,l)
);
}
);
width = 504;
}
);
note = uni1450;
unicode = 5200;
},
{
glyphname = "ta-canadian";
kernRight = taright;
lastChange = "2023-01-13 15:28:11 +0000";
layers = (
{
anchors = (
{
name = middle_center_can;
pos = (303,357);
},
{
name = top_center_can;
pos = (278,714);
},
{
name = top_left_can;
pos = (91,714);
},
{
name = top_right_can;
pos = (421,714);
}
);
layerId = "7D3FB2DB-72C7-4646-AA25-FB3BBECA0225";
shapes = (
{
closed = 1;
nodes = (
(461,0,l),
(461,86,l),
(365,86,ls),
(215,86,o),
(145,173,o),
(145,356,cs),
(145,539,o),
(215,628,o),
(362,628,cs),
(461,628,l),
(461,714,l),
(363,714,ls),
(157,714,o),
(51,590,o),
(51,356,cs),
(51,122,o),
(157,0,o),
(366,0,cs)
);
}
);
width = 504;
}
);
metricLeft = "=|to-canadian";
metricRight = "=|to-canadian";
note = uni1455;
unicode = 5205;
},
{
glyphname = "t-canadian";
kernLeft = mwestleft;
kernRight = mwestright;
lastChange = "2023-01-13 15:28:11 +0000";
layers = (
{
layerId = "7D3FB2DB-72C7-4646-AA25-FB3BBECA0225";
shapes = (
{
closed = 1;
nodes = (
(254,357,l),
(254,418,l),
(220,418,ls),
(148,418,o),
(113,458,o),
(113,535,cs),
(113,611,o),
(148,653,o),
(220,653,cs),
(254,653,l),
(254,714,l),
(214,714,ls),
(107,714,o),
(49,646,o),
(49,535,cs),
(49,424,o),
(107,357,o),
(215,357,cs)
);
}
);
width = 303;
}
);
note = uni1466;
unicode = 5222;
},
{
glyphname = "ke-canadian";
lastChange = "2023-01-13 15:31:28 +0000";
layers = (
{
anchors = (
{
name = middle_center_can;
pos = (258,457);
},
{
name = top_center_can;
pos = (245,714);
},
{
name = top_left_can;
pos = (97,714);
},
{
name = top_right_can;
pos = (393,714);
}
);
layerId = "7D3FB2DB-72C7-4646-AA25-FB3BBECA0225";
shapes = (
{
closed = 1;
nodes = (
(439,0,l),
(439,462,ls),
(439,633,o),
(372,727,o),
(248,727,cs),
(124,727,o),
(51,631,o),
(51,463,cs),
(51,303,o),
(122,205,o),
(234,205,cs),
(297,205,o),
(344,247,o),
(355,303,c),
(346,328,l),
(346,0,l)
);
},
{
closed = 1;
nodes = (
(180,286,o),
(142,343,o),
(142,467,cs),
(142,590,o),
(179,647,o),
(245,647,cs),
(311,647,o),
(348,591,o),
(348,467,cs),
(348,343,o),
(309,286,o),
(245,286,cs)
);
}
);
width = 497;
}
);
metricRight = "te-canadian";
note = uni146B;
unicode = 5227;
},
{
glyphname = "ki-canadian";
lastChange = "2023-01-13 15:28:11 +0000";
layers = (
{
anchors = (
{
name = middle_center_can;
pos = (265,457);
},
{
name = top_center_can;
pos = (252,714);
},
{
name = top_left_can;
pos = (105,714);
},
{
name = top_right_can;
pos = (401,714);
}
);
layerId = "7D3FB2DB-72C7-4646-AA25-FB3BBECA0225";
shapes = (
{
closed = 1;
nodes = (
(152,0,l),
(152,328,l),
(143,303,l),
(154,247,o),
(200,205,o),
(264,205,cs),
(376,205,o),
(447,303,o),
(447,464,cs),
(447,631,o),
(374,727,o),
(252,727,cs),
(126,727,o),
(58,629,o),
(58,462,cs),
(58,0,l)
);
},
{
closed = 1;
nodes = (
(188,286,o),
(150,343,o),
(150,467,cs),
(150,591,o),
(186,647,o),
(252,647,cs),
(319,647,o),
(355,590,o),
(355,467,cs),
(355,343,o),
(317,286,o),
(252,286,cs)
);
}
);
width = 498;
}
);
metricLeft = "te-canadian";
metricRight = "=|ke-canadian";
note = uni146D;
unicode = 5229;
},
{
glyphname = "ko-canadian";
lastChange = "2023-01-13 15:31:28 +0000";
layers = (
{
anchors = (
{
name = middle_center_can;
pos = (258,375);
},
{
name = top_center_can;
pos = (245,714);
},
{
name = top_double;
pos = (393,714);
},
{
name = top_left_can;
pos = (97,714);
},
{
name = top_right_can;
pos = (393,714);
}
);
layerId = "7D3FB2DB-72C7-4646-AA25-FB3BBECA0225";
shapes = (
{
closed = 1;
nodes = (
(371,-13,o),
(439,81,o),
(439,252,cs),
(439,714,l),
(346,714,l),
(346,386,l),
(355,411,l),
(344,467,o),
(297,509,o),
(234,509,cs),
(122,509,o),
(51,411,o),
(51,246,cs),
(51,83,o),
(122,-13,o),
(247,-13,cs)
);
},
{
closed = 1;
nodes = (
(179,67,o),
(142,124,o),
(142,247,cs),
(142,371,o),
(180,428,o),
(245,428,cs),
(309,428,o),
(348,371,o),
(348,247,cs),
(348,123,o),
(311,67,o),
(245,67,cs)
);
}
);
width = 497;
}
);
metricLeft = "ke-canadian";
metricRight = "te-canadian";
note = uni146F;
unicode = 5231;
},
{
glyphname = "ka-canadian";
lastChange = "2023-01-13 15:28:11 +0000";
layers = (
{
anchors = (
{
name = middle_center_can;
pos = (265,377);
},
{
name = top_center_can;
pos = (253,714);
},
{
name = top_left_can;
pos = (105,714);
},
{
name = top_right_can;
pos = (401,714);
}
);
layerId = "7D3FB2DB-72C7-4646-AA25-FB3BBECA0225";
shapes = (
{
closed = 1;
nodes = (
(374,-13,o),
(447,83,o),
(447,250,cs),
(447,411,o),
(376,509,o),
(264,509,cs),
(200,509,o),
(154,467,o),
(143,411,c),
(152,386,l),
(152,714,l),
(58,714,l),
(58,252,ls),
(58,81,o),
(125,-13,o),
(250,-13,cs)
);
},
{
closed = 1;
nodes = (
(186,67,o),
(150,123,o),
(150,247,cs),
(150,371,o),
(188,428,o),
(252,428,cs),
(317,428,o),
(355,371,o),
(355,247,cs),
(355,124,o),
(319,67,o),
(252,67,cs)
);
}
);
width = 498;
}
);
metricLeft = "te-canadian";
metricRight = "==|ke-canadian";
note = uni1472;
unicode = 5234;
},
{
glyphname = "k-canadian";
kernLeft = mwestleft;
kernRight = mwestright;
lastChange = "2023-01-13 15:28:11 +0000";
layers = (
{
layerId = "7D3FB2DB-72C7-4646-AA25-FB3BBECA0225";
shapes = (
{
closed = 1;
nodes = (
(220,351,o),
(268,396,o),
(268,491,cs),
(268,576,o),
(226,622,o),
(173,622,cs),
(133,622,o),
(104,594,o),
(99,548,c),
(115,548,l),
(115,714,l),
(51,714,l),
(51,486,ls),
(51,401,o),
(93,351,o),
(160,351,cs)
);
},
{
closed = 1;
nodes = (
(129,400,o),
(110,423,o),
(110,487,cs),
(110,548,o),
(131,573,o),
(160,573,cs),
(189,573,o),
(210,549,o),
(210,487,cs),
(210,425,o),
(190,400,o),
(160,400,cs)
);
}
);
width = 309;
}
);
note = uni1483;
unicode = 5251;
},
{
glyphname = "kw-canadian";
kernLeft = mwestleft;
kernRight = mwestright;
lastChange = "2023-01-13 15:28:11 +0000";
layers = (
{
layerId = "7D3FB2DB-72C7-4646-AA25-FB3BBECA0225";
shapes = (
{
closed = 1;
nodes = (
(216,351,o),
(258,401,o),
(258,486,cs),
(258,714,l),
(194,714,l),
(194,548,l),
(210,548,l),
(205,594,o),
(175,622,o),
(136,622,cs),
(82,622,o),
(41,576,o),
(41,491,cs),
(41,396,o),
(89,351,o),
(148,351,cs)
);
},
{
closed = 1;
nodes = (
(119,400,o),
(99,425,o),
(99,487,cs),
(99,549,o),
(120,573,o),
(148,573,cs),
(178,573,o),
(198,548,o),
(198,487,cs),
(198,423,o),
(179,400,o),
(148,400,cs)
);
}
);
width = 309;
}
);
metricLeft = "=|k-canadian";
metricRight = "=|k-canadian";
note = uni1484;
unicode = 5252;
},
{
glyphname = "ce-canadian";
kernLeft = celeft;
lastChange = "2023-01-13 15:31:28 +0000";
layers = (
{
anchors = (
{
name = middle_center_can;
pos = (254,417);
},
{
name = top_center_can;
pos = (243,714);
},
{
name = top_left_can;
pos = (96,714);
},
{
name = top_right_can;
pos = (387,714);
}
);
layerId = "7D3FB2DB-72C7-4646-AA25-FB3BBECA0225";
shapes = (
{
closed = 1;
nodes = (
(433,0,l),
(433,480,ls),
(433,634,o),
(367,727,o),
(243,727,cs),
(120,727,o),
(49,638,o),
(49,484,cs),
(49,401,l),
(142,401,l),
(142,500,ls),
(142,592,o),
(175,645,o),
(242,645,cs),
(306,645,o),
(340,593,o),
(340,496,cs),
(340,0,l)
);
}
);
width = 491;
}
);
metricRight = "te-canadian";
note = uni1489;
unicode = 5257;
},
{
glyphname = "ci-canadian";
kernRight = ciright;
lastChange = "2023-01-13 15:28:11 +0000";
layers = (
{
anchors = (
{
name = middle_center_can;
pos = (263,417);
},
{
name = top_center_can;
pos = (252,714);
},
{
name = top_left_can;
pos = (106,714);
},
{
name = top_right_can;
pos = (398,714);
}
);
layerId = "7D3FB2DB-72C7-4646-AA25-FB3BBECA0225";
shapes = (
{
closed = 1;
nodes = (
(152,0,l),
(152,496,ls),
(152,593,o),
(186,645,o),
(250,645,cs),
(317,645,o),
(350,592,o),
(350,500,cs),
(350,401,l),
(443,401,l),
(443,484,ls),
(443,638,o),
(372,727,o),
(251,727,cs),
(125,727,o),
(58,634,o),
(58,479,cs),
(58,0,l)
);
}
);
width = 492;
}
);
metricLeft = "te-canadian";
metricRight = "=|ce-canadian";
note = uni148B;
unicode = 5259;
},
{
glyphname = "co-canadian";
kernLeft = coleft;
lastChange = "2023-01-13 15:31:28 +0000";
layers = (
{
anchors = (
{
name = middle_center_can;
pos = (254,417);
},
{
name = top_center_can;
pos = (242,714);
},
{
name = top_double;
pos = (387,714);
},
{
name = top_left_can;
pos = (96,714);
},
{
name = top_right_can;
pos = (387,714);
}
);
layerId = "7D3FB2DB-72C7-4646-AA25-FB3BBECA0225";
shapes = (
{
closed = 1;
nodes = (
(366,-13,o),
(433,80,o),
(433,235,cs),
(433,714,l),
(340,714,l),
(340,218,ls),
(340,121,o),
(306,69,o),
(242,69,cs),
(175,69,o),
(142,122,o),
(142,214,cs),
(142,313,l),
(49,313,l),
(49,230,ls),
(49,76,o),
(120,-13,o),
(245,-13,cs)
);
}
);
width = 491;
}
);
metricLeft = "ce-canadian";
metricRight = "te-canadian";
note = uni148D;
unicode = 5261;
},
{
glyphname = "ca-canadian";
kernRight = caright;
lastChange = "2023-01-13 15:28:11 +0000";
layers = (
{
anchors = (
{
name = middle_center_can;
pos = (263,417);
},
{
name = top_center_can;
pos = (252,714);
},
{
name = top_left_can;
pos = (106,714);
},
{
name = top_right_can;
pos = (397,714);
}
);
layerId = "7D3FB2DB-72C7-4646-AA25-FB3BBECA0225";
shapes = (
{
closed = 1;
nodes = (
(372,-13,o),
(443,76,o),
(443,230,cs),
(443,313,l),
(350,313,l),
(350,214,ls),
(350,122,o),
(317,69,o),
(250,69,cs),
(186,69,o),
(152,121,o),
(152,218,cs),
(152,714,l),
(58,714,l),
(58,234,ls),
(58,80,o),
(125,-13,o),
(249,-13,cs)
);
}
);
width = 492;
}
);
metricLeft = "te-canadian";
metricRight = "=|ce-canadian";
note = uni1490;
unicode = 5264;
},
{
glyphname = "c-canadian";
kernLeft = mwestleft;
kernRight = mwestright;
lastChange = "2023-01-13 15:28:11 +0000";
layers = (
{
layerId = "7D3FB2DB-72C7-4646-AA25-FB3BBECA0225";
shapes = (
{
closed = 1;
nodes = (
(226,351,o),
(269,396,o),
(269,478,cs),
(269,504,l),
(210,504,l),
(210,468,ls),
(210,426,o),
(191,403,o),
(162,403,cs),
(130,403,o),
(115,425,o),
(115,473,cs),
(115,714,l),
(51,714,l),
(51,482,ls),
(51,396,o),
(91,351,o),
(161,351,cs)
);
}
);
width = 299;
}
);
note = uni14A1;
unicode = 5281;
},
{
glyphname = "thSayisi-canadian";
lastChange = "2023-01-13 15:31:28 +0000";
layers = (
{
layerId = "7D3FB2DB-72C7-4646-AA25-FB3BBECA0225";
shapes = (
{
closed = 1;
nodes = (
(207,351,o),
(247,396,o),
(247,482,cs),
(247,714,l),
(184,714,l),
(184,473,ls),
(184,425,o),
(168,403,o),
(136,403,cs),
(107,403,o),
(89,426,o),
(89,468,cs),
(89,504,l),
(30,504,l),
(30,478,ls),
(30,396,o),
(73,351,o),
(140,351,cs)
);
}
);
width = 298;
}
);
metricLeft = "=|c-canadian";
metricRight = "=|c-canadian";
note = uni14A2;
unicode = 5282;
},
{
glyphname = "me-canadian";
kernLeft = meleft;
lastChange = "2023-01-13 15:28:11 +0000";
layers = (
{
anchors = (
{
name = middle_center_can;
pos = (163,357);
},
{
name = top_center_can;
pos = (212,714);
},
{
name = top_left_can;
pos = (80,714);
},
{
name = top_right_can;
pos = (338,714);
}
);
layerId = "7D3FB2DB-72C7-4646-AA25-FB3BBECA0225";
shapes = (
{
closed = 1;
nodes = (
(384,0,l),
(384,714,l),
(34,714,l),
(34,628,l),
(291,628,l),
(291,0,l)
);
}
);
width = 446;
}
);
metricRight = "nunavuth-canadian";
note = uni14A3;
unicode = 5283;
},
{
glyphname = "mi-canadian";
kernRight = miright;
lastChange = "2023-01-13 15:28:11 +0000";
layers = (
{
anchors = (
{
name = middle_center_can;
pos = (284,357);
},
{
name = top_center_can;
pos = (237,714);
},
{
name = top_left_can;
pos = (109,714);
},
{
name = top_right_can;
pos = (365,714);
}
);
layerId = "7D3FB2DB-72C7-4646-AA25-FB3BBECA0225";
shapes = (
{
closed = 1;
nodes = (
(155,0,l),
(155,628,l),
(412,628,l),
(412.002,714,l),
(62,714,l),
(62,0,l)
);
}
);
width = 446;
}
);
metricLeft = "nunavuth-canadian";
metricRight = "=|me-canadian";
note = uni14A5;
unicode = 5285;
},
{
glyphname = "mo-canadian";
kernLeft = moleft;
lastChange = "2023-01-13 15:28:11 +0000";
layers = (
{
anchors = (
{
name = middle_center_can;
pos = (163,357);
},
{
name = top_center_can;
pos = (212,714);
},
{
name = top_double;
pos = (338,714);
},
{
name = top_left_can;
pos = (80,714);
},
{
name = top_right_can;
pos = (338,714);
}
);
layerId = "7D3FB2DB-72C7-4646-AA25-FB3BBECA0225";
shapes = (
{
closed = 1;
nodes = (
(384,0,l),
(384,714,l),
(291,714,l),
(291,86,l),
(34,86,l),
(34,0,l)
);
}
);
width = 446;
}
);
metricLeft = "me-canadian";
metricRight = "nunavuth-canadian";
note = uni14A7;
unicode = 5287;
},
{
glyphname = "ma-canadian";
kernRight = maright;
lastChange = "2023-01-13 15:28:11 +0000";
layers = (
{
anchors = (
{
name = middle_center_can;
pos = (284,357);
},
{
name = top_center_can;
pos = (237,714);
},
{
name = top_left_can;
pos = (109,714);
},
{
name = top_right_can;
pos = (365,714);
}
);
layerId = "7D3FB2DB-72C7-4646-AA25-FB3BBECA0225";
shapes = (
{
closed = 1;
nodes = (
(412.002,0,l),
(412,86,l),
(155,86,l),
(155,714,l),
(62,714,l),
(62,0,l)
);
}
);
width = 446;
}
);
metricLeft = "nunavuth-canadian";
metricRight = "=|me-canadian";
note = uni14AA;
unicode = 5290;
},
{
glyphname = "m-canadian";
kernLeft = mwestleft;
kernRight = mwestright;
lastChange = "2023-01-13 15:28:11 +0000";
layers = (
{
layerId = "7D3FB2DB-72C7-4646-AA25-FB3BBECA0225";
shapes = (
{
closed = 1;
nodes = (
(244,418,l),
(115,418,l),
(115,714,l),
(51,714,l),
(51,357,l),
(244,357,l)
);
}
);
width = 275;
}
);
metricLeft = "pWestCree-canadian";
note = uni14BB;
unicode = 5307;
},
{
glyphname = "mh-canadian";
kernLeft = mwestleft;
kernRight = mwestright;
lastChange = "2023-01-13 15:28:11 +0000";
layers = (
{
layerId = "7D3FB2DB-72C7-4646-AA25-FB3BBECA0225";
shapes = (
{
closed = 1;
nodes = (
(224,357,l),
(224,714,l),
(160,714,l),
(160,418,l),
(31,418,l),
(31,357,l)
);
}
);
width = 275;
}
);
metricLeft = "=|m-canadian";
metricRight = "=|m-canadian";
note = uni14BD;
unicode = 5309;
},
{
glyphname = "mAthapascan-canadian";
lastChange = "2023-01-13 15:28:11 +0000";
layers = (
{
layerId = "7D3FB2DB-72C7-4646-AA25-FB3BBECA0225";
shapes = (
{
closed = 1;
nodes = (
(255,357,l),
(255,413,l),
(118,413,l),
(120,384,l),
(202,495,ls),
(235,540,o),
(245,578,o),
(245,615,cs),
(245,675,o),
(213,720,o),
(148,720,cs),
(80,720,o),
(44,672,o),
(43,595,c),
(101,595,l),
(101,651,o),
(116,672,o),
(146,672,cs),
(174,672,o),
(187,652,o),
(187,614,cs),
(187,585,o),
(184,561,o),
(149,514,cs),
(56,390,l),
(56,357,l)
);
}
);
width = 295;
}
);
note = uni14BE;
unicode = 5310;
},
{
glyphname = "ne-canadian";
kernLeft = neleft;
lastChange = "2023-01-13 15:28:11 +0000";
layers = (
{
anchors = (
{
name = middle_center_can;
pos = (426,254);
},
{
name = top_center_can;
pos = (415,514);
},
{
name = top_left_can;
pos = (94,514);
},
{
name = top_right_can;
pos = (580,514);
}
);
layerId = "7D3FB2DB-72C7-4646-AA25-FB3BBECA0225";
shapes = (
{
closed = 1;
nodes = (
(547,-13,o),
(625,74,o),
(625,241,cs),
(625,409,o),
(548,495,o),
(414,495,cs),
(48,495,l),
(48,410,l),
(309,410,l),
(304,433,l),
(255,399,o),
(229,321,o),
(229,237,cs),
(229,74,o),
(304,-13,o),
(427,-13,cs)
);
},
{
closed = 1;
nodes = (
(358,67,o),
(321,123,o),
(321,241,cs),
(321,354,o),
(359,415,o),
(427,415,cs),
(495,415,o),
(533,360,o),
(533,241,cs),
(533,123,o),
(496,67,o),
(427,67,cs)
);
}
);
width = 676;
}
);
metricRight = "=|ke-canadian";
note = uni14C0;
unicode = 5312;
},
{
glyphname = "ni-canadian";
kernRight = niright;
lastChange = "2023-01-13 15:28:11 +0000";
layers = (
{
anchors = (
{
name = middle_center_can;
pos = (250,254);
},
{
name = top_center_can;
pos = (262,514);
},
{
name = top_left_can;
pos = (97,514);
},
{
name = top_right_can;
pos = (582,514);
}
);
layerId = "7D3FB2DB-72C7-4646-AA25-FB3BBECA0225";
shapes = (
{
closed = 1;
nodes = (
(371,-13,o),
(447,74,o),
(447,237,cs),
(447,321,o),
(421,399,o),
(372,434,c),
(367,410,l),
(628,410,l),
(628,495,l),
(262,495,ls),
(127,495,o),
(51,406,o),
(51,240,cs),
(51,74,o),
(129,-13,o),
(249,-13,cs)
);
},
{
closed = 1;
nodes = (
(180,67,o),
(142,123,o),
(142,242,cs),
(142,361,o),
(181,416,o),
(249,416,cs),
(317,416,o),
(355,355,o),
(355,242,cs),
(355,123,o),
(318,67,o),
(249,67,cs)
);
}
);
width = 676;
}
);
metricLeft = "ke-canadian";
metricRight = "=|ne-canadian";
note = uni14C2;
unicode = 5314;
},
{
glyphname = "no-canadian";
kernLeft = noleft;
lastChange = "2023-01-13 15:28:11 +0000";
layers = (
{
anchors = (
{
name = middle_center_can;
pos = (425,254);
},
{
name = top_center_can;
pos = (424,514);
},
{
name = top_double;
pos = (427,514);
},
{
name = top_left_can;
pos = (94,514);
},
{
name = top_right_can;
pos = (580,514);
}
);
layerId = "7D3FB2DB-72C7-4646-AA25-FB3BBECA0225";
shapes = (
{
closed = 1;
nodes = (
(414,0,ls),
(548,0,o),
(625,87,o),
(625,254,cs),
(625,421,o),
(547,509,o),
(427,509,cs),
(304,509,o),
(229,421,o),
(229,258,cs),
(229,174,o),
(255,96,o),
(304,62,c),
(309,85,l),
(48,85,l),
(48,0,l)
);
},
{
closed = 1;
nodes = (
(359,79,o),
(321,140,o),
(321,253,cs),
(321,372,o),
(358,428,o),
(427,428,cs),
(496,428,o),
(533,373,o),
(533,253,cs),
(533,134,o),
(495,79,o),
(427,79,cs)
);
}
);
width = 676;
}
);
metricLeft = "ne-canadian";
metricRight = "=|ke-canadian";
note = uni14C4;
unicode = 5316;
},
{
glyphname = "na-canadian";
kernRight = naright;
lastChange = "2023-01-13 15:28:11 +0000";
layers = (
{
anchors = (
{
name = middle_center_can;
pos = (250,254);
},
{
name = top_center_can;
pos = (251,514);
},
{
name = top_double;
pos = (384,514);
},
{
name = top_left_can;
pos = (97,514);
},
{
name = top_right_can;
pos = (582,514);
}
);
layerId = "7D3FB2DB-72C7-4646-AA25-FB3BBECA0225";
shapes = (
{
closed = 1;
nodes = (
(628,0,l),
(628,85,l),
(367,85,l),
(372,62,l),
(421,96,o),
(447,174,o),
(447,258,cs),
(447,421,o),
(371,509,o),
(249,509,cs),
(129,509,o),
(51,421,o),
(51,254,cs),
(51,87,o),
(127,0,o),
(262,0,cs)
);
},
{
closed = 1;
nodes = (
(181,79,o),
(142,134,o),
(142,253,cs),
(142,373,o),
(180,428,o),
(249,428,cs),
(318,428,o),
(355,372,o),
(355,253,cs),
(355,140,o),
(317,79,o),
(249,79,cs)
);
}
);
width = 676;
}
);
metricLeft = "ke-canadian";
metricRight = "=|ne-canadian";
note = uni14C7;
unicode = 5319;
},
{
glyphname = "n-canadian";
kernLeft = mwestleft;
kernRight = mwestright;
lastChange = "2023-01-13 15:28:11 +0000";
layers = (
{
layerId = "7D3FB2DB-72C7-4646-AA25-FB3BBECA0225";
shapes = (
{
closed = 1;
nodes = (
(356,449,l),
(356,510,l),
(211,510,l),
(214,482,l),
(240,496,o),
(255,540,o),
(255,588,cs),
(255,672,o),
(215,720,o),
(148,720,cs),
(82,720,o),
(41,671,o),
(41,585,cs),
(41,500,o),
(82,449,o),
(153,449,cs)
);
},
{
closed = 1;
nodes = (
(117,498,o),
(98,525,o),
(98,585,cs),
(98,645,o),
(117,671,o),
(149,671,cs),
(180,671,o),
(197,644,o),
(197,585,cs),
(197,525,o),
(179,498,o),
(148,498,cs)
);
}
);
width = 387;
}
);
metricLeft = "=|k-canadian";
note = uni14D0;
unicode = 5328;
},
{
glyphname = "nh-canadian";
kernLeft = mwestleft;
kernRight = mwestright;
lastChange = "2023-01-13 15:28:11 +0000";
layers = (
{
layerId = "7D3FB2DB-72C7-4646-AA25-FB3BBECA0225";
shapes = (
{
closed = 1;
nodes = (
(234,449,ls),
(305,449,o),
(346,500,o),
(346,585,cs),
(346,671,o),
(305,720,o),
(239,720,cs),
(172,720,o),
(132,672,o),
(132,588,cs),
(132,540,o),
(147,496,o),
(173,482,c),
(176,510,l),
(31,510,l),
(31,449,l)
);
},
{
closed = 1;
nodes = (
(208,498,o),
(189,525,o),
(189,585,cs),
(189,644,o),
(207,671,o),
(238,671,cs),
(269,671,o),
(289,645,o),
(289,585,cs),
(289,525,o),
(269,498,o),
(239,498,cs)
);
}
);
width = 387;
}
);
metricLeft = "=|n-canadian";
metricRight = "=|n-canadian";
note = uni14D2;
unicode = 5330;
},
{
glyphname = "le-canadian";
kernLeft = neleft;
lastChange = "2023-01-13 15:28:11 +0000";
layers = (
{
anchors = (
{
name = middle_center_can;
pos = (426,254);
},
{
name = top_center_can;
pos = (417,514);
},
{
name = top_left_can;
pos = (94,514);
},
{
name = top_right_can;
pos = (579,514);
}
);
layerId = "7D3FB2DB-72C7-4646-AA25-FB3BBECA0225";
shapes = (
{
closed = 1;
nodes = (
(392,0,ls),
(537,0,o),
(625,86,o),
(625,247,cs),
(625,408,o),
(540,495,o),
(391,495,cs),
(48,495,l),
(48,410,l),
(387,410,ls),
(481,410,o),
(532,355,o),
(532,246,cs),
(532,138,o),
(482,83,o),
(384,83,cs),
(368,83,l),
(368,0,l)
);
}
);
width = 676;
}
);
metricLeft = "ne-canadian";
metricRight = "=|ke-canadian";
note = uni14D3;
unicode = 5331;
},
{
glyphname = "li-canadian";
kernRight = niright;
lastChange = "2023-01-13 15:28:11 +0000";
layers = (
{
anchors = (
{
name = middle_center_can;
pos = (250,254);
},
{
name = top_center_can;
pos = (262,514);
},
{
name = top_left_can;
pos = (97,514);
},
{
name = top_right_can;
pos = (582,514);
}
);
layerId = "7D3FB2DB-72C7-4646-AA25-FB3BBECA0225";
shapes = (
{
closed = 1;
nodes = (
(307,0,l),
(307,83,l),
(291,83,ls),
(194,83,o),
(143,138,o),
(143,246,cs),
(143,354,o),
(194,410,o),
(289,410,cs),
(628,410,l),
(628,495,l),
(285,495,ls),
(140,495,o),
(51,408,o),
(51,247,cs),
(51,86,o),
(138,0,o),
(284,0,cs)
);
}
);
width = 676;
}
);
metricLeft = "ke-canadian";
metricRight = "=|ne-canadian";
note = uni14D5;
unicode = 5333;
},
{
glyphname = "lo-canadian";
kernLeft = noleft;
lastChange = "2023-01-13 15:28:11 +0000";
layers = (
{
anchors = (
{
name = middle_center_can;
pos = (425,254);
},
{
name = top_center_can;
pos = (424,514);
},
{
name = top_double;
pos = (392,514);
},
{
name = top_left_can;
pos = (94,514);
},
{
name = top_right_can;
pos = (579,514);
}
);
layerId = "7D3FB2DB-72C7-4646-AA25-FB3BBECA0225";
shapes = (
{
closed = 1;
nodes = (
(391,0,ls),
(536,0,o),
(625,87,o),
(625,248,cs),
(625,409,o),
(537,495,o),
(392,495,cs),
(368,495,l),
(368,412,l),
(384,412,ls),
(482,412,o),
(532,357,o),
(532,249,cs),
(532,140,o),
(481,85,o),
(387,85,cs),
(48,85,l),
(48,0,l)
);
}
);
width = 676;
}
);
metricLeft = "ne-canadian";
metricRight = "=|ke-canadian";
note = uni14D7;
unicode = 5335;
},
{
glyphname = "la-canadian";
kernRight = naright;
lastChange = "2023-01-13 15:28:11 +0000";
layers = (
{
anchors = (
{
name = middle_center_can;
pos = (250,254);
},
{
name = top_center_can;
pos = (251,514);
},
{
name = top_left_can;
pos = (97,514);
},
{
name = top_right_can;
pos = (582,514);
}
);
layerId = "7D3FB2DB-72C7-4646-AA25-FB3BBECA0225";
shapes = (
{
closed = 1;
nodes = (
(628,0,l),
(628,85,l),
(289,85,ls),
(194,85,o),
(143,140,o),
(143,249,cs),
(143,357,o),
(194,412,o),
(291,412,cs),
(307,412,l),
(307,495,l),
(284,495,ls),
(138,495,o),
(51,408,o),
(51,248,cs),
(51,87,o),
(139.992,0,o),
(285,0,cs)
);
}
);
width = 676;
}
);
metricLeft = "ke-canadian";
metricRight = "=|ne-canadian";
note = uni14DA;
unicode = 5338;
},
{
glyphname = "l-canadian";
kernLeft = mwestleft;
kernRight = mwestright;
lastChange = "2023-01-13 15:31:28 +0000";
layers = (
{
layerId = "7D3FB2DB-72C7-4646-AA25-FB3BBECA0225";
shapes = (
{
closed = 1;
nodes = (
(351,357,l),
(351,418,l),
(221,418,ls),
(148,418,o),
(113,458,o),
(113,535,cs),
(113,611,o),
(148,653,o),
(213,653,cs),
(219,653,l),
(219,714,l),
(209,714,ls),
(107,714,o),
(49,646,o),
(49,535,cs),
(49,424,o),
(107,357,o),
(215,357,cs)
);
}
);
width = 382;
}
);
metricLeft = "t-canadian";
metricRight = "m-canadian";
note = uni14EA;
unicode = 5354;
},
{
glyphname = "lWestCree-canadian";
kernLeft = mwestleft;
kernRight = mwestright;
lastChange = "2023-01-13 15:28:11 +0000";
layers = (
{
layerId = "7D3FB2DB-72C7-4646-AA25-FB3BBECA0225";
shapes = (
{
closed = 1;
nodes = (
(249,357,l),
(249,401,l),
(95,478,l),
(95,446,l),
(249,520,l),
(249,551,l),
(95,626,l),
(95,593,l),
(249,669,l),
(249,714,l),
(238,714,l),
(51,622,l),
(51,597,l),
(206,523,l),
(206,547,l),
(51,474,l),
(51,449,l),
(238,357,l)
);
}
);
width = 300;
}
);
metricRight = "=|";
note = uni14EB;
unicode = 5355;
},
{
glyphname = "mediall-canadian";
lastChange = "2023-01-13 15:28:11 +0000";
layers = (
{
layerId = "7D3FB2DB-72C7-4646-AA25-FB3BBECA0225";
shapes = (
{
closed = 1;
nodes = (
(471,-13,l),
(471,57,l),
(138,220,l),
(138,179,l),
(471,336,l),
(471,378,l),
(138,535,l),
(138,494,l),
(471,657,l),
(471,727,l),
(447,727,l),
(57,536,l),
(57,497,l),
(391,340,l),
(391,374,l),
(57,217,l),
(57,178,l),
(447,-13,l)
);
}
);
width = 528;
}
);
metricRight = "=|";
note = uni14EC;
unicode = 5356;
},
{
glyphname = "se-canadian";
kernRight = seright;
lastChange = "2023-01-13 15:28:11 +0000";
layers = (
{
anchors = (
{
name = top_left_can;
pos = (107,714);
},
{
name = top_right_can;
pos = (345,714);
}
);
layerId = "7D3FB2DB-72C7-4646-AA25-FB3BBECA0225";
shapes = (
{
closed = 1;
nodes = (
(392,0,l),
(392,343,l),
(355,343,ls),
(220,343,o),
(154,403,o),
(154,572,cs),
(154,714,l),
(60,714,l),
(60,566,ls),
(60,358,o),
(158,258,o),
(338,258,cs),
(369,258,l),
(299,290,l),
(299,0,l)
);
}
);
width = 454;
}
);
note = uni14ED;
unicode = 5357;
},
{
glyphname = "si-canadian";
kernLeft = sileft;
lastChange = "2023-01-13 15:28:11 +0000";
layers = (
{
anchors = (
{
name = top_left_can;
pos = (109,714);
},
{
name = top_right_can;
pos = (348,714);
}
);
layerId = "7D3FB2DB-72C7-4646-AA25-FB3BBECA0225";
shapes = (
{
closed = 1;
nodes = (
(156,0,l),
(156,290,l),
(86,258,l),
(116,258,ls),
(297,258,o),
(394,358,o),
(394,566,cs),
(394,714,l),
(300,714,l),
(300,572,ls),
(300,403,o),
(234,343,o),
(99,343,cs),
(62,343,l),
(62,0,l)
);
}
);
width = 454;
}
);
metricLeft = "=|se-canadian";
metricRight = "=|se-canadian";
note = uni14EF;
unicode = 5359;
},
{
glyphname = "so-canadian";
kernRight = soright;
lastChange = "2023-01-13 15:28:11 +0000";
layers = (
{
anchors = (
{
name = top_double;
pos = (346,714);
},
{
name = top_left_can;
pos = (108,714);
},
{
name = top_right_can;
pos = (345,714);
}
);
layerId = "7D3FB2DB-72C7-4646-AA25-FB3BBECA0225";
shapes = (
{
closed = 1;
nodes = (
(154,0,l),
(154,142,ls),
(154,311,o),
(220,371,o),
(355,371,cs),
(392,371,l),
(392,714,l),
(299,714,l),
(299,424,l),
(369,456,l),
(338,456,ls),
(158,456,o),
(60,356,o),
(60,148,cs),
(60,0,l)
);
}
);
width = 454;
}
);
metricLeft = "se-canadian";
metricRight = "se-canadian";
note = uni14F1;
unicode = 5361;
},
{
glyphname = "sa-canadian";
kernLeft = saleft;
kernRight = saright;
lastChange = "2023-01-13 15:28:11 +0000";
layers = (
{
anchors = (
{
name = top_left_can;
pos = (109,714);
},
{
name = top_right_can;
pos = (348,714);
}
);
layerId = "7D3FB2DB-72C7-4646-AA25-FB3BBECA0225";
shapes = (
{
closed = 1;
nodes = (
(394,0,l),
(394,148,ls),
(394,356,o),
(297,456,o),
(116,456,cs),
(86,456,l),
(156,424,l),
(156,714,l),
(62,714,l),
(62,371,l),
(99,371,ls),
(234,371,o),
(300,311,o),
(300,142,cs),
(300,0,l)
);
}
);
width = 454;
}
);
metricLeft = "=|se-canadian";
metricRight = "=|se-canadian";
note = uni14F4;
unicode = 5364;
},
{
glyphname = "s-canadian";
kernLeft = mwestleft;
kernRight = mwestright;
lastChange = "2023-01-13 15:28:11 +0000";
layers = (
{
layerId = "7D3FB2DB-72C7-4646-AA25-FB3BBECA0225";
shapes = (
{
closed = 1;
nodes = (
(244,357,l),
(244,436,ls),
(244,540,o),
(192,595,o),
(105,595,cs),
(75,595,l),
(115,568,l),
(115,714,l),
(51,714,l),
(51,543,l),
(83,543,ls),
(150,543,o),
(180,509,o),
(180,433,cs),
(180,357,l)
);
}
);
width = 295;
}
);
metricRight = "=|";
note = uni1505;
unicode = 5381;
},
{
color = 6;
glyphname = "sAthapascan-canadian";
lastChange = "2023-01-13 15:31:28 +0000";
layers = (
{
layerId = "7D3FB2DB-72C7-4646-AA25-FB3BBECA0225";
shapes = (
{
closed = 1;
nodes = (
(232,183,o),
(272,226,o),
(272,282,cs),
(272,327,o),
(251,358,o),
(203,379,cs),
(153,400,ls),
(123,414,o),
(114,429,o),
(114,454,cs),
(114,484,o),
(131,503,o),
(163,503,cs),
(195,503,o),
(215,488,o),
(214,440,c),
(272,440,l),
(273,510,o),
(234,552,o),
(163.003,552,cs),
(97,552,o),
(56,510,o),
(56,453,cs),
(56,407,o),
(77,375,o),
(122,356,cs),
(172,334,ls),
(201,321,o),
(213,306,o),
(213,279,cs),
(213,248,o),
(194,232,o),
(163,232,cs),
(129,232,o),
(109,248,o),
(110,297,c),
(51,297,l),
(50,223,o),
(91,183,o),
(162,183,cs)
);
}
);
width = 323;
}
);
metricRight = "=|";
note = uni1506;
unicode = 5382;
},
{
glyphname = "sw-canadian";
kernLeft = mwestleft;
kernRight = mwestright;
lastChange = "2023-01-13 15:28:11 +0000";
layers = (
{
layerId = "7D3FB2DB-72C7-4646-AA25-FB3BBECA0225";
shapes = (
{
closed = 1;
nodes = (
(115,357,l),
(115,433,ls),
(115,509,o),
(145,543,o),
(212,543,cs),
(244,543,l),
(244,714,l),
(180,714,l),
(180,568,l),
(220,595,l),
(190,595,ls),
(103,595,o),
(51,540,o),
(51,436,cs),
(51,357,l)
);
}
);
width = 295;
}
);
metricLeft = "=|s-canadian";
metricRight = "=|s-canadian";
note = uni1507;
unicode = 5383;
},
{
glyphname = "sBlackfoot-canadian";
lastChange = "2023-01-13 15:28:11 +0000";
layers = (
{
layerId = "7D3FB2DB-72C7-4646-AA25-FB3BBECA0225";
shapes = (
{
closed = 1;
nodes = (
(251,357,l),
(251,418,l),
(186,418,ls),
(133,418,o),
(115,440,o),
(115,496,cs),
(115,714,l),
(51,714,l),
(51,487,ls),
(51,402,o),
(92,357,o),
(177,357,c)
);
}
);
width = 282;
}
);
metricLeft = "ai-canadian";
metricRight = "m-canadian";
note = uni1508;
unicode = 5384;
},
{
glyphname = "moosecreesk-canadian";
kernLeft = mwestleft;
kernRight = mwestright;
lastChange = "2023-01-13 15:28:11 +0000";
layers = (
{
layerId = "7D3FB2DB-72C7-4646-AA25-FB3BBECA0225";
shapes = (
{
closed = 1;
nodes = (
(222,225,o),
(268,271,o),
(268,380,cs),
(268,525,o),
(213,596,o),
(100,596,cs),
(84,596,l),
(115,568,l),
(115,714,l),
(51,714,l),
(51,544,l),
(83,544,ls),
(171,544,o),
(196,506,o),
(203,431,c),
(220,424,l),
(214,463,o),
(187,494,o),
(151,494,cs),
(92,494,o),
(52,445,o),
(52,362,cs),
(52,270,o),
(101,225,o),
(159,225,cs)
);
},
{
closed = 1;
nodes = (
(130,273,o),
(109,300,o),
(109,361,cs),
(109,422,o),
(130,448,o),
(159,448,cs),
(188,448,o),
(209,421,o),
(209,361,cs),
(209,298,o),
(190,273,o),
(159,273,cs)
);
}
);
width = 319;
}
);
metricRight = "=|";
note = uni1509;
unicode = 5385;
},
{
glyphname = "skwNaskapi-canadian";
kernLeft = mwestleft;
kernRight = mwestright;
lastChange = "2023-01-13 15:28:11 +0000";
layers = (
{
layerId = "7D3FB2DB-72C7-4646-AA25-FB3BBECA0225";
shapes = (
{
closed = 1;
nodes = (
(218,225,o),
(267,270,o),
(267,362,cs),
(267,445,o),
(226,494,o),
(168,494,cs),
(132,494,o),
(105,463,o),
(98,424,c),
(116,431,l),
(122,506,o),
(147,544,o),
(236,544,cs),
(268,544,l),
(268,714,l),
(204,714,l),
(204,568,l),
(234,596,l),
(218,596,ls),
(106,596,o),
(51,525,o),
(51,380,cs),
(51,271,o),
(96,225,o),
(159,225,cs)
);
},
{
closed = 1;
nodes = (
(128,273,o),
(109,298,o),
(109,361,cs),
(109,421,o),
(130,448,o),
(159,448,cs),
(188,448,o),
(210,422,o),
(210,361,cs),
(210,300,o),
(189,273,o),
(159,273,cs)
);
}
);
width = 319;
}
);
metricLeft = "=|moosecreesk-canadian";
metricRight = "=|moosecreesk-canadian";
note = uni150A;
unicode = 5386;
},
{
glyphname = "swNaskapi-canadian";
lastChange = "2023-01-13 15:28:11 +0000";
layers = (
{
layerId = "7D3FB2DB-72C7-4646-AA25-FB3BBECA0225";
shapes = (
{
closed = 1;
nodes = (
(263,188,l),
(263,257,ls),
(263,358,o),
(211,416,o),
(124,416,cs),
(94,416,l),
(128,389,l),
(128,527,l),
(65,527,l),
(65,365,l),
(106,365,ls),
(169,365,o),
(199,330,o),
(199,254,cs),
(199,188,l)
);
},
{
closed = 1;
nodes = (
(260,47,o),
(283,70,o),
(283,99,cs),
(283,129,o),
(259,152,o),
(231,152,cs),
(203,152,o),
(179,129,o),
(179,99,cs),
(179,70,o),
(202,47,o),
(231,47,cs)
);
},
{
closed = 1;
nodes = (
(124,562,o),
(148,585,o),
(148,615,cs),
(148,644,o),
(125,668,o),
(96,668,cs),
(68,668,o),
(44,644,o),
(44,615,cs),
(44,585,o),
(68,562,o),
(96,562,cs)
);
}
);
width = 327;
}
);
metricRight = "=|";
note = uni150B;
unicode = 5387;
},
{
glyphname = "spwaNaskapi-canadian";
lastChange = "2023-01-13 15:28:11 +0000";
layers = (
{
layerId = "7D3FB2DB-72C7-4646-AA25-FB3BBECA0225";
shapes = (
{
closed = 1;
nodes = (
(503,0,l),
(503,86,l),
(120,378,l),
(120,335,l),
(503,627,l),
(503,714,l),
(479,714,l),
(30,374,l),
(30,340,l),
(479,0,l)
);
},
{
closed = 1;
nodes = (
(141,515,o),
(165,538,o),
(165,567,cs),
(165,597,o),
(141,620,o),
(113,620,cs),
(85,620,o),
(61,597,o),
(61,567,cs),
(61,538,o),
(85,515,o),
(113,515,cs)
);
},
{
closed = 1;
nodes = (
(297,625,l),
(297,683,ls),
(297,755,o),
(262,797,o),
(191,797,cs),
(166,797,l),
(211,773,l),
(211,876,l),
(150,876,l),
(150,748,l),
(174,748,ls),
(214,748,o),
(236,728,o),
(236,677,cs),
(236,625,l)
);
},
{
closed = 1;
nodes = (
(429,729,o),
(453,753,o),
(453,782,cs),
(453,811,o),
(429,834,o),
(401,834,cs),
(373,834,o),
(350,811,o),
(350,782,cs),
(350,753,o),
(373,729,o),
(401,729,cs)
);
}
);
width = 545;
}
);
metricRight = "pa-canadian";
metricWidth = "pa-canadian";
note = uni150C;
unicode = 5388;
},
{
glyphname = "she-canadian";
kernRight = caright;
lastChange = "2023-01-13 15:28:11 +0000";
layers = (
{
anchors = (
{
name = top_left_can;
pos = (241,714);
},
{
name = top_right_can;
pos = (581,714);
}
);
layerId = "7D3FB2DB-72C7-4646-AA25-FB3BBECA0225";
shapes = (
{
closed = 1;
nodes = (
(635,-13,o),
(706,70,o),
(706,235,cs),
(706,313,l),
(613,313,l),
(613,220,ls),
(613,117,o),
(581,69,o),
(524,69,cs),
(463,69,o),
(436,116,o),
(430,226,cs),
(419,488,ls),
(412,643,o),
(360,727,o),
(238,727,cs),
(123,727,o),
(52,644,o),
(52,479,cs),
(52,401,l),
(144,401,l),
(144,495,ls),
(144,597,o),
(177,645,o),
(234,645,cs),
(295,645,o),
(322,598,o),
(327,488,cs),
(339,226,ls),
(346,71,o),
(398,-13,o),
(520,-13,cs)
);
}
);
width = 758;
}
);
metricRight = "=|";
note = uni1510;
unicode = 5392;
},
{
glyphname = "shi-canadian";
kernLeft = coleft;
lastChange = "2023-01-13 15:28:11 +0000";
layers = (
{
anchors = (
{
name = top_left_can;
pos = (179,714);
},
{
name = top_right_can;
pos = (518,714);
}
);
layerId = "7D3FB2DB-72C7-4646-AA25-FB3BBECA0225";
shapes = (
{
closed = 1;
nodes = (
(360,-13,o),
(412,71,o),
(419,226,cs),
(430,488,ls),
(436,598,o),
(463,645,o),
(524,645,cs),
(581,645,o),
(613,597,o),
(613,495,cs),
(613,401,l),
(706,401,l),
(706,479,ls),
(706,644,o),
(635,727,o),
(519,727,cs),
(398,727,o),
(346,643,o),
(339,488,cs),
(327,226,ls),
(322,116,o),
(295,69,o),
(234,69,cs),
(177,69,o),
(144,117,o),
(144,220,cs),
(144,313,l),
(52,313,l),
(52,235,ls),
(52,70,o),
(122,-13,o),
(238,-13,cs)
);
}
);
width = 758;
}
);
metricLeft = "she-canadian";
metricRight = "she-canadian";
note = uni1511;
unicode = 5393;
},
{
glyphname = "sho-canadian";
lastChange = "2023-01-13 15:28:11 +0000";
layers = (
{
anchors = (
{
name = top_center_can;
pos = (387,514);
},
{
name = top_left_can;
pos = (240,514);
},
{
name = top_right_can;
pos = (535,514);
}
);
layerId = "7D3FB2DB-72C7-4646-AA25-FB3BBECA0225";
shapes = (
{
closed = 1;
nodes = (
(305,69,l),
(198,67,o),
(143,109,o),
(143,187,cs),
(143,247,o),
(173,285,o),
(230,285,cs),
(329,285,o),
(420,126,o),
(558,126,cs),
(661,126,o),
(724,199,o),
(724,305,cs),
(724,434,o),
(630,511,o),
(473,509,c),
(470,427,l),
(577,428,o),
(632,386,o),
(632,308,cs),
(632,248,o),
(601,210,o),
(544,210,cs),
(446,210,o),
(355,370,o),
(217,370,cs),
(114,370,o),
(51,297,o),
(51,190,cs),
(51,62,o),
(144,-15,o),
(302,-13,c)
);
}
);
width = 775;
}
);
metricLeft = "ke-canadian";
metricRight = "=|ke-canadian";
note = uni1513;
unicode = 5395;
},
{
glyphname = "sha-canadian";
lastChange = "2023-01-13 15:28:11 +0000";
layers = (
{
anchors = (
{
name = top_center_can;
pos = (388,514);
},
{
name = top_left_can;
pos = (239,514);
},
{
name = top_right_can;
pos = (535,514);
}
);
layerId = "7D3FB2DB-72C7-4646-AA25-FB3BBECA0225";
shapes = (
{
closed = 1;
nodes = (
(630,-15,o),
(724,62,o),
(724,190,cs),
(724,297,o),
(661,370,o),
(558,370,cs),
(420,370,o),
(329,210,o),
(230,210,cs),
(173,210,o),
(143,248,o),
(143,308,cs),
(143,386,o),
(198,428,o),
(305,427,c),
(302,509,l),
(144,511,o),
(51,434,o),
(51,305,cs),
(51,199,o),
(113,126,o),
(217,126,cs),
(355,126,o),
(446,285,o),
(544,285,cs),
(601,285,o),
(632,247,o),
(632,187,cs),
(632,109,o),
(577,67,o),
(470,69,c),
(473,-13,l)
);
}
);
width = 775;
}
);
metricLeft = "ke-canadian";
metricRight = "=|ke-canadian";
note = uni1515;
unicode = 5397;
},
{
glyphname = "sh-canadian";
kernLeft = mwestleft;
kernRight = mwestright;
lastChange = "2023-01-13 15:28:11 +0000";
layers = (
{
layerId = "7D3FB2DB-72C7-4646-AA25-FB3BBECA0225";
shapes = (
{
closed = 1;
nodes = (
(469,299,o),
(543,356,o),
(543,453,cs),
(543,538,o),
(491,592,o),
(414,592,cs),
(317,592,o),
(255,493,o),
(184,493,cs),
(139,493,o),
(114,519,o),
(114,569,cs),
(114,626,o),
(159,662,o),
(244,662,c),
(242,722,l),
(123,722,o),
(49,665,o),
(49,568,cs),
(49,483,o),
(101,429,o),
(178,429,cs),
(275,429,o),
(336,528,o),
(408,528,cs),
(452,528,o),
(478,502,o),
(478,452,cs),
(478,395,o),
(432,359,o),
(348,359,c),
(350,299,l)
);
}
);
width = 592;
}
);
metricLeft = "t-canadian";
metricRight = "=|";
note = uni1525;
unicode = 5413;
},
{
glyphname = "ye-canadian";
kernLeft = yeleft;
lastChange = "2023-01-13 15:28:11 +0000";
layers = (
{
anchors = (
{
name = middle_right_can;
pos = (521,357);
},
{
name = top_left_can;
pos = (83,714);
},
{
name = top_right_can;
pos = (373,714);
}
);
layerId = "7D3FB2DB-72C7-4646-AA25-FB3BBECA0225";
shapes = (
{
closed = 1;
nodes = (
(419,0,l),
(419,334,l),
(152,334,l),
(158,304,l),
(438,674,l),
(371,726,l),
(37,282,l),
(37,251,l),
(326,251,l),
(326,0,l)
);
}
);
width = 479;
}
);
note = uni1526;
unicode = 5414;
},
{
glyphname = "yi-canadian";
kernRight = yiright;
lastChange = "2023-01-13 15:28:11 +0000";
layers = (
{
anchors = (
{
name = top_left_can;
pos = (107,714);
},
{
name = top_right_can;
pos = (396,714);
}
);
layerId = "7D3FB2DB-72C7-4646-AA25-FB3BBECA0225";
shapes = (
{
closed = 1;
nodes = (
(153,0,l),
(153,251,l),
(442,251,l),
(442,282,l),
(108,726,l),
(41,674,l),
(321,305,l),
(327,334,l),
(59,334,l),
(59,0,l)
);
}
);
width = 479;
}
);
metricRight = "=|ye-canadian";
metricWidth = "ye-canadian";
note = uni1528;
unicode = 5416;
},
{
glyphname = "yo-canadian";
kernLeft = yoleft;
lastChange = "2023-01-13 15:28:11 +0000";
layers = (
{
anchors = (
{
name = middle_right_can;
pos = (521,357);
},
{
name = top_double;
pos = (373,714);
},
{
name = top_left_can;
pos = (83,714);
},
{
name = top_right_can;
pos = (373,714);
}
);
layerId = "7D3FB2DB-72C7-4646-AA25-FB3BBECA0225";
shapes = (
{
closed = 1;
nodes = (
(438,40,l),
(157,409,l),
(152,380,l),
(419,380,l),
(419,714,l),
(326,714,l),
(326,463,l),
(37,463,l),
(37,432,l),
(371,-12,l)
);
}
);
width = 479;
}
);
metricLeft = "ye-canadian";
metricWidth = "ye-canadian";
note = uni152A;
unicode = 5418;
},
{
glyphname = "ya-canadian";
kernRight = yaright;
lastChange = "2023-01-13 15:28:11 +0000";
layers = (
{
anchors = (
{
name = top_left_can;
pos = (107,714);
},
{
name = top_right_can;
pos = (396,714);
}
);
layerId = "7D3FB2DB-72C7-4646-AA25-FB3BBECA0225";
shapes = (
{
closed = 1;
nodes = (
(442,432,l),
(442,463,l),
(153,463,l),
(153,714,l),
(59,714,l),
(59,380,l),
(327,380,l),
(321,410,l),
(41,40,l),
(108,-12,l)
);
}
);
width = 479;
}
);
metricRight = "=|ye-canadian";
metricWidth = "ye-canadian";
note = uni152D;
unicode = 5421;
},
{
glyphname = "y-canadian";
kernLeft = mwestleft;
kernRight = mwestright;
lastChange = "2023-01-13 15:28:11 +0000";
layers = (
{
layerId = "7D3FB2DB-72C7-4646-AA25-FB3BBECA0225";
shapes = (
{
closed = 1;
nodes = (
(259,568,l),
(259,588,l),
(119,588,l),
(119,714,l),
(55,714,l),
(55,534,l),
(193,534,l),
(192,572,l),
(51,381,l),
(98,349,l)
);
}
);
width = 286;
}
);
note = uni153E;
unicode = 5438;
},
{
glyphname = "biblecreey-canadian";
lastChange = "2023-01-13 15:28:11 +0000";
layers = (
{
layerId = "7D3FB2DB-72C7-4646-AA25-FB3BBECA0225";
shapes = (
{
closed = 1;
nodes = (
(153,644,l),
(120,644,l),
(198,357,l),
(235,357,l),
(314,644,l),
(281,644,l),
(335,357,l),
(392,357,l),
(392,374,l),
(326,714,l),
(279,714,l),
(197,419,l),
(236,419,l),
(154,714,l),
(107,714,l),
(41,374,l),
(41,357,l),
(98,357,l)
);
}
);
width = 433;
}
);
metricRight = "=|";
note = uni153F;
unicode = 5439;
},
{
glyphname = "yWestCree-canadian";
lastChange = "2023-01-13 15:28:11 +0000";
layers = (
{
layerId = "7D3FB2DB-72C7-4646-AA25-FB3BBECA0225";
shapes = (
{
closed = 1;
nodes = (
(216,209,l),
(216,330,l),
(320,330,l),
(320,391,l),
(216,391,l),
(216,510,l),
(156,510,l),
(156,391,l),
(51,391,l),
(51,330,l),
(156,330,l),
(156,209,l)
);
}
);
width = 371;
}
);
metricLeft = "shorthorizontalstrokeFinal-canadian";
metricRight = "shorthorizontalstrokeFinal-canadian";
note = uni1540;
unicode = 5440;
},
{
glyphname = "re-canadian";
kernRight = niright;
lastChange = "2023-01-13 15:31:28 +0000";
layers = (
{
anchors = (
{
name = top_center_can;
pos = (254,514);
},
{
name = top_left_can;
pos = (107,514);
},
{
name = top_right_can;
pos = (617,514);
}
);
layerId = "7D3FB2DB-72C7-4646-AA25-FB3BBECA0225";
shapes = (
{
closed = 1;
nodes = (
(379,-13,o),
(446,76,o),
(446,226,cs),
(446,410,l),
(664,410,l),
(664,495,l),
(355,495,l),
(355,213,ls),
(355,117,o),
(320,69,o),
(254,69,cs),
(187,69,o),
(153,118,o),
(153,212,cs),
(153,495,l),
(60,495,l),
(60,227,ls),
(60,71,o),
(131,-13,o),
(254,-13,cs)
);
}
);
width = 712;
}
);
metricRight = "=|ne-canadian";
note = uni1542;
unicode = 5442;
},
{
glyphname = "reRCree-canadian";
kernLeft = neleft;
lastChange = "2023-01-13 15:31:28 +0000";
layers = (
{
anchors = (
{
name = top_center_can;
pos = (457,514);
},
{
name = top_left_can;
pos = (94,514);
},
{
name = top_right_can;
pos = (605,514);
}
);
layerId = "7D3FB2DB-72C7-4646-AA25-FB3BBECA0225";
shapes = (
{
closed = 1;
nodes = (
(580,-13,o),
(652,71,o),
(652,227,cs),
(652,495,l),
(558,495,l),
(558,212,ls),
(558,118,o),
(524,69,o),
(457,69,cs),
(391,69,o),
(356,117,o),
(356,212,cs),
(356,495,l),
(48,495,l),
(48,410,l),
(265,410,l),
(265,226,ls),
(265,76,o),
(332,-13,o),
(457,-13,cs)
);
}
);
width = 712;
}
);
metricLeft = "ne-canadian";
metricRight = "=|re-canadian";
note = uni1543;
unicode = 5443;
},
{
glyphname = "leWestCree-canadian";
kernLeft = noleft;
lastChange = "2023-01-13 15:31:28 +0000";
layers = (
{
anchors = (
{
name = top_center_can;
pos = (457,514);
},
{
name = top_left_can;
pos = (94,514);
},
{
name = top_right_can;
pos = (605,514);
}
);
layerId = "7D3FB2DB-72C7-4646-AA25-FB3BBECA0225";
shapes = (
{
closed = 1;
nodes = (
(356,0,l),
(356,282,ls),
(356,378,o),
(391,426,o),
(457,426,cs),
(524,426,o),
(558,377,o),
(558,283,cs),
(558,0,l),
(652,0,l),
(652,269,ls),
(652,424,o),
(581,509,o),
(457,509,cs),
(332,509,o),
(265,419,o),
(265,269,cs),
(265,85,l),
(48,85,l),
(48,0,l)
);
}
);
width = 712;
}
);
metricLeft = "ne-canadian";
metricRight = "=|re-canadian";
note = uni1544;
unicode = 5444;
},
{
glyphname = "ri-canadian";
kernRight = naright;
lastChange = "2023-01-13 15:31:28 +0000";
layers = (
{
anchors = (
{
name = top_center_can;
pos = (254,514);
},
{
name = top_left_can;
pos = (107,514);
},
{
name = top_right_can;
pos = (617,514);
}
);
layerId = "7D3FB2DB-72C7-4646-AA25-FB3BBECA0225";
shapes = (
{
closed = 1;
nodes = (
(153,0,l),
(153,283,ls),
(153,377,o),
(187,426,o),
(254,426,cs),
(320,426,o),
(355,379,o),
(355,283,cs),
(355,0,l),
(664,0,l),
(664,85,l),
(446,85,l),
(446,269,ls),
(446,419,o),
(379,509,o),
(254,509,cs),
(131,509,o),
(60,424,o),
(60,269,cs),
(60,0,l)
);
}
);
width = 712;
}
);
metricLeft = "re-canadian";
metricRight = "=|ne-canadian";
note = uni1546;
unicode = 5446;
},
{
glyphname = "ro-canadian";
lastChange = "2023-01-13 15:28:11 +0000";
layers = (
{
anchors = (
{
name = top_center_can;
pos = (200,714);
}
);
layerId = "7D3FB2DB-72C7-4646-AA25-FB3BBECA0225";
shapes = (
{
closed = 1;
nodes = (
(155,0,l),
(155,279,l),
(132,252,l),
(194,252,ls),
(326,252,o),
(410,344,o),
(410,481,cs),
(410,624,o),
(331,714,o),
(181,714,cs),
(62,714,l),
(62,630,l),
(171,630,ls),
(269,630,o),
(316,573,o),
(316,482,cs),
(316,391,o),
(268,334,o),
(172,334,cs),
(62,334,l),
(62,0,l)
);
}
);
width = 456;
}
);
metricLeft = "nunavuth-canadian";
note = uni1548;
unicode = 5448;
},
{
glyphname = "loWestCree-canadian";
lastChange = "2023-01-13 15:28:11 +0000";
layers = (
{
anchors = (
{
name = top_center_can;
pos = (212,714);
},
{
name = top_left_can;
pos = (109,714);
}
);
layerId = "7D3FB2DB-72C7-4646-AA25-FB3BBECA0225";
shapes = (
{
closed = 1;
nodes = (
(181,0,ls),
(331,0,o),
(410,90,o),
(410,233,cs),
(410,371,o),
(326,462,o),
(194,462,cs),
(132,462,l),
(155,435,l),
(155,714,l),
(62,714,l),
(62,380,l),
(172,380,ls),
(268,380,o),
(316,323,o),
(316,232,cs),
(316,141,o),
(269,85,o),
(171,85,cs),
(62,85,l),
(62,0,l)
);
}
);
width = 456;
}
);
metricLeft = "nunavuth-canadian";
metricRight = "ro-canadian";
note = uni154A;
unicode = 5450;
},
{
glyphname = "ra-canadian";
lastChange = "2023-01-13 15:28:11 +0000";
layers = (
{
anchors = (
{
name = top_center_can;
pos = (256,714);
},
{
name = top_right_can;
pos = (348,714);
}
);
layerId = "7D3FB2DB-72C7-4646-AA25-FB3BBECA0225";
shapes = (
{
closed = 1;
nodes = (
(394,0,l),
(394,334,l),
(284,334,ls),
(188,334,o),
(140,391,o),
(140,482,cs),
(140,573,o),
(187,630,o),
(285,630,cs),
(394,630,l),
(394,714,l),
(275,714,ls),
(125,714,o),
(46,624,o),
(46,481,cs),
(46,344,o),
(130,252,o),
(262,252,cs),
(324,252,l),
(301,279,l),
(301,0,l)
);
}
);
width = 456;
}
);
metricLeft = "=|ro-canadian";
metricRight = "nunavuth-canadian";
note = uni154B;
unicode = 5451;
},
{
glyphname = "laWestCree-canadian";
lastChange = "2023-01-13 15:28:11 +0000";
layers = (
{
anchors = (
{
name = top_center_can;
pos = (348,714);
}
);
layerId = "7D3FB2DB-72C7-4646-AA25-FB3BBECA0225";
shapes = (
{
closed = 1;
nodes = (
(394,0,l),
(394,85,l),
(285,85,ls),
(187,85,o),
(140,141,o),
(140,232,cs),
(140,323,o),
(188,380,o),
(284,380,cs),
(394,380,l),
(394,714,l),
(301,714,l),
(301,435,l),
(324,462,l),
(262,462,ls),
(130,462,o),
(46,371,o),
(46,233,cs),
(46,90,o),
(125,0,o),
(275,0,cs)
);
}
);
width = 456;
}
);
metricLeft = "=|ro-canadian";
metricRight = "nunavuth-canadian";
note = uni154D;
unicode = 5453;
},
{
glyphname = "r-canadian";
kernLeft = mwestleft;
kernRight = mwestright;
lastChange = "2023-01-13 15:28:11 +0000";
layers = (
{
layerId = "7D3FB2DB-72C7-4646-AA25-FB3BBECA0225";
shapes = (
{
closed = 1;
nodes = (
(219,357,l),
(219,532,l),
(169,532,ls),
(126,532,o),
(102,553,o),
(102,596,cs),
(102,639,o),
(127,661,o),
(170,661,cs),
(219,661,l),
(219,714,l),
(168,714,ls),
(88,714,o),
(41,671,o),
(41,596,cs),
(41,525,o),
(86,480,o),
(161,480,cs),
(190,480,l),
(155,499,l),
(155,357,l)
);
}
);
width = 270;
}
);
metricLeft = "=|k-canadian";
note = uni1550;
unicode = 5456;
},
{
glyphname = "rWestCree-canadian";
kernLeft = mwestleft;
kernRight = mwestright;
lastChange = "2023-01-13 15:28:11 +0000";
layers = (
{
layerId = "7D3FB2DB-72C7-4646-AA25-FB3BBECA0225";
shapes = (
{
closed = 1;
nodes = (
(63,357,l),
(249,449,l),
(249,474,l),
(94,547,l),
(94,523,l),
(249,597,l),
(249,622,l),
(63,714,l),
(51,714,l),
(51,669,l),
(206,593,l),
(206,626,l),
(51,551,l),
(51,520,l),
(206,446,l),
(206,478,l),
(51,401,l),
(51,357,l)
);
}
);
width = 300;
}
);
metricLeft = "=|lWestCree-canadian";
metricRight = "=|lWestCree-canadian";
note = uni1551;
unicode = 5457;
},
{
glyphname = "rMedial-canadian";
lastChange = "2023-01-13 15:28:11 +0000";
layers = (
{
layerId = "7D3FB2DB-72C7-4646-AA25-FB3BBECA0225";
shapes = (
{
closed = 1;
nodes = (
(81,-13,l),
(486,178,l),
(486,213,l),
(147,370,l),
(147,344,l),
(486,501,l),
(486,536,l),
(81,727,l),
(57,727,l),
(57,659,l),
(405,495,l),
(405,538,l),
(57,381,l),
(57,333,l),
(405,176,l),
(405,219,l),
(57,55,l),
(57,-13,l)
);
}
);
width = 543;
}
);
metricLeft = "mediall-canadian";
metricRight = "mediall-canadian";
note = uni1552;
unicode = 5458;
},
{
glyphname = "fe-canadian";
kernLeft = ecanleft;
kernRight = ecanright;
lastChange = "2023-01-13 15:31:28 +0000";
layers = (
{
layerId = "7D3FB2DB-72C7-4646-AA25-FB3BBECA0225";
shapes = (
{
closed = 1;
nodes = (
(328,0,l),
(618,688,l),
(618,714,l),
(544,714,l),
(297,106,l),
(320,106,l),
(207,369,l),
(160,363,l),
(180,340,o),
(204,329,o),
(234,329,cs),
(310,329,o),
(370,407,o),
(370,529,cs),
(370,649,o),
(319,727,o),
(227,727,cs),
(134,727,o),
(83,649,o),
(83,539,cs),
(83,480,o),
(96,427,o),
(124,368,cs),
(297,0,l)
);
},
{
closed = 1;
nodes = (
(181,394,o),
(157,446,o),
(157,536,cs),
(157,621,o),
(183,660,o),
(227,660,cs),
(271,660,o),
(296,621,o),
(296,528,cs),
(296,435,o),
(271,394,o),
(228,394,cs)
);
}
);
width = 644;
}
);
metricRight = "e-canadian";
note = uni1553;
unicode = 5459;
},
{
glyphname = "fi-canadian";
kernLeft = icanleft;
kernRight = icanright;
lastChange = "2023-01-13 15:31:28 +0000";
layers = (
{
anchors = (
{
name = top_center_can;
pos = (314,714);
},
{
name = top_left_can;
pos = (121,714);
},
{
name = top_right_can;
pos = (527,714);
}
);
layerId = "7D3FB2DB-72C7-4646-AA25-FB3BBECA0225";
shapes = (
{
closed = 1;
nodes = (
(319,-13,o),
(370,65,o),
(370,185,cs),
(370,307,o),
(310,385,o),
(234,385,cs),
(204,385,o),
(180,374,o),
(160,351,c),
(207,345,l),
(320,608,l),
(297,608,l),
(544,0,l),
(618,0,l),
(618,26,l),
(328,714,l),
(297,714,l),
(124,346,ls),
(96,287,o),
(83,234,o),
(83,175,cs),
(83,65,o),
(134,-13,o),
(227,-13,cs)
);
},
{
closed = 1;
nodes = (
(183,54,o),
(157,93,o),
(157,178,cs),
(157,268,o),
(181,320,o),
(228,320,cs),
(271,320,o),
(296,279,o),
(296,186,cs),
(296,93,o),
(271,54,o),
(227,54,cs)
);
}
);
width = 644;
}
);
metricLeft = "fe-canadian";
metricRight = "e-canadian";
note = uni1555;
unicode = 5461;
},
{
glyphname = "fo-canadian";
kernLeft = ocanleft;
kernRight = ocanright;
lastChange = "2023-01-13 15:31:28 +0000";
layers = (
{
anchors = (
{
name = top_center_can;
pos = (187,714);
}
);
layerId = "7D3FB2DB-72C7-4646-AA25-FB3BBECA0225";
shapes = (
{
closed = 1;
nodes = (
(98,0,l),
(538,340,l),
(538,374,l),
(292,674,ls),
(261,713,o),
(224,727,o),
(184,727,cs),
(95,727,o),
(44,650,o),
(44,526,cs),
(44,406,o),
(99,327,o),
(186,327,cs),
(271,327,o),
(323,407,o),
(323,526,cs),
(323,571,o),
(313,613,o),
(301,641,c),
(272,585,l),
(461,355,l),
(461,378,l),
(74,79,l),
(74,0,l)
);
},
{
closed = 1;
nodes = (
(144,394,o),
(118,433,o),
(118,527,cs),
(118,621,o),
(144,660,o),
(188,660,cs),
(231,660,o),
(256,621,o),
(256,528,cs),
(256,435,o),
(231,394,o),
(188,394,cs)
);
}
);
width = 568;
}
);
metricRight = "o-canadian";
note = uni1557;
unicode = 5463;
},
{
glyphname = "fa-canadian";
kernLeft = acanleft;
kernRight = acanright;
lastChange = "2023-01-13 15:31:28 +0000";
layers = (
{
anchors = (
{
name = top_center_can;
pos = (382,714);
}
);
layerId = "7D3FB2DB-72C7-4646-AA25-FB3BBECA0225";
shapes = (
{
closed = 1;
nodes = (
(495,0,l),
(495,79,l),
(108,378,l),
(108,356,l),
(297,585,l),
(267,641,l),
(255,613,o),
(245,571,o),
(245,526,cs),
(245,407,o),
(298,327,o),
(383,327,cs),
(470,327,o),
(524,406,o),
(524,526,cs),
(524,650,o),
(474,727,o),
(384,727,cs),
(345,727,o),
(308,713,o),
(276,674,cs),
(30,374,l),
(30,340,l),
(471,0,l)
);
},
{
closed = 1;
nodes = (
(338,394,o),
(313,435,o),
(313,528,cs),
(313,621,o),
(338,660,o),
(381,660,cs),
(425,660,o),
(450,621,o),
(450,527,cs),
(450,433,o),
(425,394,o),
(381,394,cs)
);
}
);
width = 568;
}
);
metricRight = "=|fo-canadian";
note = uni1559;
unicode = 5465;
},
{
glyphname = "f-canadian";
kernLeft = mwestleft;
kernRight = mwestright;
lastChange = "2023-01-13 15:28:11 +0000";
layers = (
{
layerId = "7D3FB2DB-72C7-4646-AA25-FB3BBECA0225";
shapes = (
{
closed = 1;
nodes = (
(274,357,l),
(274,399,l),
(86,546,l),
(86,536,l),
(172,640,l),
(162,676,l),
(155,661,o),
(151,640,o),
(151,615,cs),
(151,551,o),
(180,519,o),
(220,519,cs),
(260,519,o),
(288,553,o),
(288,620,cs),
(288,691,o),
(256,720,o),
(218,720,cs),
(200,720,o),
(180,711,o),
(163,690,cs),
(41,545,l),
(41,525,l),
(261,357,l)
);
},
{
closed = 1;
nodes = (
(198,556,o),
(187,575,o),
(187,618,cs),
(187,662,o),
(198,683,o),
(218,683,cs),
(238,683,o),
(249,666,o),
(249,618,cs),
(249,574,o),
(239,556,o),
(218,556,cs)
);
}
);
width = 334;
}
);
note = uni155D;
unicode = 5469;
},
{
glyphname = "the-canadian";
lastChange = "2023-01-13 15:31:28 +0000";
layers = (
{
anchors = (
{
name = middle_right_can;
pos = (662,357);
},
{
name = top_center_can;
pos = (305,714);
},
{
name = top_left_can;
pos = (104,714);
},
{
name = top_right_can;
pos = (504,714);
}
);
layerId = "7D3FB2DB-72C7-4646-AA25-FB3BBECA0225";
shapes = (
{
closed = 1;
nodes = (
(460,-13,o),
(551,81,o),
(551,262,cs),
(551,714,l),
(458,714,l),
(458,260,ls),
(458,132,o),
(404,73,o),
(304,73,cs),
(207,73,o),
(150,135,o),
(150,263,cs),
(150,435,l),
(109,409,l),
(121,360,o),
(160,326,o),
(204,326,cs),
(289,326,o),
(344,404,o),
(344,527,cs),
(344,649,o),
(295,727,o),
(203,727,cs),
(108,727,o),
(58,650,o),
(58,501,cs),
(58,284,ls),
(58,85,o),
(148,-13,o),
(304,-13,cs)
);
},
{
closed = 1;
nodes = (
(159,394,o),
(132,433,o),
(132,527,cs),
(132,620,o),
(158,660,o),
(202,660,cs),
(245,660,o),
(270,620,o),
(270,528,cs),
(270,435,o),
(246,394,o),
(203,394,cs)
);
}
);
width = 609;
}
);
metricLeft = "te-canadian";
metricRight = "te-canadian";
note = uni155E;
unicode = 5470;
},
{
glyphname = "theNCree-canadian";
lastChange = "2023-01-13 15:31:28 +0000";
layers = (
{
layerId = "7D3FB2DB-72C7-4646-AA25-FB3BBECA0225";
shapes = (
{
closed = 1;
nodes = (
(463,-13,o),
(551,81,o),
(551,279,cs),
(551,501,ls),
(551,650,o),
(501,727,o),
(407,727,cs),
(315,727,o),
(266,649,o),
(266,527,cs),
(266,404,o),
(321,326,o),
(405,326,cs),
(450,326,o),
(488,360,o),
(501,409,c),
(459,435,l),
(459,261,ls),
(459,132,o),
(403,71,o),
(305,71,cs),
(206,71,o),
(152,131,o),
(152,258,cs),
(152,714,l),
(58,714,l),
(58,260,ls),
(58,81,o),
(150,-13,o),
(305,-13,cs)
);
},
{
closed = 1;
nodes = (
(364,394,o),
(340,435,o),
(340,528,cs),
(340,620,o),
(365,660,o),
(408,660,cs),
(452,660,o),
(477,620,o),
(477,527,cs),
(477,433,o),
(450,394,o),
(407,394,cs)
);
}
);
width = 609;
}
);
metricLeft = "te-canadian";
metricRight = "te-canadian";
note = uni155F;
unicode = 5471;
},
{
glyphname = "thi-canadian";
lastChange = "2023-01-13 15:31:28 +0000";
layers = (
{
anchors = (
{
name = top_center_can;
pos = (302,714);
}
);
layerId = "7D3FB2DB-72C7-4646-AA25-FB3BBECA0225";
shapes = (
{
closed = 1;
nodes = (
(295,-13,o),
(344,65,o),
(344,187,cs),
(344,310,o),
(289,388,o),
(204,388,cs),
(160,388,o),
(121,354,o),
(109,305,c),
(150,279,l),
(150,453,ls),
(150,582,o),
(206,643,o),
(304,643,cs),
(403,643,o),
(458,583,o),
(458,456,cs),
(458,0,l),
(551,0,l),
(551,454,ls),
(551,633,o),
(459,727,o),
(304,727,cs),
(147,727,o),
(58,633,o),
(58,435,cs),
(58,213,ls),
(58,64,o),
(108,-13,o),
(203,-13,cs)
);
},
{
closed = 1;
nodes = (
(158,54,o),
(132,94,o),
(132,187,cs),
(132,281,o),
(159,320,o),
(203,320,cs),
(246,320,o),
(270,279,o),
(270,186,cs),
(270,94,o),
(245,54,o),
(202,54,cs)
);
}
);
width = 609;
}
);
metricLeft = "te-canadian";
metricRight = "te-canadian";
note = uni1560;
unicode = 5472;
},
{
glyphname = "thiNCree-canadian";
lastChange = "2023-01-13 15:31:28 +0000";
layers = (
{
anchors = (
{
name = top_center_can;
pos = (302,714);
}
);
layerId = "7D3FB2DB-72C7-4646-AA25-FB3BBECA0225";
shapes = (
{
closed = 1;
nodes = (
(501,-13,o),
(551,64,o),
(551,213,cs),
(551,435,ls),
(551,633,o),
(463,727,o),
(305,727,cs),
(150,727,o),
(58,633,o),
(58,454,cs),
(58,0,l),
(152,0,l),
(152,456,ls),
(152,583,o),
(206,643,o),
(305,643,cs),
(403,643,o),
(459,582,o),
(459,453,cs),
(459,279,l),
(501,305,l),
(488,354,o),
(450,388,o),
(405,388,cs),
(321,388,o),
(266,310,o),
(266,187,cs),
(266,65,o),
(315,-13,o),
(407,-13,cs)
);
},
{
closed = 1;
nodes = (
(365,54,o),
(340,94,o),
(340,186,cs),
(340,279,o),
(364,320,o),
(407,320,cs),
(450,320,o),
(477,281,o),
(477,187,cs),
(477,94,o),
(452,54,o),
(408,54,cs)
);
}
);
width = 609;
}
);
metricLeft = "te-canadian";
metricRight = "te-canadian";
note = uni1561;
unicode = 5473;
},
{
glyphname = "tho-canadian";
lastChange = "2023-01-13 15:28:11 +0000";
layers = (
{
anchors = (
{
name = top_center_can;
pos = (252,714);
}
);
layerId = "7D3FB2DB-72C7-4646-AA25-FB3BBECA0225";
shapes = (
{
closed = 1;
nodes = (
(205,0,ls),
(407,0,o),
(509,123,o),
(509,365,cs),
(509,589,o),
(413,727,o),
(257,727,cs),
(137,727,o),
(52,644,o),
(52,502,cs),
(52,373,o),
(106,300,o),
(193,300,cs),
(281,300,o),
(330,373,o),
(330,489,cs),
(330,602,o),
(289,679,o),
(210,683,c),
(180,649,l),
(197,660,o),
(220,667,o),
(242,667,cs),
(359,667,o),
(418,551,o),
(418,371,cs),
(418,176,o),
(353,86,o),
(201,86,cs),
(80,86,l),
(80,0,l)
);
},
{
closed = 1;
nodes = (
(152,367,o),
(126,407,o),
(126,504,cs),
(126,599,o),
(156,642,o),
(197,642,cs),
(239,642,o),
(264,602,o),
(264,505,cs),
(264,409,o),
(239,367,o),
(196,367,cs)
);
}
);
width = 560;
}
);
metricRight = "to-canadian";
note = uni1564;
unicode = 5476;
},
{
glyphname = "tha-canadian";
lastChange = "2023-01-13 15:28:11 +0000";
layers = (
{
anchors = (
{
name = top_center_can;
pos = (310,714);
}
);
layerId = "7D3FB2DB-72C7-4646-AA25-FB3BBECA0225";
shapes = (
{
closed = 1;
nodes = (
(480,0,l),
(480,86,l),
(359,86,ls),
(207,86,o),
(142,176,o),
(142,371,cs),
(142,551,o),
(202,667,o),
(318,667,cs),
(340,667,o),
(364,660,o),
(380,649,c),
(350,683,l),
(271,679,o),
(230,602,o),
(230,489,cs),
(230,373,o),
(279,300,o),
(368,300,cs),
(454,300,o),
(508,373,o),
(508,502,cs),
(508,644,o),
(423,727,o),
(303,727,cs),
(147,727,o),
(51,589,o),
(51,365,cs),
(51,127,o),
(149,0,o),
(356,0,cs)
);
},
{
closed = 1;
nodes = (
(321,367,o),
(296,409,o),
(296,505,cs),
(296,602,o),
(322,642,o),
(363,642,cs),
(404,642,o),
(434,599,o),
(434,504,cs),
(434,407,o),
(408,367,o),
(365,367,cs)
);
}
);
width = 560;
}
);
metricLeft = "=|theCarrier-canadian";
metricRight = "=|tho-canadian";
note = uni1566;
unicode = 5478;
},
{
glyphname = "th-canadian";
kernLeft = mwestleft;
kernRight = mwestright;
lastChange = "2023-01-13 15:28:11 +0000";
layers = (
{
layerId = "7D3FB2DB-72C7-4646-AA25-FB3BBECA0225";
shapes = (
{
closed = 1;
nodes = (
(263,357,l),
(263,411,l),
(210,411,ls),
(136,411,o),
(103,455,o),
(103,541,cs),
(103,626,o),
(135,679,o),
(190,679,cs),
(201,679,o),
(210,676,o),
(218,672,c),
(197,694,l),
(161,691,o),
(139,656,o),
(139,605,cs),
(139,537,o),
(167,504,o),
(208,504,cs),
(249,504,o),
(276,538,o),
(276,605,cs),
(276,685,o),
(236,720,o),
(180,720,cs),
(101,720,o),
(49,654,o),
(49,537,cs),
(49,425,o),
(99,357,o),
(206,357,cs)
);
},
{
closed = 1;
nodes = (
(186,541,o),
(175,559,o),
(175,603,cs),
(175,647,o),
(186,668,o),
(206,668,cs),
(226,668,o),
(237,651,o),
(237,603,cs),
(237,559,o),
(227,541,o),
(207,541,cs)
);
}
);
width = 322;
}
);
metricLeft = "t-canadian";
note = uni156A;
unicode = 5482;
},
{
glyphname = "tthe-canadian";
lastChange = "2023-01-13 15:28:11 +0000";
layers = (
{
anchors = (
{
name = middle_right_can;
pos = (655,357);
},
{
name = top_center_can;
pos = (301,714);
},
{
name = top_left_can;
pos = (106,714);
},
{
name = top_right_can;
pos = (497,714);
}
);
layerId = "7D3FB2DB-72C7-4646-AA25-FB3BBECA0225";
shapes = (
{
closed = 1;
nodes = (
(455,-13,o),
(544,81,o),
(544,262,cs),
(544,714,l),
(456,714,l),
(456,260,ls),
(456,131,o),
(397,74,o),
(301,74,cs),
(207,74,o),
(146,134,o),
(146,260,cs),
(146,714,l),
(58,714,l),
(58,260,ls),
(58,81,o),
(150,-13,o),
(301,-13,cs)
);
},
{
closed = 1;
nodes = (
(336,401,l),
(336,714,l),
(266,714,l),
(266,401,l)
);
}
);
width = 602;
}
);
metricLeft = "te-canadian";
metricRight = "te-canadian";
note = uni156B;
unicode = 5483;
},
{
glyphname = "tthi-canadian";
lastChange = "2023-01-13 15:28:11 +0000";
layers = (
{
layerId = "7D3FB2DB-72C7-4646-AA25-FB3BBECA0225";
shapes = (
{
closed = 1;
nodes = (
(146,0,l),
(146,454,ls),
(146,582,o),
(205,640,o),
(301,640,cs),
(395,640,o),
(456,580,o),
(456,454,cs),
(456,0,l),
(544,0,l),
(544,454,ls),
(544,633,o),
(452,727,o),
(301,727,cs),
(147,727,o),
(58,633,o),
(58,452,cs),
(58,0,l)
);
},
{
closed = 1;
nodes = (
(336,0,l),
(336,313,l),
(266,313,l),
(266,0,l)
);
}
);
width = 602;
}
);
metricLeft = "te-canadian";
metricRight = "te-canadian";
note = uni156C;
unicode = 5484;
},
{
glyphname = "ttho-canadian";
lastChange = "2023-01-13 15:28:11 +0000";
layers = (
{
anchors = (
{
name = top_center_can;
pos = (266,714);
},
{
name = top_left_can;
pos = (107,714);
},
{
name = top_right_can;
pos = (426,714);
}
);
layerId = "7D3FB2DB-72C7-4646-AA25-FB3BBECA0225";
shapes = (
{
closed = 1;
nodes = (
(159,0,ls),
(365,0,o),
(471,124,o),
(471,358,cs),
(471,592,o),
(365,714,o),
(156,714,cs),
(61,714,l),
(61,628,l),
(157,628,ls),
(307,628,o),
(378,542,o),
(378,358,cs),
(378,175,o),
(307,86,o),
(160,86,cs),
(61,86,l),
(61,0,l)
);
},
{
closed = 1;
nodes = (
(249,318,l),
(249,397,l),
(61,397,l),
(61,318,l)
);
}
);
width = 522;
}
);
metricRight = "to-canadian";
note = uni156D;
unicode = 5485;
},
{
glyphname = "ttha-canadian";
lastChange = "2023-01-13 15:28:11 +0000";
layers = (
{
anchors = (
{
name = top_center_can;
pos = (264,714);
},
{
name = top_left_can;
pos = (97,714);
},
{
name = top_right_can;
pos = (416,714);
}
);
layerId = "7D3FB2DB-72C7-4646-AA25-FB3BBECA0225";
shapes = (
{
closed = 1;
nodes = (
(461,0,l),
(461,86,l),
(365,86,ls),
(215,86,o),
(145,173,o),
(145,357,cs),
(145,539,o),
(215,628,o),
(362,628,cs),
(461,628,l),
(461,714,l),
(363,714,ls),
(157,714,o),
(51,591,o),
(51,357,cs),
(51,123,o),
(157,0,o),
(366,0,cs)
);
},
{
closed = 1;
nodes = (
(461,318,l),
(461,397,l),
(273,397,l),
(273,318,l)
);
}
);
width = 522;
}
);
metricLeft = "=|to-canadian";
metricRight = "=|ttho-canadian";
note = uni156E;
unicode = 5486;
},
{
glyphname = "tth-canadian";
lastChange = "2023-01-13 15:28:11 +0000";
layers = (
{
layerId = "7D3FB2DB-72C7-4646-AA25-FB3BBECA0225";
shapes = (
{
closed = 1;
nodes = (
(538,512,l),
(515,512,l),
(598,390,l),
(642,422,l),
(558,544,l),
(551,522,l),
(674,574,l),
(654,623,l),
(533,570,l),
(554,559,l),
(554,714,l),
(499,714,l),
(499,559,l),
(521,570,l),
(399,623,l),
(379,574,l),
(503,522,l),
(496,544,l),
(411,422,l),
(456,390,l)
);
},
{
closed = 1;
nodes = (
(198,512,l),
(175,512,l),
(261,390,l),
(305,422,l),
(218,544,l),
(211,522,l),
(334,574,l),
(314,623,l),
(193,570,l),
(214,559,l),
(214,714,l),
(159,714,l),
(159,559,l),
(181,570,l),
(59,623,l),
(40,574,l),
(163,522,l),
(156,544,l),
(69,422,l),
(113,390,l)
);
}
);
width = 714;
}
);
metricRight = "=|";
note = uni156F;
unicode = 5487;
},
{
glyphname = "tye-canadian";
lastChange = "2023-01-13 15:28:11 +0000";
layers = (
{
layerId = "7D3FB2DB-72C7-4646-AA25-FB3BBECA0225";
shapes = (
{
closed = 1;
nodes = (
(455,-13,o),
(544,81,o),
(544,262,cs),
(544,714,l),
(456,714,l),
(456,266,ls),
(456,131,o),
(397,74,o),
(301,74,cs),
(207,74,o),
(146,134,o),
(146,266,cs),
(146,714,l),
(58,714,l),
(58,260,ls),
(58,81,o),
(150,-13,o),
(301,-13,cs)
);
},
{
closed = 1;
nodes = (
(360,426,o),
(394,464,o),
(394,536,cs),
(394,714,l),
(350,714,l),
(350,538,ls),
(350,491,o),
(333,471,o),
(301,471,cs),
(269,471,o),
(252,492,o),
(252,538,cs),
(252,714,l),
(208,714,l),
(208,536,ls),
(208,464,o),
(243,426,o),
(301,426,cs)
);
}
);
width = 602;
}
);
metricLeft = "te-canadian";
metricRight = "te-canadian";
note = uni1570;
unicode = 5488;
},
{
glyphname = "tyi-canadian";
lastChange = "2023-01-13 15:28:11 +0000";
layers = (
{
layerId = "7D3FB2DB-72C7-4646-AA25-FB3BBECA0225";
shapes = (
{
closed = 1;
nodes = (
(146,0,l),
(146,448,ls),
(146,582,o),
(205,640,o),
(301,640,cs),
(395,640,o),
(456,580,o),
(456,448,cs),
(456,0,l),
(544,0,l),
(544,454,ls),
(544,633,o),
(452,727,o),
(301,727,cs),
(147,727,o),
(58,633,o),
(58,452,cs),
(58,0,l)
);
},
{
closed = 1;
nodes = (
(252,0,l),
(252,176,ls),
(252,223,o),
(269,243,o),
(301,243,cs),
(333,243,o),
(350,222,o),
(350,176,cs),
(350,0,l),
(394,0,l),
(394,178,ls),
(394,250,o),
(359,288,o),
(301,288,cs),
(242,288,o),
(208,250,o),
(208,178,cs),
(208,0,l)
);
}
);
width = 602;
}
);
metricLeft = "te-canadian";
metricRight = "te-canadian";
note = uni1571;
unicode = 5489;
},
{
glyphname = "tyo-canadian";
lastChange = "2023-01-13 15:28:11 +0000";
layers = (
{
layerId = "7D3FB2DB-72C7-4646-AA25-FB3BBECA0225";
shapes = (
{
closed = 1;
nodes = (
(160,0,ls),
(362,0,o),
(472,124,o),
(472,358,cs),
(472,592,o),
(362,714,o),
(157,714,cs),
(62,714,l),
(62,630,l),
(150,630,ls),
(307,630,o),
(379,543,o),
(379,358,cs),
(379,174,o),
(307,84,o),
(153,84,cs),
(62,84,l),
(62,0,l)
);
},
{
closed = 1;
nodes = (
(118,219,ls),
(201,219,o),
(248,266,o),
(248,357,cs),
(248,448,o),
(201,495,o),
(118,495,cs),
(62,495,l),
(62,444,l),
(111,444,ls),
(169,444,o),
(194,416,o),
(194,357,cs),
(194,298,o),
(169,270,o),
(111,270,cs),
(62,270,l),
(62,219,l)
);
}
);
width = 523;
}
);
metricLeft = "nunavuth-canadian";
metricRight = "theCarrier-canadian";
note = uni1572;
unicode = 5490;
},
{
glyphname = "tya-canadian";
lastChange = "2023-01-13 15:28:11 +0000";
layers = (
{
layerId = "7D3FB2DB-72C7-4646-AA25-FB3BBECA0225";
shapes = (
{
closed = 1;
nodes = (
(461,0,l),
(461,84,l),
(373,84,ls),
(216,84,o),
(144,172,o),
(144,357,cs),
(144,541,o),
(216,630,o),
(370,630,cs),
(461,630,l),
(461,714,l),
(363,714,ls),
(161,714,o),
(51,591,o),
(51,357,cs),
(51,123,o),
(161,0,o),
(366,0,cs)
);
},
{
closed = 1;
nodes = (
(461,219,l),
(461,270,l),
(412,270,ls),
(355,270,o),
(329,298,o),
(329,357,cs),
(329,416,o),
(355,444,o),
(411,444,cs),
(461,444,l),
(461,495,l),
(405,495,ls),
(322,495,o),
(275,448,o),
(275,357,cs),
(275,266,o),
(322,219,o),
(405,219,cs)
);
}
);
width = 523;
}
);
metricLeft = "=|theCarrier-canadian";
metricRight = "nunavuth-canadian";
note = uni1573;
unicode = 5491;
},
{
glyphname = "heNunavik-canadian";
lastChange = "2023-01-13 15:28:11 +0000";
layers = (
{
layerId = "7D3FB2DB-72C7-4646-AA25-FB3BBECA0225";
shapes = (
{
closed = 1;
nodes = (
(429,0,l),
(626,201,l),
(570,260,l),
(379,66,l),
(439,62,l),
(439,462,ls),
(439,633,o),
(372,727,o),
(248,727,cs),
(124,727,o),
(51,631,o),
(51,463,cs),
(51,303,o),
(122,205,o),
(234,205,cs),
(297,205,o),
(344,247,o),
(355,303,c),
(347,328,l),
(347,0,l)
);
},
{
closed = 1;
nodes = (
(180,286,o),
(142,343,o),
(142,467,cs),
(142,590,o),
(179,647,o),
(245,647,cs),
(311,647,o),
(348,591,o),
(348,467,cs),
(348,343,o),
(309,286,o),
(245,286,cs)
);
}
);
width = 647;
}
);
metricLeft = "ke-canadian";
note = uni1574;
unicode = 5492;
},
{
glyphname = "hiNunavik-canadian";
lastChange = "2023-01-13 15:28:11 +0000";
layers = (
{
anchors = (
{
name = top_center_can;
pos = (400,714);
}
);
layerId = "7D3FB2DB-72C7-4646-AA25-FB3BBECA0225";
shapes = (
{
closed = 1;
nodes = (
(301,0,l),
(301,328,l),
(292,303,l),
(303,247,o),
(350,205,o),
(414,205,cs),
(526,205,o),
(596,303,o),
(596,464,cs),
(596,631,o),
(523,727,o),
(400,727,cs),
(275,727,o),
(208,633,o),
(208,462,cs),
(208,63,l),
(268,66,l),
(77,260,l),
(21,201,l),
(218,0,l)
);
},
{
closed = 1;
nodes = (
(338,286,o),
(300,343,o),
(300,467,cs),
(300,591,o),
(336,647,o),
(402,647,cs),
(468,647,o),
(505,590,o),
(505,467,cs),
(505,343,o),
(467,286,o),
(402,286,cs)
);
}
);
width = 647;
}
);
metricLeft = "=|heNunavik-canadian";
metricRight = "=|ke-canadian";
note = uni1575;
unicode = 5493;
},
{
glyphname = "hoNunavik-canadian";
lastChange = "2023-01-13 15:28:11 +0000";
layers = (
{
anchors = (
{
name = top_center_can;
pos = (244,714);
},
{
name = top_right_can;
pos = (393,714);
}
);
layerId = "7D3FB2DB-72C7-4646-AA25-FB3BBECA0225";
shapes = (
{
closed = 1;
nodes = (
(372,-13,o),
(439,81,o),
(439,252,cs),
(439,652,l),
(379,648,l),
(570,454,l),
(626,513,l),
(429,714,l),
(347,714,l),
(347,386,l),
(355,411,l),
(344,467,o),
(297,509,o),
(234,509,cs),
(122,509,o),
(51,411,o),
(51,250,cs),
(51,83,o),
(124,-13,o),
(248,-13,cs)
);
},
{
closed = 1;
nodes = (
(179,67,o),
(142,124,o),
(142,247,cs),
(142,371,o),
(180,428,o),
(245,428,cs),
(309,428,o),
(348,371,o),
(348,247,cs),
(348,123,o),
(311,67,o),
(245,67,cs)
);
}
);
width = 647;
}
);
metricLeft = "ke-canadian";
metricRight = "heNunavik-canadian";
note = uni1577;
unicode = 5495;
},
{
glyphname = "haNunavik-canadian";
lastChange = "2023-01-13 15:28:11 +0000";
layers = (
{
anchors = (
{
name = top_center_can;
pos = (403,714);
},
{
name = top_left_can;
pos = (255,714);
}
);
layerId = "7D3FB2DB-72C7-4646-AA25-FB3BBECA0225";
shapes = (
{
closed = 1;
nodes = (
(523,-13,o),
(596,83,o),
(596,250,cs),
(596,411,o),
(526,509,o),
(414,509,cs),
(350,509,o),
(304,467,o),
(292,411,c),
(301,386,l),
(301,714,l),
(218,714,l),
(21,513,l),
(77,454,l),
(268,648,l),
(208,651,l),
(208,252,ls),
(208,81,o),
(275,-13,o),
(400,-13,cs)
);
},
{
closed = 1;
nodes = (
(336,67,o),
(300,123,o),
(300,247,cs),
(300,371,o),
(338,428,o),
(402,428,cs),
(467,428,o),
(505,371,o),
(505,247,cs),
(505,124,o),
(468,67,o),
(402,67,cs)
);
}
);
width = 647;
}
);
metricLeft = "=|heNunavik-canadian";
metricRight = "=|ke-canadian";
note = uni1579;
unicode = 5497;
},
{
glyphname = "hNunavik-canadian";
kernLeft = mwestleft;
kernRight = mwestright;
lastChange = "2023-01-13 15:28:11 +0000";
layers = (
{
layerId = "7D3FB2DB-72C7-4646-AA25-FB3BBECA0225";
shapes = (
{
closed = 1;
nodes = (
(293,351,o),
(341,396,o),
(341,491,cs),
(341,576,o),
(300,622,o),
(246,622,cs),
(206,622,o),
(177,594,o),
(172,548,c),
(187,548,l),
(187,714,l),
(129,714,l),
(31,614,l),
(64,581,l),
(162,682,l),
(124,680,l),
(124,486,ls),
(124,401,o),
(166,351,o),
(233,351,cs)
);
},
{
closed = 1;
nodes = (
(202,400,o),
(183,423,o),
(183,487,cs),
(183,548,o),
(204,573,o),
(233,573,cs),
(262,573,o),
(284,549,o),
(284,487,cs),
(284,425,o),
(263,400,o),
(233,400,cs)
);
}
);
width = 382;
}
);
metricRight = "k-canadian";
note = uni157B;
unicode = 5499;
},
{
color = 4;
glyphname = "nunavuth-canadian";
lastChange = "2023-01-13 15:28:11 +0000";
layers = (
{
layerId = "7D3FB2DB-72C7-4646-AA25-FB3BBECA0225";
shapes = (
{
closed = 1;
nodes = (
(155,328,l),
(422,328,l),
(422,0,l),
(515,0,l),
(515,714,l),
(422,714,l),
(422,412,l),
(155,412,l),
(155,714,l),
(62,714,l),
(62,0,l),
(155,0,l)
);
}
);
width = 577;
}
);
metricRight = "=|";
note = uni157C;
unicode = 5500;
},
{
glyphname = "tlhe-canadian";
lastChange = "2023-01-13 15:31:28 +0000";
layers = (
{
anchors = (
{
name = top_center_can;
pos = (253,714);
}
);
layerId = "7D3FB2DB-72C7-4646-AA25-FB3BBECA0225";
shapes = (
{
closed = 1;
nodes = (
(169,0,l),
(275,274,l),
(203,246,l),
(213,243,o),
(225,241,o),
(238,241,cs),
(306,241,o),
(350,283,o),
(362,332,c),
(354,357,l),
(354,0,l),
(446,0,l),
(446,485,ls),
(446,635,o),
(378,727,o),
(253,727,cs),
(128,727,o),
(54,634,o),
(54,482,cs),
(54,366,o),
(101,287,o),
(173,261,c),
(71,0,l)
);
},
{
closed = 1;
nodes = (
(185,321,o),
(146,375,o),
(146,484,cs),
(146,593,o),
(183,647,o),
(250,647,cs),
(318,647,o),
(355,594,o),
(355,484,cs),
(355,374,o),
(315,321,o),
(250,321,cs)
);
}
);
width = 504;
}
);
metricRight = "te-canadian";
note = uni1586;
unicode = 5510;
},
{
glyphname = "tlhi-canadian";
lastChange = "2023-01-13 15:31:28 +0000";
layers = (
{
layerId = "7D3FB2DB-72C7-4646-AA25-FB3BBECA0225";
shapes = (
{
closed = 1;
nodes = (
(151,0,l),
(151,357,l),
(143,333,l),
(154,283,o),
(198,241,o),
(267,241,c),
(230,274,l),
(336,0,l),
(434,0,l),
(332,261,l),
(404,287,o),
(450,366,o),
(450,482,cs),
(450,634,o),
(377,727,o),
(252,727,cs),
(127,727,o),
(58,635,o),
(58,485,cs),
(58,0,l)
);
},
{
closed = 1;
nodes = (
(190,321,o),
(150,374,o),
(150,484,cs),
(150,594,o),
(187,647,o),
(255,647,cs),
(321,647,o),
(359,593,o),
(359,484,cs),
(359,375,o),
(320,321,o),
(255,321,cs)
);
}
);
width = 504;
}
);
metricLeft = "te-canadian";
metricRight = "=|tlhe-canadian";
note = uni1587;
unicode = 5511;
},
{
glyphname = "tlho-canadian";
lastChange = "2023-01-13 15:31:28 +0000";
layers = (
{
anchors = (
{
name = top_center_can;
pos = (263,714);
}
);
layerId = "7D3FB2DB-72C7-4646-AA25-FB3BBECA0225";
shapes = (
{
closed = 1;
nodes = (
(378,-13,o),
(446,79,o),
(446,229,cs),
(446,714,l),
(354,714,l),
(354,357,l),
(362,381,l),
(350,431,o),
(307,473,o),
(238,473,c),
(275,440,l),
(169,714,l),
(71,714,l),
(173,453,l),
(101,427,o),
(54,348,o),
(54,232,cs),
(54,80,o),
(128,-13,o),
(253,-13,cs)
);
},
{
closed = 1;
nodes = (
(183,67,o),
(146,121,o),
(146,230,cs),
(146,339,o),
(185,393,o),
(250,393,cs),
(315,393,o),
(355,340,o),
(355,230,cs),
(355,120,o),
(318,67,o),
(250,67,cs)
);
}
);
width = 504;
}
);
metricLeft = "tlhe-canadian";
metricRight = "te-canadian";
note = uni1588;
unicode = 5512;
},
{
glyphname = "tlha-canadian";
lastChange = "2023-01-13 15:28:11 +0000";
layers = (
{
layerId = "7D3FB2DB-72C7-4646-AA25-FB3BBECA0225";
shapes = (
{
closed = 1;
nodes = (
(377,-13,o),
(450,80,o),
(450,232,cs),
(450,348,o),
(404,427,o),
(332,453,c),
(434,714,l),
(336,714,l),
(230,440,l),
(302,468,l),
(291,471,o),
(279,473,o),
(267,473,cs),
(198,473,o),
(154,431,o),
(143,381,c),
(151,357,l),
(151,714,l),
(58,714,l),
(58,229,ls),
(58,79,o),
(127,-13,o),
(252,-13,cs)
);
},
{
closed = 1;
nodes = (
(187,67,o),
(150,120,o),
(150,230,cs),
(150,340,o),
(190,393,o),
(255,393,cs),
(320,393,o),
(359,339,o),
(359,230,cs),
(359,121,o),
(321,67,o),
(255,67,cs)
);
}
);
width = 505;
}
);
metricLeft = "te-canadian";
note = uni1589;
unicode = 5513;
},
{
glyphname = "reWestCree-canadian";
lastChange = "2023-01-13 15:28:11 +0000";
layers = (
{
layerId = "7D3FB2DB-72C7-4646-AA25-FB3BBECA0225";
shapes = (
{
closed = 1;
nodes = (
(423,0,l),
(620,201,l),
(563,260,l),
(372,66,l),
(433,62,l),
(433,480,ls),
(433,634,o),
(367,727,o),
(243,727,cs),
(120,727,o),
(49,638,o),
(49,484,cs),
(49,401,l),
(142,401,l),
(142,500,ls),
(142,592,o),
(175,645,o),
(242,645,cs),
(306,645,o),
(340,593,o),
(340,496,cs),
(340,0,l)
);
}
);
width = 641;
}
);
metricLeft = "ce-canadian";
metricRight = "heNunavik-canadian";
note = uni158A;
unicode = 5514;
},
{
glyphname = "riWestCree-canadian";
lastChange = "2023-01-13 15:31:28 +0000";
layers = (
{
layerId = "7D3FB2DB-72C7-4646-AA25-FB3BBECA0225";
shapes = (
{
closed = 1;
nodes = (
(301,0,l),
(301,496,ls),
(301,593,o),
(335,645,o),
(399,645,cs),
(466,645,o),
(499,592,o),
(499,500,cs),
(499,401,l),
(591,401,l),
(591,484,ls),
(591,638,o),
(521,727,o),
(398,727,cs),
(274,727,o),
(208,634,o),
(208,479,cs),
(208,62,l),
(268,66,l),
(77,260,l),
(21,201,l),
(218,0,l)
);
}
);
width = 640;
}
);
metricLeft = "=|heNunavik-canadian";
metricRight = "=|ce-canadian";
note = uni158B;
unicode = 5515;
},
{
glyphname = "roWestCree-canadian";
lastChange = "2023-01-13 15:28:11 +0000";
layers = (
{
layerId = "7D3FB2DB-72C7-4646-AA25-FB3BBECA0225";
shapes = (
{
closed = 1;
nodes = (
(366,-13,o),
(433,80,o),
(433,235,cs),
(433,652,l),
(372,648,l),
(563,454,l),
(620,513,l),
(423,714,l),
(340,714,l),
(340,218,ls),
(340,121,o),
(306,69,o),
(242,69,cs),
(175,69,o),
(142,122,o),
(142,214,cs),
(142,313,l),
(49,313,l),
(49,230,ls),
(49,76,o),
(120,-13,o),
(243,-13,cs)
);
}
);
width = 641;
}
);
metricLeft = "ce-canadian";
metricRight = "heNunavik-canadian";
note = uni158C;
unicode = 5516;
},
{
glyphname = "raWestCree-canadian";
lastChange = "2023-01-13 15:31:28 +0000";
layers = (
{
layerId = "7D3FB2DB-72C7-4646-AA25-FB3BBECA0225";
shapes = (
{
closed = 1;
nodes = (
(521,-13,o),
(591,76,o),
(591,230,cs),
(591,313,l),
(499,313,l),
(499,214,ls),
(499,122,o),
(466,69,o),
(399,69,cs),
(335,69,o),
(301,121,o),
(301,218,cs),
(301,714,l),
(218,714,l),
(21,513,l),
(77,454,l),
(268,648,l),
(208,652,l),
(208,234,ls),
(208,80,o),
(274,-13,o),
(398,-13,cs)
);
}
);
width = 640;
}
);
metricLeft = "=|heNunavik-canadian";
metricRight = "=|ce-canadian";
note = uni158D;
unicode = 5517;
},
{
glyphname = "ng-canadian";
kernLeft = mwestleft;
kernRight = mwestright;
lastChange = "2023-01-13 15:28:11 +0000";
layers = (
{
layerId = "7D3FB2DB-72C7-4646-AA25-FB3BBECA0225";
shapes = (
{
closed = 1;
nodes = (
(453,225,o),
(495,267,o),
(495,347,cs),
(495,378,l),
(435,378,l),
(435,340,ls),
(435,296,o),
(417,277,o),
(387,277,cs),
(356,277,o),
(340,297,o),
(340,345,cs),
(340,510,l),
(213,510,l),
(214,482,l),
(240,496,o),
(255,540,o),
(255,588,cs),
(255,672,o),
(215,720,o),
(148,720,cs),
(82,720,o),
(41,671,o),
(41,585,cs),
(41,500,o),
(82,449,o),
(153,449,cs),
(292,449,l),
(276,467,l),
(276,352,ls),
(276,268,o),
(317,225,o),
(386,225,cs)
);
},
{
closed = 1;
nodes = (
(117,498,o),
(98,525,o),
(98,585,cs),
(98,645,o),
(117,671,o),
(149,671,cs),
(180,671,o),
(197,644,o),
(197,585,cs),
(197,525,o),
(179,498,o),
(148,498,cs)
);
}
);
width = 525;
}
);
metricLeft = "n-canadian";
metricRight = "c-canadian";
note = uni1595;
unicode = 5525;
},
{
glyphname = "nng-canadian";
kernLeft = mwestleft;
kernRight = mwestright;
lastChange = "2023-01-13 15:31:28 +0000";
layers = (
{
layerId = "7D3FB2DB-72C7-4646-AA25-FB3BBECA0225";
shapes = (
{
closed = 1;
nodes = (
(701,225,o),
(743,267,o),
(743,347,cs),
(743,378,l),
(683,378,l),
(683,340,ls),
(683,296,o),
(666,277,o),
(635,277,cs),
(604,277,o),
(588,297,o),
(588,345,cs),
(588,510,l),
(463,510,l),
(463,482,l),
(489,496,o),
(503,540,o),
(503,588,cs),
(503,674,o),
(463,720,o),
(396,720,cs),
(331,720,o),
(290,671,o),
(290,585,cs),
(290,539,o),
(304,495,o),
(330,481,c),
(331,510,l),
(214,510,l),
(214,482,l),
(240,496,o),
(255,540,o),
(255,588,cs),
(255,672,o),
(215,720,o),
(148,720,cs),
(82,720,o),
(41,671,o),
(41,585,cs),
(41,500,o),
(82,449,o),
(153,449,cs),
(524,449,l),
(524,352,ls),
(524,268,o),
(565,225,o),
(635,225,cs)
);
},
{
closed = 1;
nodes = (
(117,498,o),
(98,525,o),
(98,585,cs),
(98,645,o),
(117,671,o),
(149,671,cs),
(180,671,o),
(197,644,o),
(197,585,cs),
(197,525,o),
(179,498,o),
(148,498,cs)
);
},
{
closed = 1;
nodes = (
(366,498,o),
(347,525,o),
(347,585,cs),
(347,645,o),
(366,671,o),
(397,671,cs),
(428,671,o),
(446,644,o),
(446,585,cs),
(446,525,o),
(427,498,o),
(397,498,cs)
);
}
);
width = 773;
}
);
metricLeft = "n-canadian";
metricRight = "c-canadian";
note = uni1596;
unicode = 5526;
},
{
glyphname = "sheSayisi-canadian";
lastChange = "2023-01-13 15:31:28 +0000";
layers = (
{
anchors = (
{
name = middle_right_can;
pos = (557,357);
},
{
name = top_center_can;
pos = (252,714);
}
);
layerId = "7D3FB2DB-72C7-4646-AA25-FB3BBECA0225";
shapes = (
{
closed = 1;
nodes = (
(446,0,l),
(446,466,ls),
(446,633,o),
(380,727,o),
(252,727,cs),
(125,727,o),
(51,631,o),
(51,454,cs),
(51,286,o),
(109,207,o),
(191,207,cs),
(266,207,o),
(311,261,o),
(306,426,c),
(265,426,l),
(268,308,o),
(242,284,o),
(209,284,cs),
(166,284,o),
(140,329,o),
(140,457,cs),
(140,591,o),
(179,647,o),
(249,647,cs),
(318,647,o),
(353,591,o),
(353,462,cs),
(353.002,0,l)
);
}
);
width = 504;
}
);
metricLeft = "ke-canadian";
metricRight = "te-canadian";
note = uni1597;
unicode = 5527;
},
{
glyphname = "shiSayisi-canadian";
lastChange = "2023-01-13 15:28:11 +0000";
layers = (
{
layerId = "7D3FB2DB-72C7-4646-AA25-FB3BBECA0225";
shapes = (
{
closed = 1;
nodes = (
(152,0,l),
(152,462,ls),
(152,591,o),
(187,647,o),
(256,647,cs),
(326,647,o),
(364,591,o),
(364,457,cs),
(364,329,o),
(339,284,o),
(295,284,cs),
(263,284,o),
(236,308,o),
(240,426,c),
(199,426,l),
(194,261,o),
(239,207,o),
(314,207,cs),
(396,207,o),
(454,286,o),
(454,455,cs),
(454,631,o),
(380,727,o),
(254,727,cs),
(125,727,o),
(58,633,o),
(58,466,cs),
(58,0,l)
);
}
);
width = 505;
}
);
metricLeft = "te-canadian";
metricRight = "=|ke-canadian";
note = uni1598;
unicode = 5528;
},
{
glyphname = "shoSayisi-canadian";
lastChange = "2023-01-13 15:31:28 +0000";
layers = (
{
anchors = (
{
name = top_center_can;
pos = (248,714);
},
{
name = top_left_can;
pos = (95,714);
},
{
name = top_right_can;
pos = (400,714);
}
);
layerId = "7D3FB2DB-72C7-4646-AA25-FB3BBECA0225";
shapes = (
{
closed = 1;
nodes = (
(380,-13,o),
(446,81,o),
(446,248,cs),
(446,714,l),
(353.002,714,l),
(353,252,ls),
(353,123,o),
(318,67,o),
(249,67,cs),
(179,67,o),
(140,123,o),
(140,257,cs),
(140,385,o),
(166,430,o),
(209,430,cs),
(242,430,o),
(268,406,o),
(265,288,c),
(306,288,l),
(311,453,o),
(266,507,o),
(191,507,cs),
(109,507,o),
(51,428,o),
(51,259,cs),
(51,83,o),
(125,-13,o),
(251,-13,cs)
);
}
);
width = 504;
}
);
metricLeft = "ke-canadian";
metricRight = "te-canadian";
note = uni1599;
unicode = 5529;
},
{
glyphname = "shaSayisi-canadian";
lastChange = "2023-01-13 15:28:11 +0000";
layers = (
{
layerId = "7D3FB2DB-72C7-4646-AA25-FB3BBECA0225";
shapes = (
{
closed = 1;
nodes = (
(380,-13,o),
(454,83,o),
(454,260,cs),
(454,428,o),
(396,507,o),
(314,507,cs),
(239,507,o),
(194,453,o),
(199,288,c),
(240,288,l),
(236,406,o),
(263,430,o),
(295,430,cs),
(339,430,o),
(364,385,o),
(364,257,cs),
(364,123,o),
(326,67,o),
(256,67,cs),
(187,67,o),
(152,123,o),
(152,252,cs),
(152,714,l),
(58,714,l),
(58,248,ls),
(58,81,o),
(125,-13,o),
(253,-13,cs)
);
}
);
width = 505;
}
);
metricLeft = "te-canadian";
metricRight = "=|ke-canadian";
note = uni159A;
unicode = 5530;
},
{
glyphname = "theWoodScree-canadian";
lastChange = "2023-01-13 15:28:11 +0000";
layers = (
{
layerId = "7D3FB2DB-72C7-4646-AA25-FB3BBECA0225";
shapes = (
{
closed = 1;
nodes = (
(553,-13,o),
(631,74,o),
(631,241,cs),
(631,409,o),
(555,495,o),
(420,495,cs),
(54,495,l),
(54,417,l),
(316,417,l),
(311,433,l),
(261,399,o),
(236,321,o),
(236,237,cs),
(236,74,o),
(311,-13,o),
(433,-13,cs)
);
},
{
closed = 1;
nodes = (
(365,67,o),
(327,123,o),
(327,242,cs),
(327,355,o),
(365,416,o),
(433,416,cs),
(501,416,o),
(540,361,o),
(540,242,cs),
(540,123,o),
(502,67,o),
(433,67,cs)
);
},
{
closed = 1;
nodes = (
(622,636,l),
(622,714,l),
(54,714,l),
(54,636,l)
);
}
);
width = 686;
}
);
note = uni159B;
unicode = 5531;
},
{
glyphname = "thiWoodScree-canadian";
kernRight = niright;
lastChange = "2023-01-13 15:28:11 +0000";
layers = (
{
layerId = "7D3FB2DB-72C7-4646-AA25-FB3BBECA0225";
shapes = (
{
closed = 1;
nodes = (
(375,-13,o),
(450,74,o),
(450,237,cs),
(450,321,o),
(425,399,o),
(375,434,c),
(370,417,l),
(631,417,l),
(631,495,l),
(265,495,ls),
(131,495,o),
(54,408,o),
(54,241,cs),
(54,74,o),
(132,-13,o),
(252,-13,cs)
);
},
{
closed = 1;
nodes = (
(183,67,o),
(146,123,o),
(146,242,cs),
(146,361,o),
(184,416,o),
(252,416,cs),
(321,416,o),
(358,355,o),
(358,242,cs),
(358,123,o),
(321,67,o),
(252,67,cs)
);
},
{
closed = 1;
nodes = (
(631,636,l),
(631,714,l),
(63,714,l),
(63,636,l)
);
}
);
width = 686;
}
);
metricLeft = "theWoodScree-canadian";
metricRight = "theWoodScree-canadian";
note = uni159C;
unicode = 5532;
},
{
glyphname = "thoWoodScree-canadian";
lastChange = "2023-01-13 15:28:11 +0000";
layers = (
{
layerId = "7D3FB2DB-72C7-4646-AA25-FB3BBECA0225";
shapes = (
{
closed = 1;
nodes = (
(421,0,ls),
(555,0,o),
(631,87,o),
(631,254,cs),
(631,421,o),
(554,509,o),
(433,509,cs),
(311,509,o),
(236,421,o),
(236,258,cs),
(236,174,o),
(261,96,o),
(311,62,c),
(316,78,l),
(54,78,l),
(54,0,l)
);
},
{
closed = 1;
nodes = (
(365,79,o),
(327,140,o),
(327,253,cs),
(327,372,o),
(365,428,o),
(433,428,cs),
(502,428,o),
(540,373,o),
(540,253,cs),
(540,134,o),
(501,79,o),
(433,79,cs)
);
},
{
closed = 1;
nodes = (
(622,636,l),
(622,714,l),
(54,714,l),
(54,636,l)
);
}
);
width = 686;
}
);
metricLeft = "theWoodScree-canadian";
metricRight = "theWoodScree-canadian";
note = uni159D;
unicode = 5533;
},
{
glyphname = "thaWoodScree-canadian";
lastChange = "2023-01-13 15:28:11 +0000";
layers = (
{
layerId = "7D3FB2DB-72C7-4646-AA25-FB3BBECA0225";
shapes = (
{
closed = 1;
nodes = (
(631,0,l),
(631,78,l),
(370,78,l),
(375,62,l),
(425,96,o),
(450,174,o),
(450,258,cs),
(450,421,o),
(375,509,o),
(252,509,cs),
(132,509,o),
(54,421,o),
(54,254,cs),
(54,87,o),
(131,0,o),
(265.005,0,cs)
);
},
{
closed = 1;
nodes = (
(184,79,o),
(146,134,o),
(146,253,cs),
(146,373,o),
(183,428,o),
(252,428,cs),
(321,428,o),
(358,372,o),
(358,253,cs),
(358,140,o),
(321,79,o),
(252,79,cs)
);
},
{
closed = 1;
nodes = (
(631,636,l),
(631,714,l),
(63,714,l),
(63,636,l)
);
}
);
width = 686;
}
);
metricLeft = "theWoodScree-canadian";
metricRight = "theWoodScree-canadian";
note = uni159E;
unicode = 5534;
},
{
glyphname = "thWoodScree-canadian";
lastChange = "2023-01-13 15:28:11 +0000";
layers = (
{
layerId = "7D3FB2DB-72C7-4646-AA25-FB3BBECA0225";
shapes = (
{
closed = 1;
nodes = (
(366,357,l),
(366,413,l),
(221,413,l),
(224,390,l),
(250,404,o),
(265,447,o),
(265,496,cs),
(265,579,o),
(225,628,o),
(158,628,cs),
(92,628,o),
(51,578,o),
(51,493,cs),
(51,408,o),
(92,357,o),
(163,357,cs)
);
},
{
closed = 1;
nodes = (
(127,405,o),
(108,433,o),
(108,493,cs),
(108,553,o),
(127,579,o),
(159,579,cs),
(190,579,o),
(207,552,o),
(207,492,cs),
(207,433,o),
(189,405,o),
(158,405,cs)
);
},
{
closed = 1;
nodes = (
(360,690,l),
(360,746,l),
(55,746,l),
(55,690,l)
);
}
);
width = 417;
}
);
metricRight = "=|";
note = uni159F;
unicode = 5535;
},
{
glyphname = "lhi-canadian";
kernRight = niright;
lastChange = "2023-01-13 15:28:11 +0000";
layers = (
{
anchors = (
{
name = top_center_can;
pos = (377,714);
},
{
name = top_right_can;
pos = (462,714);
}
);
layerId = "7D3FB2DB-72C7-4646-AA25-FB3BBECA0225";
shapes = (
{
closed = 1;
nodes = (
(307,0,l),
(307,83,l),
(291,83,ls),
(194,83,o),
(143,138,o),
(143,245,cs),
(143,354,o),
(194,410,o),
(289,410,cs),
(628,410,l),
(628,486,l),
(479,752,l),
(407,710,l),
(556,444,l),
(556,495,l),
(285,495,ls),
(140,495,o),
(51,408,o),
(51,246,cs),
(51,86,o),
(138,0,o),
(284,0,cs)
);
}
);
width = 676;
}
);
metricLeft = "ke-canadian";
metricRight = "=|ne-canadian";
note = uni15A0;
unicode = 5536;
},
{
glyphname = "lho-canadian";
kernLeft = noleft;
lastChange = "2023-01-13 15:28:11 +0000";
layers = (
{
anchors = (
{
name = top_center_can;
pos = (332,513);
},
{
name = top_right_can;
pos = (422,513);
}
);
layerId = "7D3FB2DB-72C7-4646-AA25-FB3BBECA0225";
shapes = (
{
closed = 1;
nodes = (
(268,-216,l),
(120,51,l),
(119,-1,l),
(391,-1,ls),
(536,-1,o),
(625,86,o),
(625,248,cs),
(625,409,o),
(537,495,o),
(392,495,cs),
(368,495,l),
(368,412,l),
(384,412,ls),
(482,412,o),
(532,356,o),
(532,250,cs),
(532,140,o),
(481,84,o),
(387,84,cs),
(48,84,l),
(48,9,l),
(196,-259,l)
);
}
);
width = 676;
}
);
metricLeft = "ne-canadian";
metricRight = "=|ke-canadian";
note = uni15A2;
unicode = 5538;
},
{
glyphname = "lha-canadian";
kernRight = naright;
lastChange = "2023-01-13 15:28:11 +0000";
layers = (
{
anchors = (
{
name = top_center_can;
pos = (346,513);
},
{
name = top_left_can;
pos = (254,513);
}
);
layerId = "7D3FB2DB-72C7-4646-AA25-FB3BBECA0225";
shapes = (
{
closed = 1;
nodes = (
(628,9,l),
(628,85,l),
(289,85,ls),
(194,85,o),
(143,140,o),
(143,250,cs),
(143,357,o),
(194,412,o),
(291,412,cs),
(307,412,l),
(307,495,l),
(284,495,ls),
(138,495,o),
(51,409,o),
(51,249,cs),
(51,87,o),
(139.992,0,o),
(285,0,cs),
(556,0,l),
(556,51,l),
(407,-216,l),
(479,-258,l)
);
}
);
width = 676;
}
);
metricLeft = "ke-canadian";
metricRight = "=|ne-canadian";
note = uni15A4;
unicode = 5540;
},
{
glyphname = "lh-canadian";
kernLeft = mwestleft;
kernRight = mwestright;
lastChange = "2023-01-13 15:28:11 +0000";
layers = (
{
layerId = "7D3FB2DB-72C7-4646-AA25-FB3BBECA0225";
shapes = (
{
closed = 1;
nodes = (
(363,363,l),
(363,418,l),
(217,418,ls),
(144,418,o),
(112,461,o),
(112,536,cs),
(112,610,o),
(144,653,o),
(207,653,cs),
(214,653,l),
(214,714,l),
(204,714,ls),
(101,714,o),
(49,641,o),
(49,536,cs),
(49,427,o),
(101,357,o),
(216,357,cs),
(321,357,l),
(314,393,l),
(231,244,l),
(281,215,l)
);
}
);
width = 412;
}
);
metricLeft = "t-canadian";
metricRight = "=|";
note = uni15A6;
unicode = 5542;
},
{
glyphname = "theThCree-canadian";
lastChange = "2023-01-13 15:28:11 +0000";
layers = (
{
anchors = (
{
name = top_left_can;
pos = (83,714);
},
{
name = top_right_can;
pos = (373,714);
}
);
layerId = "7D3FB2DB-72C7-4646-AA25-FB3BBECA0225";
shapes = (
{
closed = 1;
nodes = (
(419,0,l),
(419,108,l),
(483,108,l),
(483,164,l),
(419,164,l),
(419,334,l),
(139,334,l),
(158,304,l),
(438,674,l),
(371,726,l),
(37,282,l),
(37,251,l),
(326,251,l),
(326,164,l),
(135,164,l),
(135,108,l),
(326,108,l),
(326,0,l)
);
}
);
width = 514;
}
);
metricLeft = "ye-canadian";
note = uni15A7;
unicode = 5543;
},
{
glyphname = "thiThCree-canadian";
kernRight = yiright;
lastChange = "2023-01-13 15:28:11 +0000";
layers = (
{
anchors = (
{
name = top_left_can;
pos = (142,714);
},
{
name = top_right_can;
pos = (432,714);
}
);
layerId = "7D3FB2DB-72C7-4646-AA25-FB3BBECA0225";
shapes = (
{
closed = 1;
nodes = (
(188,0,l),
(188,108,l),
(380,108,l),
(380,164,l),
(188,164,l),
(188,251,l),
(477,251,l),
(477,282,l),
(144,726,l),
(76,674,l),
(363,296,l),
(376,334,l),
(95,334,l),
(95,164,l),
(31,164,l),
(31,108,l),
(95,108,l),
(95,0,l)
);
}
);
width = 514;
}
);
metricLeft = "=|theThCree-canadian";
metricRight = "=|ye-canadian";
note = uni15A8;
unicode = 5544;
},
{
glyphname = "thoThCree-canadian";
kernLeft = yoleft;
lastChange = "2023-01-13 15:28:11 +0000";
layers = (
{
anchors = (
{
name = top_left_can;
pos = (83,714);
},
{
name = top_right_can;
pos = (373,714);
}
);
layerId = "7D3FB2DB-72C7-4646-AA25-FB3BBECA0225";
shapes = (
{
closed = 1;
nodes = (
(438,40,l),
(157,409,l),
(139,380,l),
(419,380,l),
(419,550,l),
(483,550,l),
(483,606,l),
(419,606,l),
(419,714,l),
(326,714,l),
(326,606,l),
(135,606,l),
(135,550,l),
(326,550,l),
(326,463,l),
(37,463,l),
(37,432,l),
(371,-12,l)
);
}
);
width = 514;
}
);
metricLeft = "ye-canadian";
metricRight = "theThCree-canadian";
note = uni15AA;
unicode = 5546;
},
{
glyphname = "thaThCree-canadian";
kernRight = yaright;
lastChange = "2023-01-13 15:28:11 +0000";
layers = (
{
anchors = (
{
name = top_left_can;
pos = (142,714);
},
{
name = top_right_can;
pos = (432,714);
}
);
layerId = "7D3FB2DB-72C7-4646-AA25-FB3BBECA0225";
shapes = (
{
closed = 1;
nodes = (
(477,432,l),
(477,463,l),
(188,463,l),
(188,550,l),
(380,550,l),
(380,606,l),
(188,606,l),
(188,714,l),
(95,714,l),
(95,606,l),
(31,606,l),
(31,550,l),
(95,550,l),
(95,380,l),
(376,380,l),
(357,409,l),
(76,40,l),
(144,-12,l)
);
}
);
width = 514;
}
);
metricLeft = "=|theThCree-canadian";
metricRight = "=|ye-canadian";
note = uni15AC;
unicode = 5548;
},
{
glyphname = "thThCree-canadian";
kernLeft = mwestleft;
kernRight = mwestright;
lastChange = "2023-01-13 15:31:28 +0000";
layers = (
{
layerId = "7D3FB2DB-72C7-4646-AA25-FB3BBECA0225";
shapes = (
{
closed = 1;
nodes = (
(274,568,l),
(274,588,l),
(135,588,l),
(135,635,l),
(224,635,l),
(224,667,l),
(135,667,l),
(135,714,l),
(71,714,l),
(71,667,l),
(38,667,l),
(38,635,l),
(71,635,l),
(71,533,l),
(220,533,l),
(206,572,l),
(66,381,l),
(114,349,l)
);
}
);
width = 301;
}
);
metricRight = "y-canadian";
note = uni15AE;
unicode = 5550;
},
{
glyphname = "bAivilik-canadian";
lastChange = "2023-01-13 15:28:11 +0000";
layers = (
{
layerId = "7D3FB2DB-72C7-4646-AA25-FB3BBECA0225";
shapes = (
{
closed = 1;
nodes = (
(380,-13,o),
(451,84,o),
(451,250,cs),
(451,411,o),
(381,509,o),
(272,509,cs),
(205,509,o),
(158,467,o),
(147,411,c),
(155,385,l),
(155,714,l),
(62,714,l),
(62,0,l),
(147,0,l),
(147,104,l),
(143,88,l),
(158,29,o),
(202,-13,o),
(274,-13,cs)
);
},
{
closed = 1;
nodes = (
(191,67,o),
(154,124,o),
(154,247,cs),
(154,371,o),
(192,428,o),
(257,428,cs),
(322,428,o),
(359,371,o),
(359,247,cs),
(359,124,o),
(323,67,o),
(257,67,cs)
);
}
);
width = 502;
}
);
metricLeft = "nunavuth-canadian";
metricRight = "=|ke-canadian";
note = uni15AF;
unicode = 5551;
},
{
glyphname = "eBlackfoot-canadian";
lastChange = "2023-01-13 15:28:11 +0000";
layers = (
{
layerId = "7D3FB2DB-72C7-4646-AA25-FB3BBECA0225";
shapes = (
{
closed = 1;
nodes = (
(155,0,l),
(155,420,l),
(181,383,o),
(221,362,o),
(268,362,cs),
(360,362,o),
(420,440,o),
(420,545,cs),
(420,650,o),
(360,727,o),
(268,727,cs),
(217,727,o),
(175,703,o),
(151,662,c),
(151,714,l),
(62,714,l),
(62,0,l)
);
}
);
width = 458;
}
);
metricLeft = "nunavuth-canadian";
note = uni15B0;
unicode = 5552;
},
{
glyphname = "iBlackfoot-canadian";
lastChange = "2023-01-13 15:31:28 +0000";
layers = (
{
layerId = "7D3FB2DB-72C7-4646-AA25-FB3BBECA0225";
shapes = (
{
closed = 1;
nodes = (
(240,-13,o),
(282,11,o),
(307,52,c),
(307,0,l),
(396,0,l),
(396,714,l),
(302,714,l),
(302,294,l),
(276,331,o),
(236,352,o),
(189,352,cs),
(97,352,o),
(38,274,o),
(38,169,cs),
(38,64,o),
(97,-13,o),
(189,-13,cs)
);
}
);
width = 458;
}
);
metricLeft = "=|eBlackfoot-canadian";
metricRight = "nunavuth-canadian";
note = uni15B1;
unicode = 5553;
},
{
glyphname = "oBlackfoot-canadian";
lastChange = "2023-01-13 15:28:11 +0000";
layers = (
{
layerId = "7D3FB2DB-72C7-4646-AA25-FB3BBECA0225";
shapes = (
{
closed = 1;
nodes = (
(360,-13,o),
(420,64,o),
(420,169,cs),
(420,274,o),
(360,352,o),
(268,352,cs),
(221,352,o),
(181,331,o),
(155,294,c),
(155,714,l),
(62,714,l),
(62,0,l),
(151,0,l),
(151,52,l),
(175,11,o),
(217,-13,o),
(268,-13,cs)
);
}
);
width = 458;
}
);
metricLeft = "nunavuth-canadian";
metricRight = "eBlackfoot-canadian";
note = uni15B2;
unicode = 5554;
},
{
glyphname = "aBlackfoot-canadian";
lastChange = "2023-01-13 15:31:28 +0000";
layers = (
{
layerId = "7D3FB2DB-72C7-4646-AA25-FB3BBECA0225";
shapes = (
{
closed = 1;
nodes = (
(396,0,l),
(396,714,l),
(307,714,l),
(307,662,l),
(282,703,o),
(240,727,o),
(189,727,cs),
(97,727,o),
(38,650,o),
(38,545,cs),
(38,440,o),
(97,362,o),
(189,362,cs),
(236,362,o),
(276,383,o),
(302,420,c),
(302,0,l)
);
}
);
width = 458;
}
);
metricLeft = "=|eBlackfoot-canadian";
metricRight = "nunavuth-canadian";
note = uni15B3;
unicode = 5555;
},
{
glyphname = "weBlackfoot-canadian";
lastChange = "2023-01-13 15:28:11 +0000";
layers = (
{
layerId = "7D3FB2DB-72C7-4646-AA25-FB3BBECA0225";
shapes = (
{
closed = 1;
nodes = (
(155,316,l),
(437,316,l),
(437,397,l),
(155,397,l),
(155,633,l),
(437,633,l),
(437,714,l),
(62,714,l),
(62,0,l),
(155,0,l)
);
}
);
width = 484;
}
);
metricLeft = "nunavuth-canadian";
note = uni15B4;
unicode = 5556;
},
{
glyphname = "wiBlackfoot-canadian";
lastChange = "2023-01-13 15:28:11 +0000";
layers = (
{
layerId = "7D3FB2DB-72C7-4646-AA25-FB3BBECA0225";
shapes = (
{
closed = 1;
nodes = (
(422,0,l),
(422,714,l),
(329.003,714,l),
(329,398,l),
(47,398,l),
(47,317,l),
(329,317,l),
(329,81,l),
(47,81,l),
(47,0,l)
);
}
);
width = 484;
}
);
metricLeft = "=|weBlackfoot-canadian";
metricRight = "nunavuth-canadian";
note = uni15B5;
unicode = 5557;
},
{
glyphname = "woBlackfoot-canadian";
lastChange = "2023-01-13 15:28:11 +0000";
layers = (
{
layerId = "7D3FB2DB-72C7-4646-AA25-FB3BBECA0225";
shapes = (
{
closed = 1;
nodes = (
(437,0,l),
(437,81,l),
(155,81,l),
(155,317,l),
(437,317,l),
(437,398,l),
(155,398,l),
(155,714,l),
(62,714,l),
(62,0,l)
);
}
);
width = 484;
}
);
metricLeft = "nunavuth-canadian";
metricRight = "weBlackfoot-canadian";
note = uni15B6;
unicode = 5558;
},
{
glyphname = "waBlackfoot-canadian";
lastChange = "2023-01-13 15:28:11 +0000";
layers = (
{
layerId = "7D3FB2DB-72C7-4646-AA25-FB3BBECA0225";
shapes = (
{
closed = 1;
nodes = (
(422,0,l),
(422,714,l),
(47,714,l),
(47,633,l),
(329,633,l),
(329,397,l),
(47,397,l),
(47,316,l),
(329,316,l),
(329.003,0,l)
);
}
);
width = 484;
}
);
metricLeft = "=|weBlackfoot-canadian";
metricRight = "nunavuth-canadian";
note = uni15B7;
unicode = 5559;
},
{
glyphname = "neBlackfoot-canadian";
lastChange = "2023-01-13 15:28:11 +0000";
layers = (
{
layerId = "7D3FB2DB-72C7-4646-AA25-FB3BBECA0225";
shapes = (
{
closed = 1;
nodes = (
(155,0,l),
(155,644,l),
(201,644,l),
(172,695,l),
(172,668,ls),
(172,505,o),
(238,414,o),
(363,414,cs),
(486,414,o),
(560,507,o),
(560,666,cs),
(560,714,l),
(468.002,714,l),
(468,656,ls),
(468,552,o),
(433,496,o),
(365,496,cs),
(298,496,o),
(263,551,o),
(263,655,cs),
(263,714,l),
(62,714,l),
(62,0,l)
);
}
);
width = 593;
}
);
metricLeft = "nunavuth-canadian";
note = uni15B8;
unicode = 5560;
},
{
glyphname = "niBlackfoot-canadian";
lastChange = "2023-01-13 15:28:11 +0000";
layers = (
{
layerId = "7D3FB2DB-72C7-4646-AA25-FB3BBECA0225";
shapes = (
{
closed = 1;
nodes = (
(125,0,l),
(125,58,ls),
(125,162,o),
(160,218,o),
(228,218,cs),
(295,218,o),
(330,163,o),
(330,59,cs),
(330,0,l),
(531,0,l),
(531,714,l),
(438,714,l),
(438,70,l),
(392,70,l),
(421,19,l),
(421,46,ls),
(421,209,o),
(355,300,o),
(230,300,cs),
(107,300,o),
(33,207,o),
(33,48,cs),
(33,0,l)
);
}
);
width = 593;
}
);
metricLeft = "=|neBlackfoot-canadian";
metricRight = "nunavuth-canadian";
note = uni15B9;
unicode = 5561;
},
{
glyphname = "noBlackfoot-canadian";
lastChange = "2023-01-13 15:28:11 +0000";
layers = (
{
layerId = "7D3FB2DB-72C7-4646-AA25-FB3BBECA0225";
shapes = (
{
closed = 1;
nodes = (
(263,0,l),
(263,59,ls),
(263,163,o),
(298,218,o),
(365,218,cs),
(433,218,o),
(468,162,o),
(468,58,cs),
(468.002,0,l),
(560,0,l),
(560,48,ls),
(560,207,o),
(486,300,o),
(363,300,cs),
(238,300,o),
(172,209,o),
(172,46,cs),
(172,19,l),
(201,70,l),
(155,70,l),
(155,714,l),
(62,714,l),
(62,0,l)
);
}
);
width = 593;
}
);
metricLeft = "nunavuth-canadian";
metricRight = "neBlackfoot-canadian";
note = uni15BA;
unicode = 5562;
},
{
glyphname = "naBlackfoot-canadian";
lastChange = "2023-01-13 15:28:11 +0000";
layers = (
{
layerId = "7D3FB2DB-72C7-4646-AA25-FB3BBECA0225";
shapes = (
{
closed = 1;
nodes = (
(531,0,l),
(531,714,l),
(330,714,l),
(330,655,ls),
(330,551,o),
(295,496,o),
(228,496,cs),
(160,496,o),
(125,552,o),
(125,656,cs),
(125,714,l),
(33,714,l),
(33,666,ls),
(33,507,o),
(107,414,o),
(230,414,cs),
(355,414,o),
(421,505,o),
(421,668,cs),
(421,695,l),
(392,644,l),
(438,644,l),
(438,0,l)
);
}
);
width = 593;
}
);
metricLeft = "=|neBlackfoot-canadian";
metricRight = "nunavuth-canadian";
note = uni15BB;
unicode = 5563;
},
{
glyphname = "keBlackfoot-canadian";
lastChange = "2023-01-13 15:28:11 +0000";
layers = (
{
layerId = "7D3FB2DB-72C7-4646-AA25-FB3BBECA0225";
shapes = (
{
closed = 1;
nodes = (
(155,0,l),
(155,606,l),
(122,606,l),
(268,265,l),
(311,265,l),
(505,714,l),
(412,714,l),
(264,367,l),
(297,367,l),
(149,714,l),
(62,714,l),
(62,0,l)
);
}
);
width = 526;
}
);
metricLeft = "nunavuth-canadian";
note = uni15BC;
unicode = 5564;
},
{
glyphname = "kiBlackfoot-canadian";
lastChange = "2023-01-13 15:31:28 +0000";
layers = (
{
layerId = "7D3FB2DB-72C7-4646-AA25-FB3BBECA0225";
shapes = (
{
closed = 1;
nodes = (
(114,0,l),
(263,347,l),
(229,347,l),
(377,0,l),
(465,0,l),
(465,714,l),
(371,714,l),
(371,108,l),
(404,108,l),
(258,449,l),
(216,449,l),
(21,0,l)
);
}
);
width = 527;
}
);
metricLeft = "=|keBlackfoot-canadian";
metricRight = "nunavuth-canadian";
note = uni15BD;
unicode = 5565;
},
{
glyphname = "koBlackfoot-canadian";
lastChange = "2023-01-13 15:28:11 +0000";
layers = (
{
layerId = "7D3FB2DB-72C7-4646-AA25-FB3BBECA0225";
shapes = (
{
closed = 1;
nodes = (
(149,0,l),
(297,347,l),
(264,347,l),
(412,0,l),
(505,0,l),
(311,449,l),
(268,449,l),
(122,108,l),
(155,108,l),
(155,714,l),
(62,714,l),
(62,0,l)
);
}
);
width = 526;
}
);
metricLeft = "nunavuth-canadian";
metricRight = "keBlackfoot-canadian";
note = uni15BE;
unicode = 5566;
},
{
glyphname = "kaBlackfoot-canadian";
lastChange = "2023-01-13 15:31:28 +0000";
layers = (
{
layerId = "7D3FB2DB-72C7-4646-AA25-FB3BBECA0225";
shapes = (
{
closed = 1;
nodes = (
(465,0,l),
(465,714,l),
(377,714,l),
(229,367,l),
(263,367,l),
(114,714,l),
(21,714,l),
(216,265,l),
(258,265,l),
(404,606,l),
(371,606,l),
(371,0,l)
);
}
);
width = 527;
}
);
metricLeft = "=|keBlackfoot-canadian";
metricRight = "nunavuth-canadian";
note = uni15BF;
unicode = 5567;
},
{
color = 9;
glyphname = "heSayisi-canadian";
lastChange = "2023-01-13 15:28:11 +0000";
layers = (
{
anchors = (
{
name = top_right_can;
pos = (456,714);
}
);
layerId = "7D3FB2DB-72C7-4646-AA25-FB3BBECA0225";
shapes = (
{
closed = 1;
nodes = (
(502,0,l),
(502,714,l),
(410,714,l),
(410,313,l),
(425,313,l),
(421,573,o),
(343,727,o),
(216,727,cs),
(107,727,o),
(44,640,o),
(44,467,cs),
(44,431,o),
(47,386,o),
(55,348,c),
(143,348,l),
(137,382,o),
(134,428,o),
(134,455,cs),
(134,592,o),
(173,645,o),
(237,645,cs),
(342,645,o),
(407,469,o),
(409,0,c)
);
}
);
width = 564;
}
);
metricRight = "nunavuth-canadian";
note = uni15C0;
unicode = 5568;
},
{
color = 9;
glyphname = "hiSayisi-canadian";
lastChange = "2023-01-13 15:28:11 +0000";
layers = (
{
layerId = "7D3FB2DB-72C7-4646-AA25-FB3BBECA0225";
shapes = (
{
closed = 1;
nodes = (
(155,0,l),
(157,469,o),
(222,645,o),
(327,645,cs),
(391,645,o),
(430,592,o),
(430,455,cs),
(430,428,o),
(427,382,o),
(421,348,c),
(509,348,l),
(517,386,o),
(520,431,o),
(520,467,cs),
(520,640,o),
(457,727,o),
(348,727,cs),
(221,727,o),
(144,573,o),
(139,313,c),
(154,313,l),
(154,714,l),
(62,714,l),
(62,0,l)
);
}
);
width = 564;
}
);
metricLeft = "nunavuth-canadian";
metricRight = "=|heSayisi-canadian";
note = uni15C1;
unicode = 5569;
},
{
color = 9;
glyphname = "hoSayisi-canadian";
lastChange = "2023-01-13 15:28:11 +0000";
layers = (
{
anchors = (
{
name = top_center_can;
pos = (277,714);
},
{
name = top_left_can;
pos = (98,714);
},
{
name = top_right_can;
pos = (457,714);
}
);
layerId = "7D3FB2DB-72C7-4646-AA25-FB3BBECA0225";
shapes = (
{
closed = 1;
nodes = (
(343,-13,o),
(421,141,o),
(425,401,c),
(410,401,l),
(410,0,l),
(502,0,l),
(502,714,l),
(409,714,l),
(407,245,o),
(342,69,o),
(237,69,cs),
(173,69,o),
(134,122,o),
(134,259,cs),
(134,286,o),
(137,332,o),
(143,366,c),
(55,366,l),
(47,328,o),
(44,283,o),
(44,247,cs),
(44,74,o),
(107,-13,o),
(216,-13,cs)
);
}
);
width = 564;
}
);
metricLeft = "heSayisi-canadian";
metricRight = "nunavuth-canadian";
note = uni15C2;
unicode = 5570;
},
{
color = 9;
glyphname = "haSayisi-canadian";
lastChange = "2023-01-13 15:28:11 +0000";
layers = (
{
layerId = "7D3FB2DB-72C7-4646-AA25-FB3BBECA0225";
shapes = (
{
closed = 1;
nodes = (
(457,-13,o),
(520,74,o),
(520,247,cs),
(520,283,o),
(517,328,o),
(509,366,c),
(421,366,l),
(427,332,o),
(430,286,o),
(430,259,cs),
(430,122,o),
(391,69,o),
(327,69,cs),
(222,69,o),
(157,245,o),
(155,714,c),
(62,714,l),
(62,0,l),
(154,0,l),
(154,401,l),
(139,401,l),
(144,141,o),
(221,-13,o),
(348,-13,cs)
);
}
);
width = 564;
}
);
metricLeft = "nunavuth-canadian";
metricRight = "=|heSayisi-canadian";
note = uni15C3;
unicode = 5571;
},
{
color = 9;
glyphname = "ghuCarrier-canadian";
lastChange = "2023-01-13 15:28:11 +0000";
layers = (
{
layerId = "7D3FB2DB-72C7-4646-AA25-FB3BBECA0225";
shapes = (
{
closed = 1;
nodes = (
(314,0,l),
(571,688,l),
(571,714,l),
(495,714,l),
(411,482,l),
(459,498,l),
(139,498,l),
(188,480,l),
(103,714,l),
(26,714,l),
(26,688,l),
(283,0,l)
);
},
{
closed = 1;
nodes = (
(437,428,l),
(400,440,l),
(284,117,l),
(314,117,l),
(198,442,l),
(162,428,l)
);
}
);
width = 597;
}
);
metricLeft = "e-canadian";
metricRight = "e-canadian";
note = uni15C4;
unicode = 5572;
},
{
color = 9;
glyphname = "ghoCarrier-canadian";
lastChange = "2023-01-13 15:28:11 +0000";
layers = (
{
layerId = "7D3FB2DB-72C7-4646-AA25-FB3BBECA0225";
shapes = (
{
closed = 1;
nodes = (
(103,0,l),
(188,234,l),
(139,216,l),
(459,216,l),
(411,232,l),
(495,0,l),
(571,0,l),
(571,26,l),
(314,714,l),
(283,714,l),
(26,26,l),
(26,0,l)
);
},
{
closed = 1;
nodes = (
(314,597,l),
(284,597,l),
(400,274,l),
(437,286,l),
(162,286,l),
(198,272,l)
);
}
);
width = 597;
}
);
metricLeft = "e-canadian";
metricRight = "e-canadian";
note = uni15C5;
unicode = 5573;
},
{
color = 9;
glyphname = "gheCarrier-canadian";
lastChange = "2023-01-13 15:31:28 +0000";
layers = (
{
anchors = (
{
name = middle_center_can;
pos = (63,357);
}
);
layerId = "7D3FB2DB-72C7-4646-AA25-FB3BBECA0225";
shapes = (
{
closed = 1;
nodes = (
(66,0,l),
(514,340,l),
(514,374,l),
(66,714,l),
(42,714,l),
(42,638,l),
(174,537,l),
(166,582,l),
(166,129,l),
(174,176,l),
(42,75,l),
(42,0,l)
);
},
{
closed = 1;
nodes = (
(232,545,l),
(215,516,l),
(453,333,l),
(453,381,l),
(215,200,l),
(232,170,l)
);
}
);
width = 544;
}
);
metricLeft = "po-canadian";
metricRight = "o-canadian";
note = uni15C6;
unicode = 5574;
},
{
color = 9;
glyphname = "ghaCarrier-canadian";
lastChange = "2023-01-13 15:28:11 +0000";
layers = (
{
layerId = "7D3FB2DB-72C7-4646-AA25-FB3BBECA0225";
shapes = (
{
closed = 1;
nodes = (
(503,0,l),
(503,75,l),
(372,176,l),
(380,137,l),
(380,577,l),
(372,537,l),
(503,638,l),
(503,714,l),
(479,714,l),
(30,374,l),
(30,340,l),
(479,0,l)
);
},
{
closed = 1;
nodes = (
(330,198,l),
(92,381,l),
(92,332,l),
(330,515,l),
(314,529,l),
(314,190,l)
);
}
);
width = 545;
}
);
metricLeft = "=|o-canadian";
metricRight = "=|po-canadian";
note = uni15C9;
unicode = 5577;
},
{
color = 9;
glyphname = "ruCarrier-canadian";
lastChange = "2023-01-13 15:28:11 +0000";
layers = (
{
layerId = "7D3FB2DB-72C7-4646-AA25-FB3BBECA0225";
shapes = (
{
closed = 1;
nodes = (
(314,0,l),
(571,688,l),
(571,714,l),
(496,714,l),
(461,619,l),
(485,634,l),
(112,634,l),
(139,619,l),
(104,714,l),
(26,714,l),
(26,688,l),
(283,0,l)
);
},
{
closed = 1;
nodes = (
(465,564,l),
(452,582,l),
(286,118,l),
(316,118,l),
(150,582,l),
(132,564,l)
);
}
);
width = 597;
}
);
metricLeft = "e-canadian";
metricRight = "e-canadian";
note = uni15CA;
unicode = 5578;
},
{
color = 9;
glyphname = "roCarrier-canadian";
lastChange = "2023-01-13 15:28:11 +0000";
layers = (
{
layerId = "7D3FB2DB-72C7-4646-AA25-FB3BBECA0225";
shapes = (
{
closed = 1;
nodes = (
(104,0,l),
(138,95,l),
(113,80,l),
(486,80,l),
(460,95,l),
(495,0,l),
(571,0,l),
(571,26,l),
(314,714,l),
(283,714,l),
(26,26,l),
(26,0,l)
);
},
{
closed = 1;
nodes = (
(314,597,l),
(283,597,l),
(450,132,l),
(467,150,l),
(134,150,l),
(148,132,l)
);
}
);
width = 597;
}
);
metricLeft = "e-canadian";
metricRight = "e-canadian";
note = uni15CB;
unicode = 5579;
},
{
color = 9;
glyphname = "reCarrier-canadian";
lastChange = "2023-01-13 15:31:28 +0000";
layers = (
{
layerId = "7D3FB2DB-72C7-4646-AA25-FB3BBECA0225";
shapes = (
{
closed = 1;
nodes = (
(66,0,l),
(514,340,l),
(514,374,l),
(66,714,l),
(42,714,l),
(42,636,l),
(108,585,l),
(97,612,l),
(97,101,l),
(108,129,l),
(42,77,l),
(42,0,l)
);
},
{
closed = 1;
nodes = (
(164,590,l),
(152,559,l),
(447,332,l),
(447,381,l),
(152,155,l),
(164,122,l)
);
}
);
width = 544;
}
);
metricLeft = "po-canadian";
metricRight = "o-canadian";
note = uni15CC;
unicode = 5580;
},
{
color = 9;
glyphname = "reeCarrier-canadian";
lastChange = "2023-01-13 15:31:28 +0000";
layers = (
{
layerId = "7D3FB2DB-72C7-4646-AA25-FB3BBECA0225";
shapes = (
{
closed = 1;
nodes = (
(66,0,l),
(514,340,l),
(514,374,l),
(66,714,l),
(42,714,l),
(42,647,l),
(108,595,l),
(97,613,l),
(97,100,l),
(108,118,l),
(42,67,l),
(42,0,l)
);
},
{
closed = 1;
nodes = (
(156,590,l),
(146,574,l),
(462,332,l),
(462,381,l),
(145,138,l),
(156,124,l)
);
},
{
closed = 1;
nodes = (
(241,272,l),
(241,443,l),
(206,443,l),
(206,272,l)
);
}
);
width = 544;
}
);
metricLeft = "po-canadian";
metricRight = "o-canadian";
note = uni15CD;
unicode = 5581;
},
{
color = 9;
glyphname = "riCarrier-canadian";
lastChange = "2023-01-13 15:31:28 +0000";
layers = (
{
layerId = "7D3FB2DB-72C7-4646-AA25-FB3BBECA0225";
shapes = (
{
closed = 1;
nodes = (
(66,0,l),
(514,340,l),
(514,374,l),
(66,714,l),
(42,714,l),
(42,647,l),
(108,595,l),
(97,613,l),
(97,100,l),
(108,118,l),
(42,67,l),
(42,0,l)
);
},
{
closed = 1;
nodes = (
(260,318,o),
(278,335,o),
(278,357,cs),
(278,379,o),
(260,396,o),
(238,396,cs),
(218,396,o),
(200,379,o),
(200,357,cs),
(200,335,o),
(218,318,o),
(238,318,cs)
);
},
{
closed = 1;
nodes = (
(156,590,l),
(146,574,l),
(462,332,l),
(462,381,l),
(145,138,l),
(156,124,l)
);
}
);
width = 544;
}
);
metricLeft = "po-canadian";
metricRight = "o-canadian";
note = uni15CE;
unicode = 5582;
},
{
color = 9;
glyphname = "raCarrier-canadian";
lastChange = "2023-01-13 15:28:11 +0000";
layers = (
{
layerId = "7D3FB2DB-72C7-4646-AA25-FB3BBECA0225";
shapes = (
{
closed = 1;
nodes = (
(503,0,l),
(503,78,l),
(437,129,l),
(448,81,l),
(448,634,l),
(437,585,l),
(503,637,l),
(503,714,l),
(479,714,l),
(30,374,l),
(30,340,l),
(479,0,l)
);
},
{
closed = 1;
nodes = (
(393,560,l),
(381,592,l),
(381,123,l),
(393,155,l),
(98,382,l),
(98,333,l)
);
}
);
width = 545;
}
);
metricLeft = "=|o-canadian";
metricRight = "=|po-canadian";
note = uni15CF;
unicode = 5583;
},
{
color = 9;
glyphname = "wuCarrier-canadian";
lastChange = "2023-01-13 15:31:28 +0000";
layers = (
{
layerId = "7D3FB2DB-72C7-4646-AA25-FB3BBECA0225";
shapes = (
{
closed = 1;
nodes = (
(318,0,l),
(580,688,l),
(580,714,l),
(509,714,l),
(321,178,l),
(341,178,l),
(341,714,l),
(271,714,l),
(271,178,l),
(291,178,l),
(101,714,l),
(26,714,l),
(26,688,l),
(287,0,l)
);
}
);
width = 606;
}
);
metricLeft = "e-canadian";
metricRight = "e-canadian";
note = uni15D0;
unicode = 5584;
},
{
color = 9;
glyphname = "woCarrier-canadian";
lastChange = "2023-01-13 15:31:28 +0000";
layers = (
{
layerId = "7D3FB2DB-72C7-4646-AA25-FB3BBECA0225";
shapes = (
{
closed = 1;
nodes = (
(100,0,l),
(289,536,l),
(268,536,l),
(268,0,l),
(339,0,l),
(339,536,l),
(318,536,l),
(508,0,l),
(580,0,l),
(580,26,l),
(318,714,l),
(287,714,l),
(26,26,l),
(26,0,l)
);
}
);
width = 606;
}
);
metricLeft = "e-canadian";
metricRight = "e-canadian";
note = uni15D1;
unicode = 5585;
},
{
color = 9;
glyphname = "weCarrier-canadian";
lastChange = "2023-01-13 15:31:28 +0000";
layers = (
{
layerId = "7D3FB2DB-72C7-4646-AA25-FB3BBECA0225";
shapes = (
{
closed = 1;
nodes = (
(84,0,l),
(533,340,l),
(533,374,l),
(84,714,l),
(60,714,l),
(60,638,l),
(404,377,l),
(404,393,l),
(65,393,l),
(65,321,l),
(405,321,l),
(405,336,l),
(60,75,l),
(60,0,l)
);
}
);
width = 563;
}
);
metricRight = "o-canadian";
note = uni15D2;
unicode = 5586;
},
{
color = 9;
glyphname = "weeCarrier-canadian";
lastChange = "2023-01-13 15:31:28 +0000";
layers = (
{
layerId = "7D3FB2DB-72C7-4646-AA25-FB3BBECA0225";
shapes = (
{
closed = 1;
nodes = (
(84,0,l),
(533,340,l),
(533,374,l),
(84,714,l),
(60,714,l),
(60,643,l),
(434,363,l),
(441,387,l),
(182,387,l),
(182,460,l),
(131,460,l),
(131,387,l),
(60,387,l),
(60,328,l),
(131,328,l),
(131,255,l),
(182,255,l),
(182,328,l),
(442,328,l),
(435,351,l),
(60,70,l),
(60,0,l)
);
}
);
width = 563;
}
);
metricLeft = "weCarrier-canadian";
metricRight = "o-canadian";
note = uni15D3;
unicode = 5587;
},
{
color = 9;
glyphname = "wiCarrier-canadian";
lastChange = "2023-01-13 15:31:28 +0000";
layers = (
{
layerId = "7D3FB2DB-72C7-4646-AA25-FB3BBECA0225";
shapes = (
{
closed = 1;
nodes = (
(84,0,l),
(533,340,l),
(533,374,l),
(84,714,l),
(60,714,l),
(60,643,l),
(434,363,l),
(441,387,l),
(237,387,l),
(227,409,o),
(205,424,o),
(179,424,cs),
(153,424,o),
(130,409,o),
(120,387,c),
(60,387,l),
(60,328,l),
(120,328,l),
(130,306,o),
(153,290,o),
(179,290,cs),
(204,290,o),
(227,306,o),
(237,328,c),
(442,328,l),
(435,351,l),
(60,70,l),
(60,0,l)
);
}
);
width = 563;
}
);
metricLeft = "weCarrier-canadian";
metricRight = "o-canadian";
note = uni15D4;
unicode = 5588;
},
{
color = 9;
glyphname = "waCarrier-canadian";
lastChange = "2023-01-13 15:31:28 +0000";
layers = (
{
layerId = "7D3FB2DB-72C7-4646-AA25-FB3BBECA0225";
shapes = (
{
closed = 1;
nodes = (
(503,0,l),
(503,76,l),
(159,336,l),
(159,321,l),
(499,321,l),
(499,393,l),
(159,393,l),
(159,377,l),
(503,638,l),
(503,714,l),
(480,714,l),
(30,374,l),
(30,340,l),
(479,0,l)
);
}
);
width = 563;
}
);
metricLeft = "=|o-canadian";
metricRight = "=|weCarrier-canadian";
note = uni15D5;
unicode = 5589;
},
{
color = 9;
glyphname = "hwuCarrier-canadian";
lastChange = "2023-01-13 15:31:28 +0000";
layers = (
{
layerId = "7D3FB2DB-72C7-4646-AA25-FB3BBECA0225";
shapes = (
{
closed = 1;
nodes = (
(318,0,l),
(580,688,l),
(580,714,l),
(513,714,l),
(435,500,l),
(460,509,l),
(332,509,l),
(332,714,l),
(275,714,l),
(275,509,l),
(143,509,l),
(172,501,l),
(95,714,l),
(26,714,l),
(26,688,l),
(287,0,l)
);
},
{
closed = 1;
nodes = (
(279,457,l),
(279,146,l),
(294,148,l),
(182,465,l),
(150,457,l)
);
},
{
closed = 1;
nodes = (
(328,457,l),
(454,457,l),
(426,465,l),
(314,150,l),
(328,147,l)
);
}
);
width = 606;
}
);
metricLeft = "e-canadian";
metricRight = "e-canadian";
note = uni15D6;
unicode = 5590;
},
{
color = 9;
glyphname = "hwoCarrier-canadian";
lastChange = "2023-01-13 15:31:28 +0000";
layers = (
{
layerId = "7D3FB2DB-72C7-4646-AA25-FB3BBECA0225";
shapes = (
{
closed = 1;
nodes = (
(95,0,l),
(173,214,l),
(149,201,l),
(274,201,l),
(274,0,l),
(331,0,l),
(331,201,l),
(467,201,l),
(435,213,l),
(512,0,l),
(580,0,l),
(580,26,l),
(318,714,l),
(287,714,l),
(26,26,l),
(26,0,l)
);
},
{
closed = 1;
nodes = (
(292,562,l),
(278,565,l),
(278,261,l),
(168,261,l),
(181,249,l)
);
},
{
closed = 1;
nodes = (
(447,261,l),
(327,261,l),
(327,566,l),
(313,564,l),
(425,249,l)
);
}
);
width = 606;
}
);
metricLeft = "e-canadian";
metricRight = "e-canadian";
note = uni15D7;
unicode = 5591;
},
{
color = 9;
glyphname = "hweCarrier-canadian";
lastChange = "2023-01-13 15:31:28 +0000";
layers = (
{
layerId = "7D3FB2DB-72C7-4646-AA25-FB3BBECA0225";
shapes = (
{
closed = 1;
nodes = (
(84,0,l),
(533,340,l),
(533,374,l),
(84,714,l),
(60,714,l),
(60,643,l),
(179,554,l),
(179,388,l),
(60,388,l),
(60,326,l),
(179,326,l),
(179,159,l),
(60,69,l),
(60,0,l)
);
},
{
closed = 1;
nodes = (
(228,332,l),
(420,332,l),
(228,187,l)
);
},
{
closed = 1;
nodes = (
(228,526,l),
(419,383,l),
(228,383,l)
);
}
);
width = 563;
}
);
metricLeft = "weCarrier-canadian";
metricRight = "o-canadian";
note = uni15D8;
unicode = 5592;
},
{
color = 9;
glyphname = "hweeCarrier-canadian";
lastChange = "2023-01-13 15:31:28 +0000";
layers = (
{
layerId = "7D3FB2DB-72C7-4646-AA25-FB3BBECA0225";
shapes = (
{
closed = 1;
nodes = (
(84,0,l),
(533,340,l),
(533,374,l),
(84,714,l),
(60,714,l),
(60,647,l),
(202,542,l),
(202,384,l),
(158,384,l),
(158,459,l),
(115,459,l),
(115,384,l),
(60,384,l),
(60,331,l),
(115,331,l),
(115,256,l),
(158,256,l),
(158,331,l),
(202,331,l),
(202,172,l),
(60,65,l),
(60,0,l)
);
},
{
closed = 1;
nodes = (
(247,335,l),
(423,335,l),
(247,198,l)
);
},
{
closed = 1;
nodes = (
(247,515,l),
(422,380,l),
(247,380,l)
);
}
);
width = 563;
}
);
metricLeft = "weCarrier-canadian";
metricRight = "o-canadian";
note = uni15D9;
unicode = 5593;
},
{
color = 9;
glyphname = "hwiCarrier-canadian";
lastChange = "2023-01-13 15:31:28 +0000";
layers = (
{
layerId = "7D3FB2DB-72C7-4646-AA25-FB3BBECA0225";
shapes = (
{
closed = 1;
nodes = (
(84,0,l),
(533,340,l),
(533,374,l),
(84,714,l),
(60,714,l),
(60,647,l),
(202,542,l),
(202,380,l),
(184,380,l),
(176,400,o),
(158,414,o),
(136,414,cs),
(114,414,o),
(96,400,o),
(88,380,c),
(60,380,l),
(60,335,l),
(87,335,l),
(95,315,o),
(114,301,o),
(136,301,cs),
(157,301,o),
(176,315,o),
(184,335,c),
(202,335,l),
(202,172,l),
(60,65,l),
(60,0,l)
);
},
{
closed = 1;
nodes = (
(247,335,l),
(423,335,l),
(247,198,l)
);
},
{
closed = 1;
nodes = (
(247,515,l),
(422,380,l),
(247,380,l)
);
}
);
width = 563;
}
);
metricLeft = "weCarrier-canadian";
metricRight = "o-canadian";
note = uni15DA;
unicode = 5594;
},
{
color = 9;
glyphname = "hwaCarrier-canadian";
lastChange = "2023-01-13 15:31:28 +0000";
layers = (
{
layerId = "7D3FB2DB-72C7-4646-AA25-FB3BBECA0225";
shapes = (
{
closed = 1;
nodes = (
(503,0,l),
(503,70,l),
(385,159,l),
(385,326,l),
(503,326,l),
(503,388,l),
(385,388,l),
(385,554,l),
(503,644,l),
(503,714,l),
(480,714,l),
(30,374,l),
(30,340,l),
(479,0,l)
);
},
{
closed = 1;
nodes = (
(144,331,l),
(335,331,l),
(335,187,l)
);
},
{
closed = 1;
nodes = (
(335,526,l),
(335,382,l),
(144,382,l)
);
}
);
width = 563;
}
);
metricLeft = "=|o-canadian";
metricRight = "=|weCarrier-canadian";
note = uni15DB;
unicode = 5595;
},
{
color = 9;
glyphname = "thuCarrier-canadian";
lastChange = "2023-01-13 15:28:11 +0000";
layers = (
{
layerId = "7D3FB2DB-72C7-4646-AA25-FB3BBECA0225";
shapes = (
{
closed = 1;
nodes = (
(455,-13,o),
(544,81,o),
(544,262,cs),
(544,714,l),
(58,714,l),
(58,260,ls),
(58,81,o),
(150,-13,o),
(301,-13,cs)
);
},
{
closed = 1;
nodes = (
(151,630,l),
(451,630,l),
(451,262,ls),
(451,131,o),
(397,74,o),
(301,74,cs),
(207,74,o),
(151,134,o),
(151,262,cs)
);
}
);
width = 602;
}
);
metricLeft = "te-canadian";
metricRight = "te-canadian";
note = uni15DC;
unicode = 5596;
},
{
color = 9;
glyphname = "thoCarrier-canadian";
lastChange = "2023-01-13 15:28:11 +0000";
layers = (
{
layerId = "7D3FB2DB-72C7-4646-AA25-FB3BBECA0225";
shapes = (
{
closed = 1;
nodes = (
(544,0,l),
(544,454,ls),
(544,633,o),
(452,727,o),
(301,727,cs),
(147,727,o),
(58,633,o),
(58,452,cs),
(58,0,l)
);
},
{
closed = 1;
nodes = (
(151,452,ls),
(151,582,o),
(205,640,o),
(301,640,cs),
(395,640,o),
(451,580,o),
(451,452,cs),
(451,84,l),
(151,84,l)
);
}
);
width = 602;
}
);
metricLeft = "te-canadian";
metricRight = "te-canadian";
note = uni15DD;
unicode = 5597;
},
{
color = 9;
glyphname = "theCarrier-canadian";
lastChange = "2023-01-13 15:28:11 +0000";
layers = (
{
anchors = (
{
name = middle_center_can;
pos = (294,357);
}
);
layerId = "7D3FB2DB-72C7-4646-AA25-FB3BBECA0225";
shapes = (
{
closed = 1;
nodes = (
(225,0,ls),
(431,0,o),
(537,124,o),
(537,358,cs),
(537,592,o),
(431,714,o),
(222,714,cs),
(62,714,l),
(62,0,l)
);
},
{
closed = 1;
nodes = (
(155,659,l),
(127,631,l),
(222,631,ls),
(376,631,o),
(444,544,o),
(444,358,cs),
(444,173,o),
(376,83,o),
(225,83,cs),
(127,83,l),
(155,55,l)
);
}
);
width = 588;
}
);
metricLeft = "nunavuth-canadian";
metricRight = "to-canadian";
note = uni15DE;
unicode = 5598;
},
{
color = 9;
glyphname = "thaCarrier-canadian";
lastChange = "2023-01-13 15:28:11 +0000";
layers = (
{
layerId = "7D3FB2DB-72C7-4646-AA25-FB3BBECA0225";
shapes = (
{
closed = 1;
nodes = (
(526,0,l),
(526,714,l),
(363,714,ls),
(157,714,o),
(51,590,o),
(51,356,cs),
(51,122,o),
(157,0,o),
(366,0,cs)
);
},
{
closed = 1;
nodes = (
(144,541,o),
(211,631,o),
(362,631,cs),
(461,631,l),
(433,659,l),
(433,55,l),
(461,83,l),
(365,83,ls),
(211,83,o),
(144,170,o),
(144,356,cs)
);
}
);
width = 588;
}
);
metricLeft = "=|theCarrier-canadian";
metricRight = "nunavuth-canadian";
note = uni15E1;
unicode = 5601;
},
{
color = 9;
glyphname = "ttuCarrier-canadian";
lastChange = "2023-01-13 15:28:11 +0000";
layers = (
{
layerId = "7D3FB2DB-72C7-4646-AA25-FB3BBECA0225";
shapes = (
{
closed = 1;
nodes = (
(455,-13,o),
(544,81,o),
(544,262,cs),
(544,714,l),
(513,714,l),
(289,524,l),
(314,524,l),
(90,714,l),
(58,714,l),
(58,260,ls),
(58,81,o),
(150,-13,o),
(301,-13,cs)
);
},
{
closed = 1;
nodes = (
(207,74,o),
(151,134,o),
(151,262,cs),
(151,641,l),
(69,637,l),
(292,448,l),
(311,448,l),
(534,637,l),
(451,641,l),
(451,262,ls),
(451,131,o),
(397,74,o),
(301,74,cs)
);
}
);
width = 602;
}
);
metricLeft = "te-canadian";
metricRight = "te-canadian";
note = uni15E2;
unicode = 5602;
},
{
color = 9;
glyphname = "ttoCarrier-canadian";
lastChange = "2023-01-13 15:28:11 +0000";
layers = (
{
layerId = "7D3FB2DB-72C7-4646-AA25-FB3BBECA0225";
shapes = (
{
closed = 1;
nodes = (
(89,0,l),
(313,190,l),
(288,190,l),
(512,0,l),
(544,0,l),
(544,454,ls),
(544,633,o),
(452,727,o),
(301,727,cs),
(147,727,o),
(58,633,o),
(58,452,cs),
(58,0,l)
);
},
{
closed = 1;
nodes = (
(395,640,o),
(451,580,o),
(451,452,cs),
(451,73,l),
(533,77,l),
(310,266,l),
(291,266,l),
(68,77,l),
(151,73,l),
(151,452,ls),
(151,583,o),
(205,640,o),
(301,640,cs)
);
}
);
width = 602;
}
);
metricLeft = "te-canadian";
metricRight = "te-canadian";
note = uni15E3;
unicode = 5603;
},
{
color = 9;
glyphname = "tteCarrier-canadian";
lastChange = "2023-01-13 15:28:11 +0000";
layers = (
{
anchors = (
{
name = middle_center_can;
pos = (339,357);
}
);
layerId = "7D3FB2DB-72C7-4646-AA25-FB3BBECA0225";
shapes = (
{
closed = 1;
nodes = (
(235,0,ls),
(441,0,o),
(547,124,o),
(547,358,cs),
(547,592,o),
(441,714,o),
(232,714,cs),
(57,714,l),
(57,688,l),
(160,343,l),
(160,371,l),
(57,26,l),
(57,0,l)
);
},
{
closed = 1;
nodes = (
(245,347,l),
(245,364,l),
(142,706,l),
(142,631,l),
(233,631,ls),
(387,631,o),
(454,544,o),
(454,358,cs),
(454,173,o),
(387,83,o),
(236,83,cs),
(142,83,l),
(142,5,l)
);
}
);
width = 598;
}
);
metricRight = "theCarrier-canadian";
note = uni15E4;
unicode = 5604;
},
{
color = 9;
glyphname = "ttaCarrier-canadian";
lastChange = "2023-01-13 15:28:11 +0000";
layers = (
{
layerId = "7D3FB2DB-72C7-4646-AA25-FB3BBECA0225";
shapes = (
{
closed = 1;
nodes = (
(541,0,l),
(541,26,l),
(438,371,l),
(438,343,l),
(541,688,l),
(541,714,l),
(363,714,ls),
(157,714,o),
(51,590,o),
(51,356,cs),
(51,122,o),
(157,0,o),
(366,0,cs)
);
},
{
closed = 1;
nodes = (
(456,83,l),
(365,83,ls),
(211,83,o),
(144,170,o),
(144,356,cs),
(144,541,o),
(211,631,o),
(362,631,cs),
(456,631,l),
(456,709,l),
(353,367,l),
(353,350,l),
(456,8,l)
);
}
);
width = 598;
}
);
metricLeft = "=|theCarrier-canadian";
metricRight = "=|tteCarrier-canadian";
note = uni15E7;
unicode = 5607;
},
{
color = 9;
glyphname = "puCarrier-canadian";
lastChange = "2023-01-13 15:28:11 +0000";
layers = (
{
layerId = "7D3FB2DB-72C7-4646-AA25-FB3BBECA0225";
shapes = (
{
closed = 1;
nodes = (
(455,-13,o),
(544,81,o),
(544,262,cs),
(544,714,l),
(450,714,l),
(450,546,l),
(152,546,l),
(152,714,l),
(58,714,l),
(58,260,ls),
(58,81,o),
(150,-13,o),
(301,-13,cs)
);
},
{
closed = 1;
nodes = (
(207,74,o),
(152,134,o),
(152,262,cs),
(152,463,l),
(450,463,l),
(450,262,ls),
(450,131,o),
(397,74,o),
(301,74,cs)
);
}
);
width = 602;
}
);
metricLeft = "te-canadian";
metricRight = "te-canadian";
note = uni15E8;
unicode = 5608;
},
{
color = 9;
glyphname = "poCarrier-canadian";
lastChange = "2023-01-13 15:28:11 +0000";
layers = (
{
layerId = "7D3FB2DB-72C7-4646-AA25-FB3BBECA0225";
shapes = (
{
closed = 1;
nodes = (
(152,0,l),
(152,168,l),
(450,168,l),
(450,0,l),
(544,0,l),
(544,454,ls),
(544,633,o),
(453,727,o),
(301,727,cs),
(151,727,o),
(58,633,o),
(58,452,cs),
(58,0,l)
);
},
{
closed = 1;
nodes = (
(152,452,ls),
(152,582,o),
(205,640,o),
(301,640,cs),
(395,640,o),
(450,580,o),
(450,452,cs),
(450,251,l),
(152,251,l)
);
}
);
width = 602;
}
);
metricLeft = "te-canadian";
metricRight = "te-canadian";
note = uni15E9;
unicode = 5609;
},
{
color = 9;
glyphname = "peCarrier-canadian";
lastChange = "2023-01-13 15:31:28 +0000";
layers = (
{
anchors = (
{
name = middle_center_can;
pos = (327,357);
}
);
layerId = "7D3FB2DB-72C7-4646-AA25-FB3BBECA0225";
shapes = (
{
closed = 1;
nodes = (
(233,0,ls),
(439,0,o),
(545,124,o),
(545,358,cs),
(545,592,o),
(439,714,o),
(229,714,cs),
(55,714,l),
(55,631,l),
(126,631,l),
(126,83,l),
(55,83,l),
(55,0,l)
);
},
{
closed = 1;
nodes = (
(218,659,l),
(178,631,l),
(230,631,ls),
(384,631,o),
(451,544,o),
(451,358,cs),
(451,173,o),
(384,83,o),
(233,83,cs),
(178,83,l),
(218,55,l)
);
}
);
width = 596;
}
);
metricRight = "theCarrier-canadian";
note = uni15EA;
unicode = 5610;
},
{
color = 9;
glyphname = "paCarrier-canadian";
lastChange = "2023-01-13 15:31:28 +0000";
layers = (
{
layerId = "7D3FB2DB-72C7-4646-AA25-FB3BBECA0225";
shapes = (
{
closed = 1;
nodes = (
(541,0,l),
(541,83,l),
(470,83,l),
(470,631,l),
(541,631,l),
(541,714,l),
(366,714,ls),
(157,714,o),
(51,592,o),
(51,358,cs),
(51,124,o),
(157,0,o),
(363,0,cs)
);
},
{
closed = 1;
nodes = (
(417,83,l),
(362,83,ls),
(211,83,o),
(144,173,o),
(144,358,cs),
(144,544,o),
(211,631,o),
(365,631,cs),
(417,631,l),
(377,659,l),
(377,55,l)
);
}
);
width = 596;
}
);
metricLeft = "=|theCarrier-canadian";
metricRight = "=|peCarrier-canadian";
note = uni15ED;
unicode = 5613;
},
{
color = 6;
glyphname = "pCarrier-canadian";
lastChange = "2023-01-13 15:28:11 +0000";
layers = (
{
layerId = "7D3FB2DB-72C7-4646-AA25-FB3BBECA0225";
shapes = (
{
closed = 1;
nodes = (
(320,189,l),
(320,250,l),
(217,250,l),
(217,546,l),
(154,546,l),
(154,250,l),
(51,250,l),
(51,189,l)
);
}
);
width = 371;
}
);
metricLeft = "shorthorizontalstrokeFinal-canadian";
metricRight = "shorthorizontalstrokeFinal-canadian";
note = uni15EE;
unicode = 5614;
},
{
color = 9;
glyphname = "guCarrier-canadian";
lastChange = "2023-01-13 15:31:28 +0000";
layers = (
{
anchors = (
{
name = top_center_can;
pos = (355,714);
}
);
layerId = "7D3FB2DB-72C7-4646-AA25-FB3BBECA0225";
shapes = (
{
closed = 1;
nodes = (
(300,-13,o),
(353,31,o),
(375,120,c),
(335,120,l),
(361,30,o),
(413,-13,o),
(487,-13,cs),
(588,-13,o),
(653,57,o),
(653,187,cs),
(653,714,l),
(563,714,l),
(563,192,ls),
(563,110,o),
(534,72,o),
(482,72,cs),
(430,72,o),
(399,111,o),
(399,192,cs),
(399,714,l),
(312,714,l),
(312,192,ls),
(312,110,o),
(281,72,o),
(229,72,cs),
(175,72,o),
(146,110,o),
(146,192,cs),
(146,714,l),
(57,714,l),
(57,189,ls),
(57,57,o),
(123,-13,o),
(223,-13,cs)
);
}
);
width = 710;
}
);
metricRight = "=|";
note = uni15EF;
unicode = 5615;
},
{
color = 9;
glyphname = "goCarrier-canadian";
lastChange = "2023-01-13 15:31:28 +0000";
layers = (
{
layerId = "7D3FB2DB-72C7-4646-AA25-FB3BBECA0225";
shapes = (
{
closed = 1;
nodes = (
(146,0,l),
(146,522,ls),
(146,604,o),
(175,642,o),
(228,642,cs),
(279,642,o),
(311,603,o),
(311,522,cs),
(311,0,l),
(398,0,l),
(398,522,ls),
(398,604,o),
(428,642,o),
(480,642,cs),
(534,642,o),
(563,604,o),
(563,522,cs),
(563,0,l),
(653,0,l),
(653,525,ls),
(653,657,o),
(586,727,o),
(486,727,cs),
(410,727,o),
(357,683,o),
(334,594,c),
(375,594,l),
(349,684,o),
(296,727,o),
(222,727,cs),
(122,727,o),
(57,657,o),
(57,526,cs),
(57,0,l)
);
}
);
width = 710;
}
);
metricLeft = "guCarrier-canadian";
metricRight = "guCarrier-canadian";
note = uni15F0;
unicode = 5616;
},
{
color = 9;
glyphname = "geCarrier-canadian";
lastChange = "2023-01-13 15:28:11 +0000";
layers = (
{
anchors = (
{
name = top_center_can;
pos = (300,714);
}
);
layerId = "7D3FB2DB-72C7-4646-AA25-FB3BBECA0225";
shapes = (
{
closed = 1;
nodes = (
(333,0,ls),
(461,0,o),
(537,68,o),
(537,192,cs),
(537,277,o),
(490,345,o),
(417,372,c),
(417,343,l),
(492,366,o),
(537,431,o),
(537,520,cs),
(537,645,o),
(460,714,o),
(333,714,cs),
(62,714,l),
(62,636,l),
(316,636,ls),
(396,636,o),
(444,599,o),
(444,517,cs),
(444,436,o),
(396,396,o),
(317,396,cs),
(62,396,l),
(62,319,l),
(318,319,ls),
(395,319,o),
(444,278,o),
(444,196,cs),
(444,115,o),
(396,78,o),
(316,78,cs),
(62,78,l),
(62,0,l)
);
}
);
width = 596;
}
);
metricLeft = "nunavuth-canadian";
note = uni15F1;
unicode = 5617;
},
{
color = 9;
glyphname = "geeCarrier-canadian";
lastChange = "2023-01-13 15:28:11 +0000";
layers = (
{
layerId = "7D3FB2DB-72C7-4646-AA25-FB3BBECA0225";
shapes = (
{
closed = 1;
nodes = (
(333,0,ls),
(461,0,o),
(537,68,o),
(537,192,cs),
(537,277,o),
(490,345,o),
(417,372,c),
(417,343,l),
(492,366,o),
(537,431,o),
(537,520,cs),
(537,645,o),
(460,714,o),
(333,714,cs),
(62,714,l),
(62,636,l),
(316,636,ls),
(396,636,o),
(444,599,o),
(444,517,cs),
(444,436,o),
(396,395,o),
(317,395,cs),
(286,395,l),
(286,479,l),
(234,479,l),
(234,395,l),
(62,395,l),
(62,320,l),
(234,320,l),
(234,237,l),
(286,237,l),
(286,320,l),
(318,320,ls),
(395,320,o),
(444,278,o),
(444,196,cs),
(444,115,o),
(396,78,o),
(316,78,cs),
(62,78,l),
(62,0,l)
);
}
);
width = 596;
}
);
metricLeft = "geCarrier-canadian";
metricRight = "geCarrier-canadian";
note = uni15F2;
unicode = 5618;
},
{
color = 9;
glyphname = "giCarrier-canadian";
lastChange = "2023-01-13 15:28:11 +0000";
layers = (
{
layerId = "7D3FB2DB-72C7-4646-AA25-FB3BBECA0225";
shapes = (
{
closed = 1;
nodes = (
(333,0,ls),
(461,0,o),
(537,68,o),
(537,192,cs),
(537,277,o),
(490,345,o),
(417,371,c),
(417,343,l),
(492,367,o),
(537,431,o),
(537,520,cs),
(537,645,o),
(460,714,o),
(333,714,cs),
(62,714,l),
(62,636,l),
(316,636,ls),
(396,636,o),
(444,599,o),
(444,517,cs),
(444,436,o),
(396,395,o),
(325,395,cs),
(301,395,l),
(333,383,l),
(323,412,o),
(297,432,o),
(265,432,cs),
(238,432,o),
(215,417,o),
(203,395,c),
(62,395,l),
(62,320,l),
(203,320,l),
(214,297,o),
(238,282,o),
(265,282,cs),
(297,282,o),
(323,303,o),
(333,332,c),
(301,320,l),
(326,320,ls),
(395,320,o),
(444,278,o),
(444,196,cs),
(444,115,o),
(396,78,o),
(316,78,cs),
(62,78,l),
(62,0,l)
);
}
);
width = 596;
}
);
metricLeft = "geCarrier-canadian";
metricRight = "geCarrier-canadian";
note = uni15F3;
unicode = 5619;
},
{
color = 9;
glyphname = "gaCarrier-canadian";
lastChange = "2023-01-13 15:31:28 +0000";
layers = (
{
anchors = (
{
name = top_center_can;
pos = (312,714);
}
);
layerId = "7D3FB2DB-72C7-4646-AA25-FB3BBECA0225";
shapes = (
{
closed = 1;
nodes = (
(535,0,l),
(535,78,l),
(280,78,ls),
(201,78,o),
(152,115,o),
(152,196,cs),
(152,278,o),
(202,319,o),
(279,319,cs),
(535,319,l),
(535,396,l),
(279,396,ls),
(200,396,o),
(152,436,o),
(152,517,cs),
(152,599,o),
(200,636,o),
(280,636,cs),
(535,636,l),
(535,714,l),
(263,714,ls),
(137,714,o),
(59,645,o),
(59,520,cs),
(59,431,o),
(104,367,o),
(180,343,c),
(180,372,l),
(106,345,o),
(59,277,o),
(59,192,cs),
(59,68,o),
(135,0,o),
(263,0,cs)
);
}
);
width = 597;
}
);
metricLeft = "=|geCarrier-canadian";
metricRight = "=|geCarrier-canadian";
note = uni15F4;
unicode = 5620;
},
{
color = 9;
glyphname = "khuCarrier-canadian";
lastChange = "2023-01-13 15:31:28 +0000";
layers = (
{
layerId = "7D3FB2DB-72C7-4646-AA25-FB3BBECA0225";
shapes = (
{
closed = 1;
nodes = (
(301,-13,o),
(353,31,o),
(376,120,c),
(335,120,l),
(362,30,o),
(414,-13,o),
(488,-13,cs),
(588,-13,o),
(653,57,o),
(653,187,cs),
(653,714,l),
(57,714,l),
(57,189,ls),
(57,57,o),
(123,-13,o),
(223,-13,cs)
);
},
{
closed = 1;
nodes = (
(176,72,o),
(147,110,o),
(147,192,cs),
(147,632,l),
(313,632,l),
(313,192,ls),
(313,110,o),
(283,72,o),
(230,72,cs)
);
},
{
closed = 1;
nodes = (
(430,72,o),
(399,111,o),
(399,192,cs),
(399,632,l),
(563,632,l),
(563,192,ls),
(563,110,o),
(534,72,o),
(482,72,cs)
);
}
);
width = 710;
}
);
metricLeft = "guCarrier-canadian";
metricRight = "guCarrier-canadian";
note = uni15F5;
unicode = 5621;
},
{
color = 9;
glyphname = "khoCarrier-canadian";
lastChange = "2023-01-13 15:31:28 +0000";
layers = (
{
layerId = "7D3FB2DB-72C7-4646-AA25-FB3BBECA0225";
shapes = (
{
closed = 1;
nodes = (
(653,0,l),
(653,525,ls),
(653,657,o),
(586,727,o),
(486,727,cs),
(409,727,o),
(356,683,o),
(334,594,c),
(374,594,l),
(348,684,o),
(296,727,o),
(222,727,cs),
(121,727,o),
(57,657,o),
(57,526,cs),
(57,0,l)
);
},
{
closed = 1;
nodes = (
(146,522,ls),
(146,604,o),
(176,642,o),
(228,642,cs),
(280,642,o),
(311,603,o),
(311,522,cs),
(311,82,l),
(146,82,l)
);
},
{
closed = 1;
nodes = (
(396,522,ls),
(396,604,o),
(427,642,o),
(480,642,cs),
(533,642,o),
(563,604,o),
(563,522,cs),
(563,82,l),
(396,82,l)
);
}
);
width = 710;
}
);
metricLeft = "guCarrier-canadian";
metricRight = "guCarrier-canadian";
note = uni15F6;
unicode = 5622;
},
{
color = 9;
glyphname = "kheCarrier-canadian";
lastChange = "2023-01-13 15:28:11 +0000";
layers = (
{
layerId = "7D3FB2DB-72C7-4646-AA25-FB3BBECA0225";
shapes = (
{
closed = 1;
nodes = (
(337,0,ls),
(465,0,o),
(541,68,o),
(541,192,cs),
(541,277,o),
(494,345,o),
(420,372,c),
(420,343,l),
(496,366,o),
(541,431,o),
(541,520,cs),
(541,645,o),
(463,714,o),
(337,714,cs),
(62,714,l),
(62,0,l)
);
},
{
closed = 1;
nodes = (
(154,319,l),
(321,319,ls),
(398,319,o),
(447,278,o),
(447,196,cs),
(447,115,o),
(399,77,o),
(320,77,cs),
(154,77,l)
);
},
{
closed = 1;
nodes = (
(154,637,l),
(320,637,ls),
(400,637,o),
(447,599,o),
(447,517,cs),
(447,436,o),
(399,395,o),
(321,395,cs),
(154,395,l)
);
}
);
width = 600;
}
);
metricLeft = "nunavuth-canadian";
metricRight = "geCarrier-canadian";
note = uni15F7;
unicode = 5623;
},
{
color = 9;
glyphname = "kheeCarrier-canadian";
lastChange = "2023-01-13 15:28:11 +0000";
layers = (
{
layerId = "7D3FB2DB-72C7-4646-AA25-FB3BBECA0225";
shapes = (
{
closed = 1;
nodes = (
(337,0,ls),
(465,0,o),
(541,68,o),
(541,192,cs),
(541,278,o),
(494,344,o),
(418,368,c),
(418,345,l),
(495,365,o),
(541,430,o),
(541,520,cs),
(541,645,o),
(463,714,o),
(337,714,cs),
(62,714,l),
(62,0,l)
);
},
{
closed = 1;
nodes = (
(154,320,l),
(262,320,l),
(262,232,l),
(314,232,l),
(314,342,l),
(282,320,l),
(329,320,ls),
(402,320,o),
(447,278,o),
(447,196,cs),
(447,115,o),
(399,77,o),
(320,77,cs),
(154,77,l)
);
},
{
closed = 1;
nodes = (
(314,484,l),
(262,484,l),
(262,395,l),
(154,395,l),
(154,637,l),
(320,637,ls),
(400,637,o),
(447,599,o),
(447,517,cs),
(447,436,o),
(403,395,o),
(329,395,cs),
(282,395,l),
(314,373,l)
);
}
);
width = 600;
}
);
metricLeft = "nunavuth-canadian";
metricRight = "geCarrier-canadian";
note = uni15F8;
unicode = 5624;
},
{
color = 9;
glyphname = "khiCarrier-canadian";
lastChange = "2023-01-13 15:28:11 +0000";
layers = (
{
layerId = "7D3FB2DB-72C7-4646-AA25-FB3BBECA0225";
shapes = (
{
closed = 1;
nodes = (
(337,0,ls),
(465,0,o),
(541,68,o),
(541,192,cs),
(541,277,o),
(495,343,o),
(422,370,c),
(422,343,l),
(496,367,o),
(541,431,o),
(541,520,cs),
(541,645,o),
(463,714,o),
(337,714,cs),
(62,714,l),
(62,0,l)
);
},
{
closed = 1;
nodes = (
(154,324,l),
(222,324,l),
(233,299,o),
(258,282,o),
(286,282,cs),
(324,282,o),
(353,313,o),
(357,351,c),
(307,324,l),
(333,324,ls),
(402,324,o),
(447,281,o),
(447,198,cs),
(447,114,o),
(399,77,o),
(320,77,cs),
(154,77,l)
);
},
{
closed = 1;
nodes = (
(320,637,ls),
(400,637,o),
(447,600,o),
(447,515,cs),
(447,433,o),
(403,391,o),
(333,391,cs),
(307,391,l),
(357,363,l),
(353,402,o),
(324,432,o),
(286,432,cs),
(248,432,o),
(218,402,o),
(214,364,c),
(239,391,l),
(154,391,l),
(154,637,l)
);
}
);
width = 600;
}
);
metricLeft = "nunavuth-canadian";
metricRight = "geCarrier-canadian";
note = uni15F9;
unicode = 5625;
},
{
color = 9;
glyphname = "khaCarrier-canadian";
lastChange = "2023-01-13 15:28:11 +0000";
layers = (
{
layerId = "7D3FB2DB-72C7-4646-AA25-FB3BBECA0225";
shapes = (
{
closed = 1;
nodes = (
(538,0,l),
(538,714,l),
(263,714,ls),
(137,714,o),
(59,645,o),
(59,520,cs),
(59,431,o),
(103,367,o),
(178,343,c),
(177,370,l),
(105,343,o),
(59,277,o),
(59,192,cs),
(59,68,o),
(135,0,o),
(263,0,cs)
);
},
{
closed = 1;
nodes = (
(201,77,o),
(152,115,o),
(152,196,cs),
(152,278,o),
(202,319,o),
(279,319,cs),
(445,319,l),
(445,77,l),
(280,77,ls)
);
},
{
closed = 1;
nodes = (
(200,395,o),
(152,436,o),
(152,517,cs),
(152,599,o),
(200,637,o),
(280,637,cs),
(445,637,l),
(445,395,l),
(279,395,ls)
);
}
);
width = 600;
}
);
metricLeft = "=|geCarrier-canadian";
metricRight = "nunavuth-canadian";
note = uni15FA;
unicode = 5626;
},
{
color = 9;
glyphname = "kkuCarrier-canadian";
lastChange = "2023-01-13 15:31:28 +0000";
layers = (
{
layerId = "7D3FB2DB-72C7-4646-AA25-FB3BBECA0225";
shapes = (
{
closed = 1;
nodes = (
(300,-13,o),
(353,31,o),
(376,121,c),
(335,121,l),
(361,30,o),
(413,-13,o),
(487,-13,cs),
(588,-13,o),
(653,57,o),
(653,187,cs),
(653,714,l),
(622,714,l),
(382,548,l),
(382,461,l),
(585,604,l),
(563,616,l),
(563,192,ls),
(563,110,o),
(534,72,o),
(481,72,cs),
(430,72,o),
(398,111,o),
(398,192,cs),
(398,714,l),
(313,714,l),
(313,192,ls),
(313,110,o),
(282,72,o),
(230,72,cs),
(176,72,o),
(146,110,o),
(146,192,cs),
(146,616,l),
(125,603,l),
(325,462,l),
(325,551,l),
(89,714,l),
(57,714,l),
(57,189,ls),
(57,57,o),
(123,-13,o),
(223,-13,cs)
);
}
);
width = 710;
}
);
metricLeft = "guCarrier-canadian";
metricRight = "guCarrier-canadian";
note = uni15FB;
unicode = 5627;
},
{
color = 9;
glyphname = "kkoCarrier-canadian";
lastChange = "2023-01-13 15:31:28 +0000";
layers = (
{
layerId = "7D3FB2DB-72C7-4646-AA25-FB3BBECA0225";
shapes = (
{
closed = 1;
nodes = (
(88,0,l),
(327,166,l),
(327,253,l),
(124,110,l),
(146,98,l),
(146,522,ls),
(146,604,o),
(176,642,o),
(228,642,cs),
(280,642,o),
(311,603,o),
(311,522,cs),
(311,0,l),
(397,0,l),
(397,522,ls),
(397,604,o),
(428,642,o),
(480,642,cs),
(534,642,o),
(563,604,o),
(563,522,cs),
(563,98,l),
(584,111,l),
(385,252,l),
(385,163,l),
(621,0,l),
(653,0,l),
(653,525,ls),
(653,657,o),
(586,727,o),
(486,727,cs),
(409,727,o),
(356,683,o),
(334,593,c),
(375,593,l),
(349,684,o),
(296,727,o),
(222,727,cs),
(122,727,o),
(57,657,o),
(57,527,cs),
(57,0,l)
);
}
);
width = 710;
}
);
metricLeft = "guCarrier-canadian";
metricRight = "guCarrier-canadian";
note = uni15FC;
unicode = 5628;
},
{
color = 9;
glyphname = "kkeCarrier-canadian";
lastChange = "2023-01-13 15:28:11 +0000";
layers = (
{
layerId = "7D3FB2DB-72C7-4646-AA25-FB3BBECA0225";
shapes = (
{
closed = 1;
nodes = (
(351,0,ls),
(479,0,o),
(554,68,o),
(554,192,cs),
(554,277,o),
(508,343,o),
(436,370,c),
(435,343,l),
(510,367,o),
(554,431,o),
(554,520,cs),
(554,645,o),
(477,714,o),
(351,714,cs),
(60,714,l),
(60,688,l),
(147,396,l),
(66,396,l),
(66,319,l),
(148,319,l),
(60,26,l),
(60,0,l)
);
},
{
closed = 1;
nodes = (
(241,319,l),
(335,319,ls),
(412,319,o),
(461,278,o),
(461,196,cs),
(461,115,o),
(413,78,o),
(333,78,cs),
(127,78,l),
(156,38,l)
);
},
{
closed = 1;
nodes = (
(155,676,l),
(126,636,l),
(333,636,ls),
(413,636,o),
(461,599,o),
(461,517,cs),
(461,436,o),
(413,396,o),
(335,396,cs),
(239,396,l)
);
}
);
width = 613;
}
);
metricRight = "geCarrier-canadian";
note = uni15FD;
unicode = 5629;
},
{
color = 9;
glyphname = "kkeeCarrier-canadian";
lastChange = "2023-01-13 15:28:11 +0000";
layers = (
{
layerId = "7D3FB2DB-72C7-4646-AA25-FB3BBECA0225";
shapes = (
{
closed = 1;
nodes = (
(351,0,ls),
(479,0,o),
(554,68,o),
(554,192,cs),
(554,277,o),
(508,343,o),
(436,370,c),
(435,343,l),
(510,367,o),
(554,431,o),
(554,520,cs),
(554,645,o),
(477,714,o),
(351,714,cs),
(60,714,l),
(60,688,l),
(147,396,l),
(66,396,l),
(66,319,l),
(148,319,l),
(60,26,l),
(60,0,l)
);
},
{
closed = 1;
nodes = (
(239,322,l),
(295,322,l),
(295,237,l),
(347,237,l),
(347,341,l),
(312,322,l),
(343,322,ls),
(416,322,o),
(461,280,o),
(461,198,cs),
(461,116,o),
(413,78,o),
(333,78,cs),
(125,78,l),
(155,38,l)
);
},
{
closed = 1;
nodes = (
(347,479,l),
(295,479,l),
(295,393,l),
(237,393,l),
(153,676,l),
(124,636,l),
(333,636,ls),
(413,636,o),
(461,598,o),
(461,516,cs),
(461,434,o),
(417,393,o),
(343,393,cs),
(312,393,l),
(347,378,l)
);
}
);
width = 613;
}
);
metricLeft = "kkeCarrier-canadian";
metricRight = "geCarrier-canadian";
note = uni15FE;
unicode = 5630;
},
{
color = 9;
glyphname = "kkiCarrier-canadian";
lastChange = "2023-01-13 15:28:11 +0000";
layers = (
{
layerId = "7D3FB2DB-72C7-4646-AA25-FB3BBECA0225";
shapes = (
{
closed = 1;
nodes = (
(351,0,ls),
(479,0,o),
(554,68,o),
(554,192,cs),
(554,277,o),
(508,343,o),
(436,370,c),
(435,343,l),
(510,367,o),
(554,431,o),
(554,520,cs),
(554,645,o),
(477,714,o),
(351,714,cs),
(60,714,l),
(60,688,l),
(147,396,l),
(66,396,l),
(66,319,l),
(148,319,l),
(60,26,l),
(60,0,l)
);
},
{
closed = 1;
nodes = (
(240,326,l),
(251,326,l),
(260,300,o),
(284,282,o),
(314,282,cs),
(353,282,o),
(379,315,o),
(381,346,c),
(324,326,l),
(343,326,ls),
(416,326,o),
(461,280,o),
(461,195,cs),
(461,116,o),
(413,78,o),
(333,78,cs),
(125,78,l),
(155,38,l)
);
},
{
closed = 1;
nodes = (
(379,400,o),
(354,432,o),
(314,432,cs),
(284,432,o),
(261,415,o),
(251,389,c),
(238,389,l),
(153,676,l),
(124,636,l),
(333,636,ls),
(413,636,o),
(461,598,o),
(461,513,cs),
(461,434,o),
(417,389,o),
(343,389,cs),
(325,389,l),
(382,368,l)
);
}
);
width = 613;
}
);
metricLeft = "kkeCarrier-canadian";
metricRight = "geCarrier-canadian";
note = uni15FF;
unicode = 5631;
},
{
color = 9;
glyphname = "kkaCarrier-canadian";
lastChange = "2023-01-13 15:28:11 +0000";
layers = (
{
layerId = "7D3FB2DB-72C7-4646-AA25-FB3BBECA0225";
shapes = (
{
closed = 1;
nodes = (
(553,0,l),
(553,26,l),
(466,319,l),
(547,319,l),
(547,396,l),
(466,396,l),
(553,688,l),
(553,714,l),
(263,714,ls),
(137,714,o),
(59,645,o),
(59,520,cs),
(59,431,o),
(103,367,o),
(178,343,c),
(177,370,l),
(105,343,o),
(59,277,o),
(59,192,cs),
(59,68,o),
(135,0,o),
(263,0,cs)
);
},
{
closed = 1;
nodes = (
(486,78,l),
(280,78,ls),
(201,78,o),
(152,115,o),
(152,196,cs),
(152,278,o),
(202,319,o),
(279,319,cs),
(373,319,l),
(457,38,l)
);
},
{
closed = 1;
nodes = (
(200,396,o),
(152,436,o),
(152,517,cs),
(152,599,o),
(200,636,o),
(280,636,cs),
(487,636,l),
(458,676,l),
(374,396,l),
(279,396,ls)
);
}
);
width = 613;
}
);
metricLeft = "=|geCarrier-canadian";
metricRight = "=|kkeCarrier-canadian";
note = uni1600;
unicode = 5632;
},
{
color = 6;
glyphname = "kkCarrier-canadian";
lastChange = "2023-01-13 15:28:11 +0000";
layers = (
{
layerId = "7D3FB2DB-72C7-4646-AA25-FB3BBECA0225";
shapes = (
{
closed = 1;
nodes = (
(176,189,l),
(305,532,l),
(305,546,l),
(243,546,l),
(146,262,l),
(191,262,l),
(93,546,l),
(31,546,l),
(31,532,l),
(160,189,l)
);
}
);
width = 336;
}
);
note = uni1601;
unicode = 5633;
},
{
color = 9;
glyphname = "nuCarrier-canadian";
lastChange = "2023-01-13 15:28:11 +0000";
layers = (
{
layerId = "7D3FB2DB-72C7-4646-AA25-FB3BBECA0225";
shapes = (
{
closed = 1;
nodes = (
(456,-13,o),
(543,80,o),
(543,259,cs),
(543,312,l),
(451,312,l),
(451,252,ls),
(451,130,o),
(397,73,o),
(301,73,cs),
(207,73,o),
(152,133,o),
(152,255,cs),
(152,714,l),
(58,714,l),
(58,259,ls),
(58,81,o),
(150,-13,o),
(302,-13,cs)
);
}
);
width = 595;
}
);
metricLeft = "te-canadian";
note = uni1602;
unicode = 5634;
},
{
color = 9;
glyphname = "noCarrier-canadian";
lastChange = "2023-01-13 15:28:11 +0000";
layers = (
{
layerId = "7D3FB2DB-72C7-4646-AA25-FB3BBECA0225";
shapes = (
{
closed = 1;
nodes = (
(537,0,l),
(537,455,ls),
(537,633,o),
(445,727,o),
(294,727,cs),
(140,727,o),
(52,634,o),
(52,455,cs),
(52,402,l),
(145,402,l),
(145,462,ls),
(145,584,o),
(198,641,o),
(294,641,cs),
(389,641,o),
(443,581,o),
(443,459,cs),
(443,0,l)
);
}
);
width = 595;
}
);
metricLeft = "=|nuCarrier-canadian";
metricRight = "te-canadian";
note = uni1603;
unicode = 5635;
},
{
color = 9;
glyphname = "neCarrier-canadian";
lastChange = "2023-01-13 15:31:28 +0000";
layers = (
{
anchors = (
{
name = middle_center_can;
pos = (253,357);
}
);
layerId = "7D3FB2DB-72C7-4646-AA25-FB3BBECA0225";
shapes = (
{
closed = 1;
nodes = (
(233,0,ls),
(430,0,o),
(538,124,o),
(538,358,cs),
(538,592,o),
(432,714,o),
(222,714,cs),
(41,714,l),
(41,628,l),
(223,628,ls),
(373,628,o),
(444,541,o),
(444,358,cs),
(444,175,o),
(371,86,o),
(233,86,cs),
(225,86,l),
(225,0,l)
);
}
);
width = 589;
}
);
metricRight = "theCarrier-canadian";
note = uni1604;
unicode = 5636;
},
{
color = 9;
glyphname = "naCarrier-canadian";
lastChange = "2023-01-13 15:31:28 +0000";
layers = (
{
layerId = "7D3FB2DB-72C7-4646-AA25-FB3BBECA0225";
shapes = (
{
closed = 1;
nodes = (
(548,0,l),
(548,86,l),
(365,86,ls),
(215,86,o),
(144,173,o),
(144,356,cs),
(144,539,o),
(218,628,o),
(356,628,cs),
(363,628,l),
(363,714,l),
(356,714,ls),
(159,714,o),
(51,590,o),
(51,356,cs),
(51,122,o),
(157,0,o),
(366,0,cs)
);
}
);
width = 589;
}
);
metricLeft = "=|theCarrier-canadian";
metricRight = "=|neCarrier-canadian";
note = uni1607;
unicode = 5639;
},
{
color = 9;
glyphname = "muCarrier-canadian";
lastChange = "2023-01-13 15:31:28 +0000";
layers = (
{
layerId = "7D3FB2DB-72C7-4646-AA25-FB3BBECA0225";
shapes = (
{
closed = 1;
nodes = (
(300,-13,o),
(353,31,o),
(375,120,c),
(335,120,l),
(361,30,o),
(413,-13,o),
(487,-13,cs),
(588,-13,o),
(653,57,o),
(653,187,cs),
(653,404,l),
(563,404,l),
(563,192,ls),
(563,110,o),
(534,72,o),
(482,72,cs),
(430,72,o),
(399,111,o),
(399,192,cs),
(399,404,l),
(312,404,l),
(312,192,ls),
(312,110,o),
(281,72,o),
(229,72,cs),
(175,72,o),
(146,110,o),
(146,192,cs),
(146,714,l),
(57,714,l),
(57,189,ls),
(57,57,o),
(123,-13,o),
(223,-13,cs)
);
}
);
width = 710;
}
);
metricLeft = "guCarrier-canadian";
metricRight = "=|";
note = uni1608;
unicode = 5640;
},
{
color = 9;
glyphname = "moCarrier-canadian";
lastChange = "2023-01-13 15:31:28 +0000";
layers = (
{
layerId = "7D3FB2DB-72C7-4646-AA25-FB3BBECA0225";
shapes = (
{
closed = 1;
nodes = (
(653,0,l),
(653,525,ls),
(653,657,o),
(586,727,o),
(486,727,cs),
(410,727,o),
(357,683,o),
(334,594,c),
(375,594,l),
(349,684,o),
(296,727,o),
(222,727,cs),
(122,727,o),
(57,657,o),
(57,527,cs),
(57,310,l),
(146,310,l),
(146,522,ls),
(146,604,o),
(175,642,o),
(228,642,cs),
(279,642,o),
(311,603,o),
(311,522,cs),
(311,310,l),
(398,310,l),
(398,522,ls),
(398,604,o),
(428,642,o),
(480,642,cs),
(534,642,o),
(563,604,o),
(563,522,cs),
(563,0,l)
);
}
);
width = 710;
}
);
metricLeft = "=|muCarrier-canadian";
metricRight = "guCarrier-canadian";
note = uni1609;
unicode = 5641;
},
{
color = 9;
glyphname = "meCarrier-canadian";
lastChange = "2023-01-13 15:28:11 +0000";
layers = (
{
layerId = "7D3FB2DB-72C7-4646-AA25-FB3BBECA0225";
shapes = (
{
closed = 1;
nodes = (
(334,0,ls),
(462,0,o),
(538,68,o),
(538,192,cs),
(538,277,o),
(491,345,o),
(417,372,c),
(417,343,l),
(493,366,o),
(538,431,o),
(538,520,cs),
(538,645,o),
(460,714,o),
(334,714,cs),
(41,714,l),
(41,636,l),
(317,636,ls),
(397,636,o),
(444,599,o),
(444,517,cs),
(444,436,o),
(396,396,o),
(318,396,cs),
(237,396,l),
(237,319,l),
(318,319,ls),
(395,319,o),
(444,278,o),
(444,196,cs),
(444,115,o),
(396,78,o),
(317,78,cs),
(237,78,l),
(237,0,l)
);
}
);
width = 597;
}
);
metricLeft = "neCarrier-canadian";
metricRight = "geCarrier-canadian";
note = uni160A;
unicode = 5642;
},
{
color = 9;
glyphname = "meeCarrier-canadian";
lastChange = "2023-01-13 15:28:11 +0000";
layers = (
{
layerId = "7D3FB2DB-72C7-4646-AA25-FB3BBECA0225";
shapes = (
{
closed = 1;
nodes = (
(334,0,ls),
(462,0,o),
(538,68,o),
(538,192,cs),
(538,277,o),
(492,343,o),
(419,370,c),
(419,343,l),
(493,367,o),
(538,431,o),
(538,520,cs),
(538,645,o),
(460,714,o),
(334,714,cs),
(41,714,l),
(41,636,l),
(317,636,ls),
(397,636,o),
(444,598,o),
(444,516,cs),
(444,435,o),
(399,394,o),
(325,394,cs),
(294,394,l),
(294,480,l),
(237,480,l),
(237,236,l),
(294,236,l),
(294,321,l),
(324,321,ls),
(399,321,o),
(444,279,o),
(444,197,cs),
(444,116,o),
(396,78,o),
(317,78,cs),
(237,78,l),
(237,0,l)
);
}
);
width = 597;
}
);
metricLeft = "neCarrier-canadian";
metricRight = "geCarrier-canadian";
note = uni160B;
unicode = 5643;
},
{
color = 9;
glyphname = "miCarrier-canadian";
lastChange = "2023-01-13 15:28:11 +0000";
layers = (
{
layerId = "7D3FB2DB-72C7-4646-AA25-FB3BBECA0225";
shapes = (
{
closed = 1;
nodes = (
(334,0,ls),
(462,0,o),
(538,68,o),
(538,192,cs),
(538,277,o),
(492,343,o),
(419,370,c),
(419,343,l),
(493,367,o),
(538,431,o),
(538,520,cs),
(538,645,o),
(460,714,o),
(334,714,cs),
(41,714,l),
(41,636,l),
(317,636,ls),
(397,636,o),
(444,598,o),
(444,516,cs),
(444,435,o),
(399,394,o),
(329,394,cs),
(292,394,l),
(343,368,l),
(338,404,o),
(309,432,o),
(271,432,cs),
(229,432,o),
(197,398,o),
(197,358,cs),
(197,316,o),
(229,282,o),
(271,282,cs),
(309,282,o),
(338,311,o),
(342,346,c),
(292,321,l),
(328,321,ls),
(399,321,o),
(444,279,o),
(444,197,cs),
(444,116,o),
(396,78,o),
(317,78,cs),
(237,78,l),
(237,0,l)
);
}
);
width = 597;
}
);
metricLeft = "neCarrier-canadian";
metricRight = "geCarrier-canadian";
note = uni160C;
unicode = 5644;
},
{
color = 9;
glyphname = "maCarrier-canadian";
lastChange = "2023-01-13 15:28:11 +0000";
layers = (
{
layerId = "7D3FB2DB-72C7-4646-AA25-FB3BBECA0225";
shapes = (
{
closed = 1;
nodes = (
(556,0,l),
(556,78,l),
(280,78,ls),
(200,78,o),
(152,115,o),
(152,196,cs),
(152,277,o),
(201,318,o),
(278,318,cs),
(359,318,l),
(359,395,l),
(279,395,ls),
(201,395,o),
(152,436,o),
(152,517,cs),
(152,598,o),
(201,636,o),
(280,636,cs),
(359,636,l),
(359,714,l),
(263,714,ls),
(135,714,o),
(59,646,o),
(59,521,cs),
(59,435,o),
(106,369,o),
(180,343,c),
(180,372,l),
(104,347,o),
(59,281,o),
(59,192,cs),
(59,69,o),
(137,0,o),
(263,0,cs)
);
}
);
width = 597;
}
);
metricLeft = "=|geCarrier-canadian";
metricRight = "=|neCarrier-canadian";
note = uni160D;
unicode = 5645;
},
{
color = 9;
glyphname = "yuCarrier-canadian";
lastChange = "2023-01-13 15:31:28 +0000";
layers = (
{
layerId = "7D3FB2DB-72C7-4646-AA25-FB3BBECA0225";
shapes = (
{
closed = 1;
nodes = (
(489,-13,o),
(584,120,o),
(584,400,cs),
(584,628,o),
(520,727,o),
(413,727,cs),
(319,727,o),
(264,649,o),
(264,519,cs),
(264,392,o),
(320,318,o),
(407,318,cs),
(421,318,o),
(435,320,o),
(446,325,c),
(446,398,l),
(439,396,o),
(431,393,o),
(417,393,cs),
(368,393,o),
(342,434,o),
(342,523,cs),
(342,610,o),
(367,652,o),
(411,652,cs),
(466,652,o),
(496,590,o),
(496,403,cs),
(496,158,o),
(431,73,o),
(311,73,cs),
(211,73,o),
(152,134,o),
(152,261,cs),
(152,714,l),
(58,714,l),
(58,264,ls),
(58,81,o),
(156,-13,o),
(308,-13,cs)
);
}
);
width = 642;
}
);
metricLeft = "te-canadian";
metricRight = "te-canadian";
note = uni160E;
unicode = 5646;
},
{
color = 9;
glyphname = "yoCarrier-canadian";
lastChange = "2023-01-13 15:31:28 +0000";
layers = (
{
layerId = "7D3FB2DB-72C7-4646-AA25-FB3BBECA0225";
shapes = (
{
closed = 1;
nodes = (
(323,-13,o),
(379,65,o),
(379,195,cs),
(379,322,o),
(323,396,o),
(236,396,cs),
(222,396,o),
(207,394,o),
(197,389,c),
(197,316,l),
(204,318,o),
(212,321,o),
(226,321,cs),
(275,321,o),
(300,280,o),
(300,191,cs),
(300,104,o),
(276,62,o),
(232,62,cs),
(176,62,o),
(147,124,o),
(147,311,cs),
(147,556,o),
(211,641,o),
(332,641,cs),
(432,641,o),
(491,580,o),
(491,453,cs),
(491,0,l),
(584,0,l),
(584,450,ls),
(584,633,o),
(487,727,o),
(335,727,cs),
(154,727,o),
(58,594,o),
(58,314,cs),
(58,86,o),
(123,-13,o),
(230,-13,cs)
);
}
);
width = 642;
}
);
metricLeft = "te-canadian";
metricRight = "te-canadian";
note = uni160F;
unicode = 5647;
},
{
color = 9;
glyphname = "yeCarrier-canadian";
lastChange = "2023-01-13 15:28:11 +0000";
layers = (
{
layerId = "7D3FB2DB-72C7-4646-AA25-FB3BBECA0225";
shapes = (
{
closed = 1;
nodes = (
(436,-13,o),
(532,128,o),
(532,351,cs),
(532,593,o),
(426,714,o),
(211,714,cs),
(56,714,l),
(56,628,l),
(213,628,ls),
(368,628,o),
(439,542,o),
(439,349,cs),
(439,170,o),
(388,67,o),
(268,67,cs),
(165,67,o),
(124,131,o),
(124,220,cs),
(124,304,o),
(150,346,o),
(194,346,cs),
(239,346,o),
(263,304,o),
(263,226,cs),
(263,197,o),
(261,181,o),
(259,162,c),
(329,162,l),
(333,186,o),
(335,203,o),
(335,233,cs),
(335,345,o),
(286,422,o),
(194,422,cs),
(101,422,o),
(44,344,o),
(44,219,cs),
(44,90,o),
(117,-13,o),
(267,-13,cs)
);
}
);
width = 583;
}
);
metricRight = "theCarrier-canadian";
note = uni1610;
unicode = 5648;
},
{
color = 9;
glyphname = "yeeCarrier-canadian";
lastChange = "2023-01-13 15:28:11 +0000";
layers = (
{
layerId = "7D3FB2DB-72C7-4646-AA25-FB3BBECA0225";
shapes = (
{
closed = 1;
nodes = (
(436,-13,o),
(532,128,o),
(532,351,cs),
(532,593,o),
(426,714,o),
(211,714,cs),
(56,714,l),
(56,628,l),
(213,628,ls),
(368,628,o),
(439,542,o),
(439,349,cs),
(439,170,o),
(389,67,o),
(267,67,cs),
(165,67,o),
(124,131,o),
(124,223,cs),
(124,303,o),
(149,346,o),
(189,346,cs),
(230,346,o),
(255,305,o),
(255,237,cs),
(255,185,l),
(303,185,l),
(303,515,l),
(255,515,l),
(255,311,l),
(267,311,l),
(261,381,o),
(226,422,o),
(170,422,cs),
(98,422,o),
(44,348,o),
(44,222,cs),
(44,90,o),
(117,-13,o),
(266,-13,cs)
);
}
);
width = 583;
}
);
metricRight = "theCarrier-canadian";
metricWidth = "yeCarrier-canadian";
note = uni1611;
unicode = 5649;
},
{
color = 9;
glyphname = "yiCarrier-canadian";
lastChange = "2023-01-13 15:28:11 +0000";
layers = (
{
layerId = "7D3FB2DB-72C7-4646-AA25-FB3BBECA0225";
shapes = (
{
closed = 1;
nodes = (
(436,-13,o),
(532,128,o),
(532,351,cs),
(532,593,o),
(426,714,o),
(211,714,cs),
(56,714,l),
(56,628,l),
(213,628,ls),
(368,628,o),
(439,542,o),
(439,349,cs),
(439,170,o),
(388,67,o),
(271,67,cs),
(167,67,o),
(124,132,o),
(124,212,cs),
(124,288,o),
(152,328,o),
(195,330,c),
(170,345,l),
(175,314,o),
(204,288,o),
(241,288,cs),
(281,288,o),
(312,319,o),
(312,358,cs),
(312,396,o),
(281,427,o),
(241,427,cs),
(213,427,o),
(189,411,o),
(178,390,c),
(98,381,o),
(44,313,o),
(44,204,cs),
(44,90,o),
(117,-13,o),
(267,-13,cs)
);
}
);
width = 583;
}
);
metricRight = "theCarrier-canadian";
metricWidth = "yeCarrier-canadian";
note = uni1612;
unicode = 5650;
},
{
color = 9;
glyphname = "yaCarrier-canadian";
lastChange = "2023-01-13 15:28:11 +0000";
layers = (
{
layerId = "7D3FB2DB-72C7-4646-AA25-FB3BBECA0225";
shapes = (
{
closed = 1;
nodes = (
(526,0,l),
(526,86,l),
(370,86,ls),
(215,86,o),
(144,172,o),
(144,365,cs),
(144,544,o),
(194,647,o),
(320,647,cs),
(418,647,o),
(459,583,o),
(459,494,cs),
(459,410,o),
(432,368,o),
(388,368,cs),
(344,368,o),
(320,410,o),
(320,488,cs),
(320,517,o),
(322,533,o),
(324,552,c),
(254,552,l),
(249,528,o),
(247,511,o),
(247,481,cs),
(247,369,o),
(297,292,o),
(389,292,cs),
(482,292,o),
(539,370,o),
(539,495,cs),
(539,624,o),
(465,727,o),
(321,727,cs),
(146,727,o),
(51,586,o),
(51,363,cs),
(51,121,o),
(156.996,0,o),
(372,0,cs)
);
}
);
width = 583;
}
);
metricLeft = "=|theCarrier-canadian";
metricRight = "=|yeCarrier-canadian";
note = uni1613;
unicode = 5651;
},
{
color = 9;
glyphname = "juCarrier-canadian";
lastChange = "2023-01-13 15:28:11 +0000";
layers = (
{
layerId = "7D3FB2DB-72C7-4646-AA25-FB3BBECA0225";
shapes = (
{
closed = 1;
nodes = (
(476,-13,o),
(550,89,o),
(550,220,cs),
(550,344,o),
(494,422,o),
(401,422,cs),
(309,422,o),
(259,345,o),
(259,233,cs),
(259,203,o),
(261,185,o),
(266,162,c),
(336,162,l),
(334,179,o),
(331,198,o),
(331,226,cs),
(331,303,o),
(356,346,o),
(400,346,cs),
(444,346,o),
(471,303,o),
(471,221,cs),
(471,130,o),
(428,67,o),
(326,67,cs),
(209,67,o),
(149,152,o),
(149,309,cs),
(149,541,o),
(269,628,o),
(459,628,cs),
(538,628,l),
(538,714,l),
(49,714,l),
(49,631,l),
(306,631,l),
(379,667,l),
(185,667,o),
(56,543,o),
(56,307,cs),
(56,110,o),
(157,-13,o),
(320,-13,cs)
);
}
);
width = 594;
}
);
metricRight = "=|yeCarrier-canadian";
note = uni1614;
unicode = 5652;
},
{
color = 9;
glyphname = "juSayisi-canadian";
lastChange = "2023-01-13 15:28:11 +0000";
layers = (
{
anchors = (
{
name = top_center_can;
pos = (301,714);
}
);
layerId = "7D3FB2DB-72C7-4646-AA25-FB3BBECA0225";
shapes = (
{
closed = 1;
nodes = (
(437,-13,o),
(538,110,o),
(538,307,cs),
(538,543,o),
(409,667,o),
(215,667,c),
(289,631,l),
(545,631,l),
(545,714,l),
(56,714,l),
(56,628,l),
(135,628,ls),
(326,628,o),
(445,541,o),
(445,309,cs),
(445,152,o),
(386,67,o),
(269,67,cs),
(166,67,o),
(124,130,o),
(124,221,cs),
(124,303,o),
(150,346,o),
(194,346,cs),
(238,346,o),
(263,303,o),
(263,226,cs),
(263,198,o),
(261,179,o),
(259,162,c),
(329,162,l),
(333,185,o),
(335,203,o),
(335,233,cs),
(335,345,o),
(286,422,o),
(193,422,cs),
(101,422,o),
(44,344,o),
(44,220,cs),
(44,89,o),
(118,-13,o),
(274,-13,cs)
);
}
);
width = 594;
}
);
metricLeft = "yeCarrier-canadian";
metricRight = "=|juCarrier-canadian";
note = uni1615;
unicode = 5653;
},
{
color = 9;
glyphname = "joCarrier-canadian";
lastChange = "2023-01-13 15:28:11 +0000";
layers = (
{
layerId = "7D3FB2DB-72C7-4646-AA25-FB3BBECA0225";
shapes = (
{
closed = 1;
nodes = (
(545,0,l),
(545,83,l),
(289,83,l),
(215,47,l),
(409,47,o),
(538,171,o),
(538,407,cs),
(538,604,o),
(437,727,o),
(274,727,cs),
(118,727,o),
(44,625,o),
(44,494,cs),
(44,370,o),
(101,292,o),
(193,292,cs),
(286,292,o),
(335,369,o),
(335,481,cs),
(335,511,o),
(333,529,o),
(329,552,c),
(259,552,l),
(261,535,o),
(263,516,o),
(263,488,cs),
(263,411,o),
(238,368,o),
(194,368,cs),
(150,368,o),
(124,411,o),
(124,493,cs),
(124,584,o),
(166,647,o),
(269,647,cs),
(386,647,o),
(445,562,o),
(445,405,cs),
(445,173,o),
(326,86,o),
(135,86,cs),
(56,86,l),
(56,0,l)
);
}
);
width = 594;
}
);
metricLeft = "yeCarrier-canadian";
metricRight = "=|juCarrier-canadian";
note = uni1616;
unicode = 5654;
},
{
color = 9;
glyphname = "jeCarrier-canadian";
lastChange = "2023-01-13 15:28:11 +0000";
layers = (
{
layerId = "7D3FB2DB-72C7-4646-AA25-FB3BBECA0225";
shapes = (
{
closed = 1;
nodes = (
(523,-13,o),
(588,86,o),
(588,314,cs),
(588,586,o),
(490,727,o),
(346,727,cs),
(211,727,o),
(138,616,o),
(132,413,c),
(154,419,l),
(154,714,l),
(62,714,l),
(62,0,l),
(155,0,l),
(155,295,ls),
(155,545,o),
(221,641,o),
(330,641,cs),
(432,641,o),
(499,543,o),
(499,312,cs),
(499,124,o),
(470,62,o),
(415,62,cs),
(371,62,o),
(346,104,o),
(346,191,cs),
(346,280,o),
(371,321,o),
(422,321,cs),
(434,321,o),
(442,318,o),
(449,316,c),
(449,389,l),
(439,394,o),
(424,396,o),
(411,396,cs),
(323,396,o),
(267,322,o),
(267,195,cs),
(267,65,o),
(323,-13,o),
(416,-13,cs)
);
}
);
width = 646;
}
);
metricLeft = "nunavuth-canadian";
metricRight = "te-canadian";
note = uni1617;
unicode = 5655;
},
{
color = 9;
glyphname = "jeeCarrier-canadian";
lastChange = "2023-01-13 15:28:11 +0000";
layers = (
{
layerId = "7D3FB2DB-72C7-4646-AA25-FB3BBECA0225";
shapes = (
{
closed = 1;
nodes = (
(522,-13,o),
(588,87,o),
(588,314,cs),
(588,586,o),
(490,727,o),
(346,727,cs),
(237,727,o),
(169,657,o),
(143,526,c),
(154,516,l),
(154,714,l),
(62,714,l),
(62,0,l),
(155,0,l),
(155,295,ls),
(155,545,o),
(221,641,o),
(330,641,cs),
(432,641,o),
(499,543,o),
(499,312,cs),
(499,130,o),
(466,62,o),
(400,62,cs),
(346,62,o),
(313,111,o),
(313,198,cs),
(313,273,o),
(333,317,o),
(370,331,c),
(370,244,l),
(418,244,l),
(418,464,l),
(370,464,l),
(370,382,l),
(310,365,o),
(267,301,o),
(267,191,cs),
(267,64,o),
(322,-13,o),
(416,-13,cs)
);
}
);
width = 646;
}
);
metricLeft = "nunavuth-canadian";
metricRight = "jeCarrier-canadian";
note = uni1618;
unicode = 5656;
},
{
color = 9;
glyphname = "jiCarrier-canadian";
lastChange = "2023-01-13 15:28:11 +0000";
layers = (
{
layerId = "7D3FB2DB-72C7-4646-AA25-FB3BBECA0225";
shapes = (
{
closed = 1;
nodes = (
(522,-13,o),
(588,87,o),
(588,314,cs),
(588,586,o),
(490,727,o),
(346,727,cs),
(237,727,o),
(169,657,o),
(143,526,c),
(154,516,l),
(154,714,l),
(62,714,l),
(62,0,l),
(155,0,l),
(155,295,ls),
(155,545,o),
(221,641,o),
(330,641,cs),
(432,641,o),
(499,543,o),
(499,312,cs),
(499,130,o),
(466,62,o),
(400,62,cs),
(346,62,o),
(313,111,o),
(313,198,cs),
(313,253,o),
(325,286,o),
(346,304,c),
(354,293,o),
(367,285,o),
(382,285,cs),
(419,285,o),
(447,316,o),
(447,354,cs),
(447,392,o),
(419,422,o),
(382,422,cs),
(336,422,o),
(312,378,o),
(320,342,c),
(287,316,o),
(267,266,o),
(267,191,cs),
(267,64,o),
(322,-13,o),
(416,-13,cs)
);
}
);
width = 646;
}
);
metricLeft = "nunavuth-canadian";
metricRight = "jeCarrier-canadian";
note = uni1619;
unicode = 5657;
},
{
color = 9;
glyphname = "jiSayisi-canadian";
lastChange = "2023-01-13 15:28:11 +0000";
layers = (
{
layerId = "7D3FB2DB-72C7-4646-AA25-FB3BBECA0225";
shapes = (
{
closed = 1;
nodes = (
(490,-13,o),
(588,128,o),
(588,400,cs),
(588,628,o),
(523,727,o),
(416,727,cs),
(323,727,o),
(267,649,o),
(267,519,cs),
(267,392,o),
(323,318,o),
(411,318,cs),
(424,318,o),
(439,320,o),
(449,325,c),
(449,398,l),
(442,396,o),
(434,393,o),
(422,393,cs),
(371,393,o),
(346,434,o),
(346,523,cs),
(346,610,o),
(371,652,o),
(414,652,cs),
(470,652,o),
(499,590,o),
(499,402,cs),
(499,171,o),
(432,73,o),
(330,73,cs),
(221,73,o),
(155,169,o),
(155,419,cs),
(155,714,l),
(62,714,l),
(62,0,l),
(154,0,l),
(154,295,l),
(132,301,l),
(138,98,o),
(211,-13,o),
(346,-13,cs)
);
}
);
width = 646;
}
);
metricLeft = "nunavuth-canadian";
metricRight = "jeCarrier-canadian";
note = uni161A;
unicode = 5658;
},
{
color = 9;
glyphname = "jaCarrier-canadian";
lastChange = "2023-01-13 15:28:11 +0000";
layers = (
{
anchors = (
{
name = top_center_can;
pos = (316,714);
}
);
layerId = "7D3FB2DB-72C7-4646-AA25-FB3BBECA0225";
shapes = (
{
closed = 1;
nodes = (
(435,-13,o),
(508,98,o),
(514,301,c),
(492,295,l),
(492,0,l),
(584,0,l),
(584,714,l),
(491,714,l),
(491,419,ls),
(491,169,o),
(425,73,o),
(316,73,cs),
(214,73,o),
(147,171,o),
(147,402,cs),
(147,590,o),
(176,652,o),
(232,652,cs),
(275,652,o),
(300,610,o),
(300,523,cs),
(300,434,o),
(275,393,o),
(224,393,cs),
(212,393,o),
(204,396,o),
(197,398,c),
(197,325,l),
(207,320,o),
(222,318,o),
(235,318,cs),
(323,318,o),
(379,392,o),
(379,519,cs),
(379,649,o),
(323,727,o),
(230,727,cs),
(123,727,o),
(58,628,o),
(58,400,cs),
(58,128,o),
(156,-13,o),
(300,-13,cs)
);
}
);
width = 646;
}
);
metricLeft = "=|jeCarrier-canadian";
metricRight = "nunavuth-canadian";
note = uni161B;
unicode = 5659;
},
{
color = 9;
glyphname = "jjuCarrier-canadian";
lastChange = "2023-01-13 15:31:28 +0000";
layers = (
{
layerId = "7D3FB2DB-72C7-4646-AA25-FB3BBECA0225";
shapes = (
{
closed = 1;
nodes = (
(471,-13,o),
(544,90,o),
(544,219,cs),
(544,344,o),
(488,422,o),
(395,422,cs),
(303,422,o),
(253,345,o),
(253,233,cs),
(253,204,o),
(255,185,o),
(260,162,c),
(330,162,l),
(328,179,o),
(325,200,o),
(325,226,cs),
(325,303,o),
(350,346,o),
(394,346,cs),
(436,346,o),
(465,301,o),
(465,220,cs),
(465,129,o),
(423,65,o),
(323,65,cs),
(209,65,o),
(150,151,o),
(150,318,cs),
(150,532,o),
(255,628,o),
(431,628,cs),
(532,628,l),
(532,714,l),
(426,714,ls),
(323,714,o),
(240,685,o),
(179,632,c),
(85,727,l),
(23,668,l),
(122,569,l),
(79,507,o),
(57,423,o),
(57,322,cs),
(57,111,o),
(160,-13,o),
(319,-13,cs)
);
}
);
width = 588;
}
);
metricRight = "=|yeCarrier-canadian";
note = uni161C;
unicode = 5660;
},
{
color = 9;
glyphname = "jjoCarrier-canadian";
lastChange = "2023-01-13 15:31:28 +0000";
layers = (
{
layerId = "7D3FB2DB-72C7-4646-AA25-FB3BBECA0225";
shapes = (
{
closed = 1;
nodes = (
(565,46,l),
(467,145,l),
(510,207,o),
(532,291,o),
(532,392,cs),
(532,603,o),
(429,727,o),
(270,727,cs),
(118,727,o),
(44,624,o),
(44,495,cs),
(44,370,o),
(101,292,o),
(194,292,cs),
(286,292,o),
(336,369,o),
(336,481,cs),
(336,510,o),
(334,529,o),
(329,552,c),
(259,552,l),
(261,535,o),
(263,514,o),
(263,488,cs),
(263,411,o),
(239,368,o),
(195,368,cs),
(152,368,o),
(124,413,o),
(124,494,cs),
(124,585,o),
(166,649,o),
(266,649,cs),
(380,649,o),
(439,563,o),
(439,396,cs),
(439,182,o),
(334,86,o),
(158,86,cs),
(56,86,l),
(56,0,l),
(162,0,ls),
(266,0,o),
(349,29,o),
(409,82,c),
(504,-13,l)
);
}
);
width = 588;
}
);
metricLeft = "yeCarrier-canadian";
metricRight = "=|jjuCarrier-canadian";
note = uni161D;
unicode = 5661;
},
{
color = 9;
glyphname = "jjeCarrier-canadian";
lastChange = "2023-01-13 15:31:28 +0000";
layers = (
{
layerId = "7D3FB2DB-72C7-4646-AA25-FB3BBECA0225";
shapes = (
{
closed = 1;
nodes = (
(528,-13,o),
(592,86,o),
(592,314,cs),
(592,594,o),
(501,727,o),
(324,727,cs),
(255,727,o),
(195,702,o),
(151,654,c),
(73,727,l),
(16,664,l),
(103,582,l),
(80,533,o),
(66,471,o),
(66,395,cs),
(66,0,l),
(160,0,l),
(160,399,ls),
(160,560,o),
(219,641,o),
(323,641,cs),
(439,641,o),
(504,556,o),
(504,311,cs),
(504,124,o),
(474,62,o),
(419,62,cs),
(374,62,o),
(350,104,o),
(350,191,cs),
(350,280,o),
(376,321,o),
(425,321,cs),
(439,321,o),
(447,318,o),
(454,316,c),
(454,389,l),
(443,394,o),
(428,396,o),
(414,396,cs),
(328,396,o),
(271,322,o),
(271,195,cs),
(271,65,o),
(327,-13,o),
(421,-13,cs)
);
}
);
width = 650;
}
);
metricRight = "jeCarrier-canadian";
note = uni161E;
unicode = 5662;
},
{
color = 9;
glyphname = "jjeeCarrier-canadian";
lastChange = "2023-01-13 15:31:28 +0000";
layers = (
{
layerId = "7D3FB2DB-72C7-4646-AA25-FB3BBECA0225";
shapes = (
{
closed = 1;
nodes = (
(527,-13,o),
(592,87,o),
(592,314,cs),
(592,594,o),
(501,727,o),
(324,727,cs),
(255,727,o),
(195,702,o),
(151,654,c),
(73,727,l),
(16,664,l),
(103,582,l),
(80,533,o),
(66,471,o),
(66,395,cs),
(66,0,l),
(160,0,l),
(160,399,ls),
(160,560,o),
(219,641,o),
(323,641,cs),
(439,641,o),
(504,556,o),
(504,311,cs),
(504,129,o),
(470,62,o),
(404,62,cs),
(349,62,o),
(318,111,o),
(318,198,cs),
(318,276,o),
(338,317,o),
(374,331,c),
(374,244,l),
(422,244,l),
(422,464,l),
(374,464,l),
(374,382,l),
(315,367,o),
(271,301,o),
(271,191,cs),
(271,64,o),
(327,-13,o),
(421,-13,cs)
);
}
);
width = 650;
}
);
metricLeft = "jjeCarrier-canadian";
metricRight = "jeCarrier-canadian";
note = uni161F;
unicode = 5663;
},
{
color = 9;
glyphname = "jjiCarrier-canadian";
lastChange = "2023-01-13 15:31:28 +0000";
layers = (
{
layerId = "7D3FB2DB-72C7-4646-AA25-FB3BBECA0225";
shapes = (
{
closed = 1;
nodes = (
(527,-13,o),
(592,87,o),
(592,314,cs),
(592,594,o),
(501,727,o),
(324,727,cs),
(255,727,o),
(195,702,o),
(151,654,c),
(73,727,l),
(16,664,l),
(103,582,l),
(80,533,o),
(66,471,o),
(66,395,cs),
(66,0,l),
(160,0,l),
(160,399,ls),
(160,560,o),
(219,641,o),
(323,641,cs),
(439,641,o),
(504,556,o),
(504,311,cs),
(504,129,o),
(470,62,o),
(404,62,cs),
(349,62,o),
(318,111,o),
(318,198,cs),
(318,255,o),
(330,288,o),
(351,304,c),
(358,293,o),
(373,285,o),
(388,285,cs),
(425,285,o),
(453,316,o),
(453,354,cs),
(453,392,o),
(425,422,o),
(388,422,cs),
(344,422,o),
(319,380,o),
(326,344,c),
(293,318,o),
(271,267,o),
(271,191,cs),
(271,64,o),
(327,-13,o),
(421,-13,cs)
);
}
);
width = 650;
}
);
metricLeft = "jjeCarrier-canadian";
metricRight = "jeCarrier-canadian";
note = uni1620;
unicode = 5664;
},
{
color = 9;
glyphname = "jjaCarrier-canadian";
lastChange = "2023-01-13 15:31:28 +0000";
layers = (
{
layerId = "7D3FB2DB-72C7-4646-AA25-FB3BBECA0225";
shapes = (
{
closed = 1;
nodes = (
(396,-13,o),
(456,12,o),
(500,60,c),
(578,-13,l),
(634,50,l),
(547,132,l),
(571,181,o),
(584,243,o),
(584,319,cs),
(584,714,l),
(491,714,l),
(491,315,ls),
(491,154,o),
(432,73,o),
(328,73,cs),
(211,73,o),
(147,158,o),
(147,403,cs),
(147,590,o),
(176,652,o),
(232,652,cs),
(276,652,o),
(300,610,o),
(300,523,cs),
(300,434,o),
(275,393,o),
(226,393,cs),
(212,393,o),
(204,396,o),
(197,398,c),
(197,325,l),
(207,320,o),
(222,318,o),
(236,318,cs),
(323,318,o),
(379,392,o),
(379,519,cs),
(379,649,o),
(323,727,o),
(230,727,cs),
(123,727,o),
(58,628,o),
(58,400,cs),
(58,120,o),
(150,-13,o),
(326,-13,cs)
);
}
);
width = 650;
}
);
metricLeft = "=|jeCarrier-canadian";
metricRight = "=|jjeCarrier-canadian";
note = uni1621;
unicode = 5665;
},
{
color = 9;
glyphname = "luCarrier-canadian";
lastChange = "2023-01-13 15:28:11 +0000";
layers = (
{
layerId = "7D3FB2DB-72C7-4646-AA25-FB3BBECA0225";
shapes = (
{
closed = 1;
nodes = (
(450,-13,o),
(541,74,o),
(541,264,cs),
(541,714,l),
(447,714,l),
(447,265,ls),
(447,126,o),
(390,73,o),
(307,73,cs),
(194,73,o),
(149,167,o),
(149,333,cs),
(149,520,o),
(200,620,o),
(321,639,c),
(321,714,l),
(49,714,l),
(49,636,l),
(219,636,l),
(278,664,l),
(139,647,o),
(56,544,o),
(56,321,cs),
(56,113,o),
(137,-13,o),
(305,-13,cs)
);
}
);
width = 599;
}
);
metricRight = "te-canadian";
note = uni1622;
unicode = 5666;
},
{
color = 9;
glyphname = "loCarrier-canadian";
lastChange = "2023-01-13 15:28:11 +0000";
layers = (
{
layerId = "7D3FB2DB-72C7-4646-AA25-FB3BBECA0225";
shapes = (
{
closed = 1;
nodes = (
(152,0,l),
(152,449,ls),
(152,588,o),
(209,641,o),
(293,641,cs),
(405,641,o),
(450,547,o),
(450,381,cs),
(450,194,o),
(399,94,o),
(278,75,c),
(278,0,l),
(550,0,l),
(550,78,l),
(380,78,l),
(321,50,l),
(460,67,o),
(543,170,o),
(543,393,cs),
(543,601,o),
(462,727,o),
(294,727,cs),
(150,727,o),
(58,640,o),
(58,450,cs),
(58,0,l)
);
}
);
width = 599;
}
);
metricLeft = "te-canadian";
metricRight = "=|luCarrier-canadian";
note = uni1623;
unicode = 5667;
},
{
color = 9;
glyphname = "leCarrier-canadian";
lastChange = "2023-01-13 15:31:28 +0000";
layers = (
{
anchors = (
{
name = middle_center_can;
pos = (288,357);
}
);
layerId = "7D3FB2DB-72C7-4646-AA25-FB3BBECA0225";
shapes = (
{
closed = 1;
nodes = (
(222,0,ls),
(429,0,o),
(535,124,o),
(535,369,cs),
(535,614,o),
(431,727,o),
(313,727,cs),
(207,727,o),
(151,647,o),
(132,541,c),
(143,545,l),
(143,714,l),
(59,714,l),
(59,396,l),
(138,396,l),
(140,547,o),
(196,641,o),
(289,641,cs),
(377,641,o),
(441,561,o),
(441,368,cs),
(441,175,o),
(374,86,o),
(223,86,cs),
(59,86,l),
(59,0,l)
);
}
);
width = 586;
}
);
metricRight = "theCarrier-canadian";
note = uni1624;
unicode = 5668;
},
{
color = 9;
glyphname = "laCarrier-canadian";
lastChange = "2023-01-13 15:28:11 +0000";
layers = (
{
layerId = "7D3FB2DB-72C7-4646-AA25-FB3BBECA0225";
shapes = (
{
closed = 1;
nodes = (
(526,0,l),
(526,86,l),
(362,86,ls),
(211,86,o),
(144,175,o),
(144,368,cs),
(144,561,o),
(208,641,o),
(296,641,cs),
(390,641,o),
(445,547,o),
(447,396,c),
(526,396,l),
(526,714,l),
(443,714,l),
(443,545,l),
(453,541,l),
(435,647,o),
(378,727,o),
(272,727,cs),
(154,727,o),
(51,614,o),
(51,369,cs),
(51,124,o),
(157,0,o),
(363,0,cs)
);
}
);
width = 585;
}
);
metricLeft = "=|theCarrier-canadian";
metricRight = "=|leCarrier-canadian";
note = uni1627;
unicode = 5671;
},
{
color = 1;
glyphname = "dluCarrier-canadian";
lastChange = "2023-01-13 15:28:11 +0000";
layers = (
{
layerId = "7D3FB2DB-72C7-4646-AA25-FB3BBECA0225";
shapes = (
{
closed = 1;
nodes = (
(462,-13,o),
(543,113,o),
(543,321,cs),
(543,519,o),
(479,621,o),
(372,652,c),
(354,642,l),
(536,642,l),
(536,558,l),
(605,558,l),
(605,798,l),
(536,798,l),
(536,714,l),
(278,714,l),
(278,638,l),
(399,620,o),
(450,520,o),
(450,333,cs),
(450,167,o),
(405,73,o),
(294,73,cs),
(209,73,o),
(152,127,o),
(152,265,cs),
(152,714,l),
(58,714,l),
(58,264,ls),
(58,74,o),
(150,-13,o),
(295,-13,cs)
);
}
);
width = 639;
}
);
metricLeft = "te-canadian";
note = uni1628;
unicode = 5672;
},
{
color = 9;
glyphname = "dloCarrier-canadian";
lastChange = "2023-01-13 15:28:11 +0000";
layers = (
{
layerId = "7D3FB2DB-72C7-4646-AA25-FB3BBECA0225";
shapes = (
{
closed = 1;
nodes = (
(605,-84,l),
(605,156,l),
(536,156,l),
(536,72,l),
(354,72,l),
(372,62,l),
(479,93,o),
(543,195,o),
(543,393,cs),
(543,601,o),
(462,727,o),
(295,727,cs),
(149,727,o),
(58,640,o),
(58,450,cs),
(58,0,l),
(152,0,l),
(152,449,ls),
(152,587,o),
(209,641,o),
(294,641,cs),
(405,641,o),
(450,547,o),
(450,381,cs),
(450,194,o),
(399,94,o),
(278,76,c),
(278,0,l),
(536,0,l),
(536,-84,l)
);
}
);
width = 639;
}
);
metricLeft = "te-canadian";
metricRight = "dluCarrier-canadian";
note = uni1629;
unicode = 5673;
},
{
color = 9;
glyphname = "dleCarrier-canadian";
lastChange = "2023-01-13 15:31:28 +0000";
layers = (
{
anchors = (
{
name = middle_center_can;
pos = (302,357);
}
);
layerId = "7D3FB2DB-72C7-4646-AA25-FB3BBECA0225";
shapes = (
{
closed = 1;
nodes = (
(235,0,ls),
(442,0,o),
(548,124,o),
(548,369,cs),
(548,614,o),
(445,727,o),
(326,727,cs),
(226,727,o),
(155,655,o),
(131.002,525,c),
(141,520,l),
(141,726,l),
(207,726,l),
(207,793,l),
(6,793,l),
(6,726,l),
(72,726,l),
(72,396,l),
(151,396,l),
(153,547,o),
(209,641,o),
(302,641,cs),
(390,641,o),
(454,561,o),
(454,368,cs),
(454,175,o),
(387,86,o),
(236,86,cs),
(72,86,l),
(72,0,l)
);
}
);
width = 599;
}
);
metricRight = "theCarrier-canadian";
note = uni162A;
unicode = 5674;
},
{
color = 9;
glyphname = "dlaCarrier-canadian";
lastChange = "2023-01-13 15:28:11 +0000";
layers = (
{
layerId = "7D3FB2DB-72C7-4646-AA25-FB3BBECA0225";
shapes = (
{
closed = 1;
nodes = (
(526,0,l),
(526,86,l),
(362,86,ls),
(211,86,o),
(144,175,o),
(144,368,cs),
(144,561,o),
(209,641,o),
(296,641,cs),
(390,641,o),
(445,547,o),
(447,396,c),
(526,396,l),
(526,726,l),
(592,726,l),
(592,793,l),
(392,793,l),
(392,726,l),
(457,726,l),
(457,520,l),
(467,525,l),
(443,655,o),
(372,727,o),
(272,727,cs),
(154,727,o),
(51,614,o),
(51,369,cs),
(51,123,o),
(157,0,o),
(363,0,cs)
);
}
);
width = 598;
}
);
metricLeft = "=|theCarrier-canadian";
metricRight = "=|dleCarrier-canadian";
note = uni162D;
unicode = 5677;
},
{
color = 9;
glyphname = "lhuCarrier-canadian";
lastChange = "2023-01-13 15:28:11 +0000";
layers = (
{
layerId = "7D3FB2DB-72C7-4646-AA25-FB3BBECA0225";
shapes = (
{
closed = 1;
nodes = (
(477,-13,o),
(563,110,o),
(563,319,cs),
(563,520,o),
(491,634,o),
(375,667,c),
(412,636,l),
(570,636,l),
(570,714,l),
(357,714,l),
(357,639,l),
(430,597,o),
(470,494,o),
(470,337,cs),
(470,155,o),
(420,73,o),
(309,73,cs),
(200,73,o),
(150,155,o),
(150,337,cs),
(150,494,o),
(189,598,o),
(263,639,c),
(263,714,l),
(49,714,l),
(49,636,l),
(206,636,l),
(244,667,l),
(128,634,o),
(56,521,o),
(56,319,cs),
(56,110,o),
(142,-13,o),
(309,-13,cs)
);
}
);
width = 619;
}
);
metricLeft = "luCarrier-canadian";
metricRight = "=|";
note = uni162E;
unicode = 5678;
},
{
color = 9;
glyphname = "lhoCarrier-canadian";
lastChange = "2023-01-13 15:28:11 +0000";
layers = (
{
layerId = "7D3FB2DB-72C7-4646-AA25-FB3BBECA0225";
shapes = (
{
closed = 1;
nodes = (
(262,0,l),
(262,75,l),
(189,117,o),
(149,220,o),
(149,377,cs),
(149,559,o),
(199,641,o),
(309,641,cs),
(420,641,o),
(469,559,o),
(469,377,cs),
(469,220,o),
(430,116,o),
(356,75,c),
(356,0,l),
(570,0,l),
(570,78,l),
(413,78,l),
(375,47,l),
(491,80,o),
(563,193,o),
(563,395,cs),
(563,604,o),
(477,727,o),
(309,727,cs),
(142,727,o),
(56,604,o),
(56,395,cs),
(56,194,o),
(128,80,o),
(244,47,c),
(207,78,l),
(49,78,l),
(49,0,l)
);
}
);
width = 619;
}
);
metricLeft = "luCarrier-canadian";
metricRight = "=|";
note = uni162F;
unicode = 5679;
},
{
color = 9;
glyphname = "lheCarrier-canadian";
lastChange = "2023-01-13 15:28:11 +0000";
layers = (
{
anchors = (
{
name = middle_center_can;
pos = (302,357);
}
);
layerId = "7D3FB2DB-72C7-4646-AA25-FB3BBECA0225";
shapes = (
{
closed = 1;
nodes = (
(450,-13,o),
(556,100,o),
(556,357,cs),
(556,614,o),
(450,727,o),
(326,727,cs),
(217,727,o),
(157,651,o),
(139,555,c),
(145,555,l),
(145,714,l),
(62,714,l),
(62,431,l),
(141,431,l),
(151,548,o),
(197,641,o),
(303,641,cs),
(394,641,o),
(463,561,o),
(463,357,cs),
(463,153,o),
(395,73,o),
(303,73,cs),
(197,73,o),
(151,166,o),
(141,283,c),
(62,283,l),
(62,0,l),
(145,0,l),
(145,159,l),
(139,159,l),
(157,63,o),
(217,-13,o),
(326,-13,cs)
);
}
);
width = 607;
}
);
metricLeft = "nunavuth-canadian";
metricRight = "theCarrier-canadian";
note = uni1630;
unicode = 5680;
},
{
color = 9;
glyphname = "lhaCarrier-canadian";
lastChange = "2023-01-13 15:28:11 +0000";
layers = (
{
layerId = "7D3FB2DB-72C7-4646-AA25-FB3BBECA0225";
shapes = (
{
closed = 1;
nodes = (
(390,-13,o),
(450,63,o),
(467,159,c),
(461,159,l),
(461,0,l),
(545,0,l),
(545,283,l),
(466,283,l),
(456,166,o),
(410,73,o),
(304,73,cs),
(212,73,o),
(144,153,o),
(144,357,cs),
(144,561,o),
(212,641,o),
(304,641,cs),
(410,641,o),
(456,548,o),
(466,431,c),
(545,431,l),
(545,714,l),
(461,714,l),
(461,555,l),
(467,555,l),
(450,651,o),
(390,727,o),
(280,727,cs),
(157,727,o),
(51,614,o),
(51,357,cs),
(51,100,o),
(157,-13,o),
(280,-13,cs)
);
}
);
width = 607;
}
);
metricLeft = "=|theCarrier-canadian";
metricRight = "nunavuth-canadian";
note = uni1633;
unicode = 5683;
},
{
color = 9;
glyphname = "tlhuCarrier-canadian";
lastChange = "2023-01-13 15:28:11 +0000";
layers = (
{
layerId = "7D3FB2DB-72C7-4646-AA25-FB3BBECA0225";
shapes = (
{
closed = 1;
nodes = (
(477,-13,o),
(563,110,o),
(563,319,cs),
(563,496,o),
(509,607,o),
(417,653,c),
(394,642,l),
(556,642,l),
(556,558,l),
(625,558,l),
(625,798,l),
(556,798,l),
(556,714,l),
(357,714,l),
(357,639,l),
(431,597,o),
(470,494,o),
(470,337,cs),
(470,155,o),
(420,73,o),
(309,73,cs),
(199,73,o),
(149,155,o),
(149,337,cs),
(149,494,o),
(188,598,o),
(263,639,c),
(263,714,l),
(49,714,l),
(49,636,l),
(218,636,l),
(194,649,l),
(107,600,o),
(56,492,o),
(56,319,cs),
(56,110,o),
(142,-13,o),
(309,-13,cs)
);
}
);
width = 655;
}
);
metricLeft = "lhuCarrier-canadian";
note = uni1634;
unicode = 5684;
},
{
color = 9;
glyphname = "tlhoCarrier-canadian";
lastChange = "2023-01-13 15:28:11 +0000";
layers = (
{
layerId = "7D3FB2DB-72C7-4646-AA25-FB3BBECA0225";
shapes = (
{
closed = 1;
nodes = (
(99,-84,l),
(99,0,l),
(298,0,l),
(298,75,l),
(224,117,o),
(185,220,o),
(185,377,cs),
(185,559,o),
(235,641,o),
(346,641,cs),
(456,641,o),
(506,559,o),
(506,377,cs),
(506,220,o),
(467,116,o),
(392,75,c),
(392,0,l),
(606,0,l),
(606,78,l),
(438,78,l),
(461,65,l),
(549,114,o),
(599,222,o),
(599,395,cs),
(599,604,o),
(513,727,o),
(346,727,cs),
(178,727,o),
(93,604,o),
(93,395,cs),
(93,218,o),
(147,107,o),
(238,61,c),
(261,72,l),
(99,72,l),
(99,156,l),
(30,156,l),
(30,-84,l)
);
}
);
width = 655;
}
);
metricLeft = "=|tlhuCarrier-canadian";
metricRight = "lhuCarrier-canadian";
note = uni1635;
unicode = 5685;
},
{
color = 9;
glyphname = "tlheCarrier-canadian";
lastChange = "2023-01-13 15:28:11 +0000";
layers = (
{
anchors = (
{
name = middle_center_can;
pos = (313,357);
}
);
layerId = "7D3FB2DB-72C7-4646-AA25-FB3BBECA0225";
shapes = (
{
closed = 1;
nodes = (
(460,-13,o),
(566,100,o),
(566,357,cs),
(566,614,o),
(460,727,o),
(337,727,cs),
(229,727,o),
(156,658,o),
(131,535,c),
(141,530,l),
(141,726,l),
(207,726,l),
(207,793,l),
(6,793,l),
(6,726,l),
(72,726,l),
(72,431,l),
(151,431,l),
(161,548,o),
(207,641,o),
(313,641,cs),
(405,641,o),
(473,566,o),
(473,357,cs),
(473,153,o),
(405,73,o),
(313,73,cs),
(207,73,o),
(161,166,o),
(151,283,c),
(72,283,l),
(72,0,l),
(156,0,l),
(156,175,l),
(149,162,l),
(166,64,o),
(226,-13,o),
(337,-13,cs)
);
}
);
width = 617;
}
);
metricLeft = "dleCarrier-canadian";
metricRight = "theCarrier-canadian";
note = uni1636;
unicode = 5686;
},
{
color = 9;
glyphname = "tlhaCarrier-canadian";
lastChange = "2023-01-13 15:28:11 +0000";
layers = (
{
layerId = "7D3FB2DB-72C7-4646-AA25-FB3BBECA0225";
shapes = (
{
closed = 1;
nodes = (
(391,-13,o),
(451,64,o),
(468,162,c),
(461,175,l),
(461,0,l),
(545,0,l),
(545,283,l),
(466,283,l),
(456,166,o),
(410,73,o),
(304,73,cs),
(212,73,o),
(144,153,o),
(144,357,cs),
(144,566,o),
(212,641,o),
(304,641,cs),
(410,641,o),
(456,548,o),
(466,431,c),
(545,431,l),
(545,726,l),
(611,726,l),
(611,793,l),
(410,793,l),
(410,726,l),
(476,726,l),
(476,530,l),
(486,535,l),
(461,658,o),
(389,727,o),
(280,727,cs),
(157,727,o),
(51,614,o),
(51,357,cs),
(51,100,o),
(157,-13,o),
(280,-13,cs)
);
}
);
width = 617;
}
);
metricLeft = "=|theCarrier-canadian";
metricRight = "=|dleCarrier-canadian";
note = uni1639;
unicode = 5689;
},
{
color = 9;
glyphname = "tluCarrier-canadian";
lastChange = "2023-01-13 15:28:11 +0000";
layers = (
{
layerId = "7D3FB2DB-72C7-4646-AA25-FB3BBECA0225";
shapes = (
{
closed = 1;
nodes = (
(301,-13,o),
(351,25,o),
(372,111,c),
(346,111,l),
(366,25,o),
(417,-13,o),
(482,-13,cs),
(594,-13,o),
(662,71,o),
(662,285,cs),
(662,506,o),
(608,612,o),
(509,653,c),
(488,642,l),
(655,642,l),
(655,558,l),
(724,558,l),
(724,798,l),
(655,798,l),
(655,714,l),
(407,714,l),
(407,638,l),
(518,634,o),
(568,527,o),
(568,290,cs),
(568,113,o),
(532,72,o),
(479,72,cs),
(433,72,o),
(403,113,o),
(403,203,cs),
(403,313,l),
(315,313,l),
(315,203,ls),
(315,113,o),
(285,72,o),
(239,72,cs),
(186,72,o),
(150,113,o),
(150,290,cs),
(150,527,o),
(200,634,o),
(312,638,c),
(312,714,l),
(50,714,l),
(50,636,l),
(224,636,l),
(201,649,l),
(107,606,o),
(57,501,o),
(57,285,cs),
(57,71,o),
(124,-13,o),
(235,-13,cs)
);
}
);
width = 754;
}
);
metricRight = "tlhuCarrier-canadian";
note = uni163A;
unicode = 5690;
},
{
color = 1;
glyphname = "tloCarrier-canadian";
lastChange = "2023-01-13 15:28:11 +0000";
layers = (
{
layerId = "7D3FB2DB-72C7-4646-AA25-FB3BBECA0225";
shapes = (
{
closed = 1;
nodes = (
(724,-84,l),
(724,156,l),
(655,156,l),
(655,72,l),
(488,72,l),
(509,61,l),
(608,102,o),
(662,208,o),
(662,429,cs),
(662,643,o),
(594,727,o),
(482,727,cs),
(417,727,o),
(366,689,o),
(346,603,c),
(372,603,l),
(351,689,o),
(301,727,o),
(235,727,cs),
(124,727,o),
(57,643,o),
(57,429,cs),
(57,213,o),
(107,108,o),
(201,65,c),
(224,78,l),
(50,78,l),
(50,0,l),
(312,0,l),
(312,76,l),
(200,80,o),
(150,187,o),
(150,424,cs),
(150,601,o),
(186,642,o),
(239,642,cs),
(285,642,o),
(315,601,o),
(315,511,cs),
(315,401,l),
(403,401,l),
(403,511,ls),
(403,601,o),
(433,642,o),
(479,642,cs),
(532,642,o),
(568,601,o),
(568,424,cs),
(568,187,o),
(518,80,o),
(407,76,c),
(407,0,l),
(655,0,l),
(655,-84,l)
);
}
);
width = 754;
}
);
metricLeft = "tluCarrier-canadian";
metricRight = "tlhuCarrier-canadian";
note = uni163B;
unicode = 5691;
},
{
color = 9;
glyphname = "tleCarrier-canadian";
lastChange = "2023-01-13 15:28:11 +0000";
layers = (
{
anchors = (
{
name = middle_center_can;
pos = (250,357);
}
);
layerId = "7D3FB2DB-72C7-4646-AA25-FB3BBECA0225";
shapes = (
{
closed = 1;
nodes = (
(478,-13,o),
(556,63,o),
(556,186,cs),
(556,282,o),
(510,349,o),
(430,365,c),
(430,349,l),
(510,365,o),
(556,432,o),
(556,528,cs),
(556,651,o),
(478,727,o),
(353,727,cs),
(237,727,o),
(153,660,o),
(132,546,c),
(141,537,l),
(141,726,l),
(207,726,l),
(207,793,l),
(6,793,l),
(6,726,l),
(72,726,l),
(72,431,l),
(149,431,l),
(151,557,o),
(202,643,o),
(327,643,cs),
(416,643,o),
(464,598,o),
(464,514,cs),
(464,439,o),
(426,396,o),
(360,396,cs),
(330,396,l),
(330,319,l),
(360,319,ls),
(427,319,o),
(464,276,o),
(464,201,cs),
(464,116,o),
(416,71,o),
(327,71,cs),
(202,71,o),
(151,157,o),
(149,283,c),
(72,283,l),
(72,0,l),
(156,0,l),
(156,158,l),
(142,146,l),
(169,48,o),
(243,-13,o),
(353,-13,cs)
);
}
);
width = 615;
}
);
metricLeft = "dleCarrier-canadian";
metricRight = "geCarrier-canadian";
note = uni163C;
unicode = 5692;
},
{
color = 9;
glyphname = "tlaCarrier-canadian";
lastChange = "2023-01-13 15:28:11 +0000";
layers = (
{
layerId = "7D3FB2DB-72C7-4646-AA25-FB3BBECA0225";
shapes = (
{
closed = 1;
nodes = (
(373,-13,o),
(447,48,o),
(473,146,c),
(460,158,l),
(460,0,l),
(543,0,l),
(543,283,l),
(466,283,l),
(465,157,o),
(414,71,o),
(289,71,cs),
(200,71,o),
(151,116,o),
(151,201,cs),
(151,276,o),
(189,319,o),
(255,319,cs),
(287,319,l),
(287,396,l),
(255,396,ls),
(189,396,o),
(151,439,o),
(151,514,cs),
(151,598,o),
(199,643,o),
(288,643,cs),
(414,643,o),
(465,557,o),
(466,431,c),
(543,431,l),
(543,726,l),
(609,726,l),
(609,793,l),
(409,793,l),
(409,726,l),
(474,726,l),
(474,537,l),
(483,546,l),
(463,660,o),
(379,727,o),
(262,727,cs),
(137,727,o),
(59,651,o),
(59,528,cs),
(59,432,o),
(106,365,o),
(185,349,c),
(185,365,l),
(106,349,o),
(59,282,o),
(59,186,cs),
(59,63,o),
(137,-13,o),
(262,-13,cs)
);
}
);
width = 615;
}
);
metricLeft = "=|geCarrier-canadian";
metricRight = "=|dleCarrier-canadian";
note = uni163F;
unicode = 5695;
},
{
color = 9;
glyphname = "zuCarrier-canadian";
lastChange = "2023-01-13 15:28:11 +0000";
layers = (
{
layerId = "7D3FB2DB-72C7-4646-AA25-FB3BBECA0225";
shapes = (
{
closed = 1;
nodes = (
(465,-13,o),
(562,80,o),
(562,234,cs),
(562,351,o),
(487,499,o),
(487,575,cs),
(487,605,o),
(500,633,o),
(546,633,cs),
(570,633,l),
(570,714,l),
(523,714,ls),
(435,714,o),
(397,664,o),
(397,589,cs),
(397,498,o),
(469,357,o),
(469,248,cs),
(469,138,o),
(411,73,o),
(308,73,cs),
(205,73,o),
(148,137,o),
(148,248,cs),
(148,357,o),
(220,498,o),
(220,589,cs),
(220,664,o),
(182,714,o),
(94,714,cs),
(47.009,714,l),
(47,633,l),
(71,633,ls),
(116,633,o),
(130,605,o),
(130,575,cs),
(130,499,o),
(55,351,o),
(55,234,cs),
(55,80,o),
(151,-13,o),
(308,-13,cs)
);
}
);
width = 617;
}
);
metricRight = "=|";
note = uni1640;
unicode = 5696;
},
{
color = 9;
glyphname = "zoCarrier-canadian";
lastChange = "2023-01-13 15:28:11 +0000";
layers = (
{
layerId = "7D3FB2DB-72C7-4646-AA25-FB3BBECA0225";
shapes = (
{
closed = 1;
nodes = (
(94,0,ls),
(182,0,o),
(220,50,o),
(220,125,cs),
(220,216,o),
(148,357,o),
(148,466,cs),
(148,576,o),
(206,641,o),
(309,641,cs),
(412,641,o),
(469,577,o),
(469,466,cs),
(469,357,o),
(397,216,o),
(397,125,cs),
(397,50,o),
(436,0,o),
(523,0,cs),
(570,0,l),
(570,81,l),
(546,81,ls),
(501,81,o),
(487,109,o),
(487,139,cs),
(487,215,o),
(563,363,o),
(563,480,cs),
(563,634,o),
(466,727,o),
(309,727,cs),
(152,727,o),
(56,634,o),
(56,480,cs),
(56,363,o),
(130,215,o),
(130,139,cs),
(130,109,o),
(117,81,o),
(71,81,cs),
(47,81,l),
(47.009,0,l)
);
}
);
width = 617;
}
);
metricLeft = "zuCarrier-canadian";
metricRight = "zuCarrier-canadian";
note = uni1641;
unicode = 5697;
},
